<svg xmlns="http://www.w3.org/2000/svg" width="18" height="17" fill="none"><path fill="#F1D9AF" d="M12.072 4.981a.688.688 0 0 0 .72 1.173l-.72-1.173Zm.72 5.602a.688.688 0 1 0-.72 1.172l.72-1.172Zm-.36-2.902a.688.688 0 0 0 0 1.375V7.681ZM2.394 4.343l.418.545-.418-.545Zm1.071-.823-.418-.545.418.545Zm0 9.697-.418.545.418-.545Zm-1.071-.823-.42.546.42-.546Zm-1.21-1.16.616-.304-.616.304Zm7.035 4.377.304.617-.303-.618Zm0-14.485-.303.618.303-.618Zm4.573 5.028 4.287-2.631-.72-1.172-4.287 2.63.72 1.173Zm-.72 5.601 4.288 2.631.719-1.172-4.287-2.63-.72 1.171Zm.36-2.699h4.122V7.681h-4.122v1.375Zm-9.62-4.168 1.072-.822-.837-1.091-1.072.822.837 1.091ZM8.53 6.343v4.05h1.376v-4.05H8.529Zm-4.645 6.328-1.072-.822-.837 1.09 1.072.823.837-1.09Zm-2.196-3.1V7.166H.312V9.57h1.376Zm1.124 2.278c-.738-.567-.916-.724-1.012-.919l-1.233.609c.271.55.778.917 1.408 1.4l.837-1.09ZM.312 9.57c0 .793-.016 1.418.255 1.968L1.8 10.93c-.096-.194-.112-.43-.112-1.359H.312Zm8.217.823c0 1.599-.002 2.72-.117 3.506-.117.793-.316 1.005-.496 1.093l.607 1.235c.817-.402 1.117-1.223 1.25-2.128.133-.91.132-2.154.132-3.706H8.529Zm-5.482 3.368c1.233.947 2.22 1.707 3.025 2.156.8.447 1.634.71 2.45.31l-.606-1.235c-.18.089-.471.117-1.173-.275-.696-.39-1.588-1.072-2.859-2.047l-.837 1.091Zm.837-9.696c1.27-.976 2.163-1.658 2.859-2.047.702-.392.993-.364 1.173-.275L8.523.509c-.817-.4-1.651-.137-2.45.31-.806.45-1.793 1.209-3.026 2.156l.837 1.09Zm6.02 2.277c0-1.552.002-2.795-.131-3.706C9.64 1.732 9.34.91 8.523.509l-.607 1.235c.18.088.38.3.496 1.093.115.787.117 1.907.117 3.506h1.376Zm-7.93-2.546c-.63.484-1.136.852-1.407 1.401l1.233.609c.096-.195.274-.352 1.012-.919l-.837-1.09Zm-.286 3.369c0-.93.016-1.165.112-1.36L.567 5.199c-.271.55-.255 1.175-.255 1.968h1.376Z"/></svg>