<svg xmlns="http://www.w3.org/2000/svg" width="318" height="318" fill="none"><path fill="#202020" d="M0 0h318v318H0z"/><g clip-path="url(#a)"><path fill="#F4ECDF" d="M77.286 172.371h-7.472v-3.426h-.104a8.625 8.625 0 0 1-1.065 1.455c-.432.485-.96.918-1.584 1.298a9.118 9.118 0 0 1-2.127.934 8.851 8.851 0 0 1-2.596.364c-1.97 0-3.571-.303-4.8-.909-1.228-.606-2.18-1.445-2.853-2.517-.675-1.072-1.125-2.337-1.348-3.789-.226-1.455-.337-3.026-.337-4.724v-13.911h7.785v12.356c0 .726.026 1.479.076 2.258a7.04 7.04 0 0 0 .467 2.154 3.677 3.677 0 0 0 1.194 1.609c.537.416 1.305.623 2.31.623 1.005 0 1.818-.183 2.44-.547a3.722 3.722 0 0 0 1.428-1.454c.33-.606.546-1.289.649-2.052.104-.76.157-1.557.157-2.386v-12.563h7.784v25.227h-.004Zm17.423-25.944c7.597 0 12.438 5.519 12.438 13.067 0 6.508-3.956 13.483-11.554 13.483-2.758 0-6.09-.676-8.015-3.331h-.103v14.577h-7.807v-37.172h7.181v3.332h.105c1.717-2.394 4.789-3.956 7.755-3.956Zm-7.858 13.274c0 3.8 2.393 6.403 6.245 6.403 3.85 0 6.244-2.499 6.244-6.403 0-3.904-2.446-6.403-6.297-6.403-3.852 0-6.192 2.655-6.192 6.403Z"/><path fill="#EE4B2F" d="M234.696 161.19h3.8a7.67 7.67 0 0 1 1.521.147c.487.098.922.264 1.305.502.38.238.685.556.911.957.224.402.339.911.339 1.529 0 .794-.218 1.457-.656 1.993-.438.536-1.063.86-1.878.974l2.902 4.835h-2.347l-2.533-4.633h-1.421v4.633h-1.947V161.19h.004Zm3.459 4.633c.28 0 .556-.012.834-.038.279-.027.533-.086.764-.186a1.34 1.34 0 0 0 .565-.447c.143-.202.216-.48.216-.841 0-.32-.068-.577-.202-.772a1.256 1.256 0 0 0-.523-.44 2.399 2.399 0 0 0-.719-.193 6.498 6.498 0 0 0-.764-.045h-1.682v2.967h1.514l-.003-.005Z"/><path fill="#EE4B2F" d="M243.358 172.36h-2.899l-2.533-4.633h-1.048v4.633h-2.414v-11.405h4.033c.538 0 1.065.05 1.566.151.515.103.979.281 1.383.535.413.257.747.608.99 1.041.245.435.372.988.372 1.644 0 .844-.24 1.565-.709 2.14-.411.502-.977.837-1.683.996l2.942 4.898Zm-2.622-.468h1.796l-2.871-4.785.35-.048c.759-.106 1.324-.397 1.728-.889.401-.49.603-1.111.603-1.845 0-.575-.102-1.05-.309-1.414a2.435 2.435 0 0 0-.832-.875 3.667 3.667 0 0 0-1.229-.471 7.624 7.624 0 0 0-1.475-.142h-3.565v10.469h1.478v-4.634h1.793l2.533 4.634Zm-2.579-5.833h-1.747v-3.433h1.918c.255 0 .521.016.791.047.287.034.551.106.789.212.254.116.464.29.623.521.161.236.243.539.243.904 0 .408-.087.737-.26.979a1.543 1.543 0 0 1-.663.526 2.824 2.824 0 0 1-.834.202c-.284.026-.57.038-.856.038l-.004.004Zm-1.278-.469h1.278c.269 0 .544-.012.813-.038.252-.024.485-.079.694-.169a1.06 1.06 0 0 0 .464-.37c.112-.159.173-.397.173-.704 0-.269-.052-.486-.16-.64a1.007 1.007 0 0 0-.428-.358 2.136 2.136 0 0 0-.649-.174 6.473 6.473 0 0 0-.737-.045h-1.449l.001 2.498Z"/><path fill="#F4ECDF" d="M222.48 172.37h-7.16v-3.323h-.103a8.737 8.737 0 0 1-1.219 1.376 9.258 9.258 0 0 1-1.764 1.272c-.675.382-1.418.692-2.23.934a8.752 8.752 0 0 1-2.517.364c-1.868 0-3.564-.321-5.086-.96-1.523-.64-2.828-1.538-3.918-2.7-1.088-1.159-1.929-2.534-2.516-4.127-.589-1.592-.882-3.339-.882-5.243 0-1.765.266-3.452.805-5.061.536-1.609 1.298-3.036 2.283-4.282a11.177 11.177 0 0 1 3.607-2.986c1.419-.743 3.026-1.115 4.826-1.115 1.626 0 3.14.252 4.541.753a7.267 7.267 0 0 1 3.451 2.57h.103v-16.716h7.785v39.244h-.006Zm-7.159-12.615c0-1.902-.545-3.443-1.635-4.621-1.088-1.176-2.619-1.765-4.593-1.765-1.974 0-3.501.59-4.593 1.765-1.089 1.178-1.635 2.717-1.635 4.621 0 1.904.545 3.442 1.635 4.621 1.088 1.178 2.619 1.764 4.593 1.764 1.974 0 3.501-.589 4.593-1.764 1.089-1.176 1.635-2.717 1.635-4.621Z"/><path fill="#EE4B2F" d="M225.14 161.191h3.675c.523 0 1.031.05 1.521.154a3.8 3.8 0 0 1 1.288.516c.37.243.666.568.886.975.222.406.331.913.331 1.521 0 .69-.117 1.246-.354 1.669-.238.423-.556.75-.956.981-.402.231-.868.39-1.397.471-.532.081-1.084.123-1.661.123h-1.39v4.524h-1.946v-10.937l.003.003Zm3.12 4.742c.28 0 .565-.01.865-.031.298-.022.575-.082.827-.186.252-.103.459-.257.618-.463.159-.207.24-.495.24-.866 0-.339-.072-.611-.216-.81a1.45 1.45 0 0 0-.556-.464 2.343 2.343 0 0 0-.756-.209 7.251 7.251 0 0 0-.803-.046h-1.39v3.076h1.174l-.003-.001Z"/><path fill="#EE4B2F" d="M227.32 172.36h-2.413v-11.405h3.909c.538 0 1.064.052 1.569.159.515.108.976.292 1.37.551.402.261.726.618.967 1.057.24.44.36.991.36 1.633 0 .726-.129 1.327-.385 1.784a2.792 2.792 0 0 1-1.046 1.069 4.244 4.244 0 0 1-1.478.5 11.04 11.04 0 0 1-1.696.128h-1.156l-.001 4.524Zm-1.947-.468h1.478v-4.525h1.626c.562 0 1.107-.04 1.625-.12a3.758 3.758 0 0 0 1.316-.443c.363-.209.656-.509.87-.891.217-.385.324-.909.324-1.553 0-.565-.1-1.039-.302-1.409a2.45 2.45 0 0 0-.81-.89 3.528 3.528 0 0 0-1.21-.482 7.172 7.172 0 0 0-1.473-.15h-3.441v10.468l-.003-.005Zm2.887-5.725h-1.409v-3.541h1.626c.264 0 .542.016.829.047.302.034.582.111.831.231.262.126.478.305.644.539.174.241.26.561.26.947 0 .423-.096.763-.288 1.007a1.715 1.715 0 0 1-.714.537 2.86 2.86 0 0 1-.898.202c-.302.022-.6.031-.881.031Zm-.94-.47h.939c.271 0 .558-.009.848-.031.272-.019.526-.074.754-.168.217-.088.385-.216.521-.39.126-.163.19-.406.19-.721 0-.288-.057-.513-.173-.675a1.205 1.205 0 0 0-.466-.39 2.154 2.154 0 0 0-.682-.187 7.245 7.245 0 0 0-.777-.046h-1.155l.001 2.608Zm30.923-4.506h7.242v1.76h-5.297v2.688h5.018v1.759h-5.018v2.967h5.572v1.76h-7.521v-10.937l.004.003Z"/><path fill="#EE4B2F" d="M266.002 172.36h-7.99v-11.405h7.709v2.229h-5.297v2.218h5.02v2.229h-5.02v2.499H266v2.229l.002.001Zm-7.521-.468h7.052v-1.294h-5.574v-3.433h5.02v-1.293h-5.02v-3.157h5.297v-1.293h-6.775v10.47Zm-33.338-38.558h7.241v1.76h-5.297v2.688h5.019v1.76h-5.019v2.966h5.573v1.76h-7.519v-10.934h.002Z"/><path fill="#EE4B2F" d="M232.897 144.509h-7.99v-11.406h7.71v2.229h-5.297v2.22h5.018v2.229h-5.018v2.498h5.574v2.23l.003.002v-.002Zm-7.521-.469h7.052v-1.293h-5.574v-3.433h5.019v-1.294h-5.019v-3.157h5.297v-1.291h-6.775v10.468Zm29.364 19.498a1.808 1.808 0 0 0-.827-.656 2.87 2.87 0 0 0-1.088-.209c-.226 0-.445.026-.656.076a1.831 1.831 0 0 0-.573.248 1.319 1.319 0 0 0-.409.44 1.26 1.26 0 0 0-.153.642c0 .37.127.653.387.848.256.195.577.366.956.509.38.145.799.284 1.249.416.453.135.871.321 1.25.556a3.1 3.1 0 0 1 .956.942c.258.392.388.911.388 1.56 0 .587-.107 1.098-.324 1.536a3.139 3.139 0 0 1-.873 1.089c-.364.288-.79.504-1.272.649a5.34 5.34 0 0 1-1.529.216c-.68 0-1.335-.113-1.962-.339a3.785 3.785 0 0 1-1.621-1.144l1.464-1.421c.236.361.549.641.935.841a2.62 2.62 0 0 0 1.91.207c.224-.062.431-.154.616-.279.187-.125.334-.28.447-.471.113-.19.171-.408.171-.656 0-.401-.13-.711-.386-.925a3.475 3.475 0 0 0-.958-.549c-.379-.149-.797-.29-1.249-.425a5.301 5.301 0 0 1-1.25-.549 3.053 3.053 0 0 1-.956-.925c-.256-.387-.386-.903-.386-1.552 0-.566.115-1.056.349-1.467.231-.411.535-.756.91-1.027a4.04 4.04 0 0 1 1.287-.611 5.494 5.494 0 0 1 1.484-.202c.577 0 1.135.086 1.676.262a3.927 3.927 0 0 1 1.459.865l-1.422 1.498v.007Z"/><path fill="#EE4B2F" d="M252.225 172.639a6.039 6.039 0 0 1-2.041-.354 4.022 4.022 0 0 1-1.721-1.212l-.142-.166 1.829-1.769.154.235c.215.325.498.582.847.763a2.375 2.375 0 0 0 1.738.19c.201-.055.386-.137.55-.247.158-.107.281-.236.377-.397.092-.157.138-.333.138-.537 0-.332-.098-.577-.302-.748a3.129 3.129 0 0 0-.892-.509 15.879 15.879 0 0 0-1.232-.419 5.616 5.616 0 0 1-1.307-.572 3.324 3.324 0 0 1-1.031-.998c-.281-.423-.424-.989-.424-1.683 0-.606.126-1.137.377-1.582.247-.44.577-.81.978-1.1a4.25 4.25 0 0 1 1.365-.647 5.784 5.784 0 0 1 3.293.064 4.141 4.141 0 0 1 1.548.916l.173.161-1.781 1.881-.162-.238a1.568 1.568 0 0 0-.722-.573 2.685 2.685 0 0 0-1.602-.121 1.676 1.676 0 0 0-.5.214 1.085 1.085 0 0 0-.335.361 1.052 1.052 0 0 0-.123.524c0 .295.096.512.294.663.238.181.539.342.897.476.374.142.79.279 1.237.411.471.14.91.335 1.306.582.409.255.754.594 1.029 1.013.281.428.426.998.426 1.687 0 .621-.118 1.174-.348 1.64a3.365 3.365 0 0 1-.937 1.168 4.013 4.013 0 0 1-1.354.69 5.627 5.627 0 0 1-1.596.226l-.002.005-.002.002Zm-3.261-1.705c.396.419.856.724 1.378.911a5.53 5.53 0 0 0 1.883.328c.509 0 1.003-.07 1.461-.207a3.57 3.57 0 0 0 1.197-.608c.337-.265.609-.606.808-1.01.2-.404.3-.885.3-1.434 0-.598-.119-1.079-.349-1.43a2.896 2.896 0 0 0-.884-.873 4.952 4.952 0 0 0-1.195-.532 17.033 17.033 0 0 1-1.266-.423 4.173 4.173 0 0 1-1.018-.541c-.317-.241-.477-.59-.477-1.037 0-.285.062-.541.185-.758.12-.211.282-.384.482-.518a2.04 2.04 0 0 1 .647-.279 3.155 3.155 0 0 1 1.887.142c.295.121.548.293.755.517l1.069-1.127a3.67 3.67 0 0 0-1.195-.659 5.298 5.298 0 0 0-3.023-.057c-.455.125-.862.32-1.214.575-.347.252-.63.572-.843.951-.213.375-.317.83-.317 1.353 0 .599.115 1.077.345 1.424.236.356.534.644.884.856.362.221.764.396 1.196.523.458.137.885.281 1.268.43.404.159.747.357 1.022.587.313.262.469.635.469 1.106 0 .288-.068.551-.202.777-.13.219-.305.404-.52.546-.203.138-.433.24-.684.31a2.84 2.84 0 0 1-2.933-.921l-1.112 1.077-.004.001Zm-20.473-21.912h-3.35v-1.76h8.647v1.76h-3.35v9.173h-1.944v-9.173h-.003Z"/><path fill="#EE4B2F" d="M230.672 158.432h-2.414v-9.173h-3.351v-2.23h9.116v2.23h-3.35l-.001 9.173Zm-1.945-.468h1.479v-9.174h3.35v-1.293h-8.179v1.293h3.35v9.174Zm16.28 3.226h1.947v10.937h-1.947V161.19Z"/><path fill="#EE4B2F" d="M247.193 172.36h-2.413v-11.405h2.413v11.405Zm-1.947-.468h1.478v-10.469h-1.478v10.469Zm-9.897-24.63h7.242v1.759h-5.297v2.689h5.018v1.759h-5.018v2.967h5.574v1.759h-7.521v-10.937l.002.004Z"/><path fill="#EE4B2F" d="M243.102 158.433h-7.99v-11.406h7.711v2.23h-5.297v2.219h5.02v2.229h-5.02v2.499h5.574l.002 2.229Zm-7.521-.469h7.051v-1.293h-5.572v-3.433h5.018v-1.293h-5.018v-3.157h5.297v-1.293h-6.775l-.001 10.469Zm9.438-10.702h3.8c.524 0 1.032.048 1.522.147.488.098.921.264 1.304.502.381.238.686.556.91.958.227.401.34.91.34 1.528 0 .794-.219 1.458-.656 1.993-.438.537-1.063.861-1.878.974l2.903 4.835h-2.347l-2.533-4.633h-1.421v4.633h-1.947v-10.937h.003Zm3.459 4.633c.279 0 .556-.012.835-.038a2.51 2.51 0 0 0 .764-.185c.23-.098.418-.248.565-.447.143-.202.217-.481.217-.842 0-.32-.07-.577-.204-.772a1.24 1.24 0 0 0-.524-.44 2.4 2.4 0 0 0-.718-.192 6.487 6.487 0 0 0-.763-.046h-1.682v2.967h1.514l-.004-.005Z"/><path fill="#EE4B2F" d="M253.679 158.433h-2.899l-2.533-4.633h-1.048v4.633h-2.413v-11.406h4.034c.539 0 1.065.051 1.568.152a4.09 4.09 0 0 1 1.382.534c.413.257.748.609.991 1.042.245.435.37.988.37 1.644 0 .844-.238 1.565-.709 2.14-.411.502-.976.837-1.681.996l2.94 4.899-.002-.001Zm-2.622-.469h1.797l-2.871-4.784.349-.048c.759-.107 1.325-.397 1.728-.89.402-.49.603-1.11.603-1.844 0-.575-.101-1.051-.309-1.414a2.408 2.408 0 0 0-.831-.875 3.65 3.65 0 0 0-1.229-.471 7.634 7.634 0 0 0-1.476-.142h-3.564v10.468h1.477v-4.633h1.795l2.531 4.633Zm-2.578-5.835h-1.748v-3.433h1.919c.255 0 .521.017.792.048.285.033.55.105.788.211a1.5 1.5 0 0 1 .622.521c.162.236.243.54.243.904 0 .409-.087.738-.26.979a1.52 1.52 0 0 1-.664.526c-.25.106-.531.176-.833.202a9.373 9.373 0 0 1-.855.038l-.002.003-.002.001Zm-1.28-.466h1.28c.267 0 .541-.012.812-.039.251-.023.485-.078.694-.168.192-.081.343-.202.464-.371.113-.159.173-.396.173-.704 0-.269-.053-.485-.16-.639a1.008 1.008 0 0 0-.428-.359 2.165 2.165 0 0 0-.649-.173 6.473 6.473 0 0 0-.737-.045h-1.449v2.498Zm-11.851-18.329h2.578l5.298 8.126h.03v-8.126h1.948v10.937h-2.472l-5.406-8.388h-.031v8.388h-1.946l.001-10.937Z"/><path fill="#EE4B2F" d="M245.44 144.509h-2.833l-5.073-7.874v7.874h-2.413v-11.406h2.94l4.964 7.619v-7.619h2.415v11.406Zm-2.577-.469h2.109v-10.468h-1.477v8.125h-.392l-5.297-8.125h-2.219v10.468h1.478v-8.389h.392l5.406 8.389Z"/><path fill="#F4ECDF" d="m142.412 139.883-.182-.183c-3.211-3.375-8.02-5.158-13.913-5.158-5.892 0-10.998 1.856-14.543 5.368-3.543 3.511-5.417 8.49-5.417 14.4 0 3.324.566 6.298 1.68 8.838.999 2.277 2.445 4.219 4.295 5.773 3.217 2.703 7.612 4.191 12.376 4.191 2.424 0 4.661-.344 6.648-1.025 2.02-.691 3.682-1.695 4.938-2.983l1.179-1.211.147 4.537h7.09v-19.12l-15.354.029v5.576h6.325l-.453 1.816c-.398 1.605-1.559 3.078-3.268 4.146-1.542.964-3.396 1.516-5.089 1.516-1.961 0-4.765-.409-6.986-2.357-2.345-2.057-3.536-5.348-3.536-9.781 0-3.957.883-7.039 2.624-9.165 1.673-2.041 4.126-3.12 7.094-3.12 3.529 0 5.836.955 7.258 3.003l.013.021a7.654 7.654 0 0 1 1.162 2.743h9.525a11.519 11.519 0 0 0-.338-2.051 12.956 12.956 0 0 0-3.266-5.795l-.011-.011.002.003Zm6.888 7.807h7.465v2.486c1.338-2.064 2.74-2.889 4.797-2.889 3.048 0 5.002 1.933 5.002 4.748 0 2.815-1.983 4.748-4.899 4.748-1.787 0-3.32-.892-3.975-2.196-.72.309-.85.685-.85 2.411v15.442h-7.758v-24.75h.218Zm42.312 4.605c-1.919-3.239-4.48-5.019-10.652-5.019-5.723 0-10.033 1.614-11.716 5.188a9.078 9.078 0 0 0-.758 3.443h8.668c0-.526.103-1.004.308-1.482.477-1.107 1.609-1.585 3.591-1.585 1.852 0 3.02.553 3.535 1.614.309.656.411 1.163.411 2.645v.375h-3.806c-6.209 0-11.136.892-12.988 4.71a8.065 8.065 0 0 0-.616 3.339 7.464 7.464 0 0 0 .72 3.471c1.272 2.749 4.188 4.129 8.293 4.129 4.105 0 6.705-1.304 8.387-3.574v2.889h7.749v-14.064c0-2.364-.335-4.849-1.126-6.079Zm-6.659 10.134c0 1.304-.102 1.998-.448 2.683v-.01c-.645 1.407-2.122 2.196-4.451 2.196-1.505 0-2.842-.422-3.356-1.482a2.29 2.29 0 0 1-.243-1.163c-.029-.375.075-.712.243-1.06.579-1.267 2.571-1.511 5.003-1.511h3.254l-.002.347Z"/></g><defs><clipPath id="a"><path fill="#fff" d="M53 133.103h213v52.795H53z"/></clipPath></defs></svg>