<svg preserveAspectRatio="none" width="100%" height="100%" overflow="visible" style="display: block;" viewBox="0 0 393.65 393.65" fill="none" xmlns="http://www.w3.org/2000/svg">
<g id="Subtract">
<mask id="path-1-inside-1_0_11" fill="white">
<path d="M375.32 0C375.321 10.1234 383.527 18.3288 393.65 18.3291V375.32C383.527 375.321 375.321 383.527 375.32 393.65H18.3291C18.3288 383.527 10.1229 375.321 0 375.32V20.1631C10.123 20.1623 18.3289 11.9571 18.3291 1.83398C18.3291 1.21513 18.2982 0.603088 18.2383 0H375.32Z"/>
</mask>
<path d="M375.32 0C375.321 10.1234 383.527 18.3288 393.65 18.3291V375.32C383.527 375.321 375.321 383.527 375.32 393.65H18.3291C18.3288 383.527 10.1229 375.321 0 375.32V20.1631C10.123 20.1623 18.3289 11.9571 18.3291 1.83398C18.3291 1.21513 18.2982 0.603088 18.2383 0H375.32Z" fill="var(--fill-0, #242524)"/>
<path d="M375.32 0L375.955 -1.3577e-05V-0.634921H375.32V0ZM393.65 18.3291H394.285V17.6942L393.65 17.6942L393.65 18.3291ZM393.65 375.32L393.65 375.955L394.285 375.955V375.32H393.65ZM375.32 393.65V394.285H375.955L375.955 393.65L375.32 393.65ZM18.3291 393.65L17.6942 393.65L17.6942 394.285H18.3291V393.65ZM0 375.32H-0.634921V375.955L-4.66764e-05 375.955L0 375.32ZM0 20.1631L-4.66813e-05 19.5282L-0.634921 19.5282V20.1631H0ZM18.3291 1.83398L18.964 1.834V1.83398H18.3291ZM18.2383 0V-0.634921H17.5372L17.6065 0.0627497L18.2383 0ZM375.32 0L374.685 1.3577e-05C374.686 10.4741 383.176 18.9637 393.65 18.964L393.65 18.3291L393.65 17.6942C383.878 17.6939 375.955 9.77265 375.955 -1.3577e-05L375.32 0ZM393.65 18.3291H393.015V375.32H393.65H394.285V18.3291H393.65ZM393.65 375.32L393.65 374.685C383.176 374.686 374.686 383.176 374.685 393.65L375.32 393.65L375.955 393.65C375.956 383.878 383.878 375.956 393.65 375.955L393.65 375.32ZM375.32 393.65V393.015H18.3291V393.65V394.285H375.32V393.65ZM18.3291 393.65L18.964 393.65C18.9637 383.177 10.4736 374.686 4.66764e-05 374.685L0 375.32L-4.66764e-05 375.955C9.77223 375.956 17.6939 383.878 17.6942 393.65L18.3291 393.65ZM0 375.32H0.634921V20.1631H0H-0.634921V375.32H0ZM0 20.1631L4.66813e-05 20.798C10.4736 20.7972 18.9638 12.3078 18.964 1.834L18.3291 1.83398L17.6942 1.83397C17.694 11.6064 9.77234 19.5274 -4.66813e-05 19.5282L0 20.1631ZM18.3291 1.83398H18.964C18.964 1.19398 18.932 0.560993 18.8701 -0.0627497L18.2383 0L17.6065 0.0627497C17.6643 0.645184 17.6942 1.23629 17.6942 1.83398H18.3291ZM18.2383 0V0.634921H375.32V0V-0.634921H18.2383V0Z" fill="var(--stroke-0, #F1D9AF)" mask="url(#path-1-inside-1_0_11)"/>
</g>
</svg>
