<svg xmlns="http://www.w3.org/2000/svg" width="272" height="290" fill="none"><path fill="#EC816F" d="M0 0h272v290H0z"/><g fill="#fff" clip-path="url(#a)"><path d="M107.2 146.455s-2 4.922-4.493 4.695c-1.357-.124-1.786-1.232-1.784-1.91l.031-16.74h-6.74v17.152c-.005 2.797 2.036 5.355 5.65 5.519 3.403.155 7.33-4.843 7.33-4.843l-.007 4.306 6.708-.055.041-22.076h-6.705l-.031 13.952Zm22.508-13.855c-2.468-.004-4.641 1.221-6.134 3.081l-.025-3.178h-6.678l-.051 30.671 6.708.011.015-11.102c1.231 1.782 3.527 3.142 6.123 3.147 4.64.008 8.692-4.688 8.704-11.299.013-6.611-4.022-11.323-8.662-11.331Zm-2.121 19.728c-1.661 0-3.402-1.981-4.038-3.593l.018-9.66c.641-1.61 2.39-3.582 4.049-3.582 2.384.004 3.486 2.787 3.476 8.424-.011 5.636-1.122 8.415-3.505 8.411Zm13.195 2.39h6.702l.041-22.215h-6.743v22.215Zm32.24-22.168c-6.81 0-11.034 5.192-11.041 11.295-.013 6.611 4.71 11.064 10.577 11.335 2.685.123 6.421-1.541 8.197-3.357l-1.088-1.567c-3.543 3.047-5.119 2.678-5.119 2.678-4.427-.007-5.215-3.443-5.204-9.333l13.024.023c-.343-7.015-4.44-11.075-9.346-11.074Zm2.833 9.006-6.509-.012c.007-3.475.99-7.85 3.671-7.85 2.064 0 3.06 5.017 2.838 7.862Zm-13.203-9.164-3.695-.01.012-7.382-9.681 9.483 2.851.006.02 20.2h6.741l.052-20.247 3.695.01.005-2.06Zm33.982-.076c-2.079.6-4.069 2.249-5.431 3.915l.007-3.818h-6.744v22.215h3.559l3.149.006.021-14.361v-.666c.909-1.529 2.5-3.706 4.129-3.558 1.087.1 1.99 1.289 1.995 2.384l4.679-4.564c.089-.09-2.588-2.352-5.364-1.553ZM83.861 154.115c0 3.19-2.597 5.776-5.801 5.776-3.205 0-5.802-2.586-5.802-5.776 0-.089.003-.176.007-.263a2.526 2.526 0 0 0 2.524 2.337 2.526 2.526 0 0 0 2.527-2.385h.004v-7.288H70v7.288c.021 5.849 4.79 10.584 10.669 10.584 5.866 0 10.625-4.714 10.667-10.545L91.337 125h-7.476v29.115Z"/></g><defs><clipPath id="a"><path fill="#fff" d="M70 125h132v40H70z"/></clipPath></defs></svg>