<svg xmlns="http://www.w3.org/2000/svg" width="318" height="318" fill="none"><path fill="#1985F9" d="M0 0h318v318H0z"/><path fill="#fff" d="M156.91 93.98c-2.06.155-3.978.483-5.242.92-.499.172-1.201.313-1.575.313-.952 0-4.088.562-6.147 1.11-3.104.811-5.834 1.842-7.737 2.92-.609.344-1.513.796-2.028 1.015-1.95.797-4.524 2.859-5.678 4.53-.203.297-.687.703-1.077.89-1.373.656-2.808 1.734-3.946 2.952-.64.672-1.467 1.39-1.857 1.578-2.449 1.249-4.477 3.389-5.678 5.982-.468 1.031-.655 1.265-1.544 1.89-.546.39-1.56 1.312-2.247 2.062-1.014 1.062-1.435 1.687-2.043 2.936-.749 1.515-1.264 3.296-1.264 4.311 0 .391-.218.734-1.061 1.64-1.95 2.124-3.244 4.811-3.603 7.419-.078.641-.297 1.797-.468 2.578-.983 4.279-1.404 9.715-1.123 14.526.109 1.749.265 3.561.358 4.014.078.453.188 1.64.219 2.624.078 2.187.452 3.827 1.31 5.545.343.703.624 1.405.624 1.593 0 .718 1.716 5.029 3.463 8.669.858 1.796 1.186 2.327 1.482 2.421.297.109.468.375.765 1.187.483 1.39 1.17 2.608 2.215 3.905.842 1.03 2.589 2.546 3.51 3.014.312.172.592.578.967 1.406.78 1.718 1.794 3.155 3.042 4.326l1.076 1.031-.655.078c-.359.047-1.217.125-1.903.172-5.46.406-14.024 1.765-20.358 3.218-5.272 1.218-12.355 3.311-12.074 3.577.14.109 3.026 1.14 7.192 2.561 1.06.344 1.918.703 1.918.781 0 .078-.608 1.859-1.341 3.952-.734 2.109-1.31 3.858-1.264 3.889.047.047 1.217-.312 2.62-.781 6.631-2.202 16.911-4.233 25.101-4.936 9.016-.765 19.687.235 28.329 2.656.936.25 1.763.468 1.856.468.078 0-1.201-1.359-2.87-3.03l-3.027-3.03.687-.187c1.622-.438 4.118-.969 6.146-1.281 1.903-.297 2.808-.344 7.176-.359 4.446 0 5.241.046 7.347.359 2.278.343 6.521 1.296 6.724 1.484.047.062-1.264 1.437-2.933 3.077-1.653 1.624-2.964 2.967-2.886 2.967.063 0 1.186-.281 2.496-.624 7.41-1.953 15.101-2.859 22.869-2.718 8.783.156 21.497 2.358 29.936 5.154 1.404.469 2.59.812 2.636.781.047-.047-.53-1.827-1.279-3.952-.733-2.108-1.295-3.904-1.232-3.967.078-.062 2.09-.796 4.493-1.624 2.402-.844 4.43-1.578 4.492-1.64.25-.235-6.255-2.218-10.701-3.265-7.114-1.702-15.085-2.983-22.089-3.561l-3.261-.266.765-.609c1.123-.89 2.418-2.624 3.229-4.326.655-1.375.78-1.547 1.576-2.031 1.216-.75 2.963-2.468 3.853-3.795.686-1.016 1.762-3.343 1.778-3.811 0-.094.156-.203.359-.235.281-.031.577-.515 1.544-2.468 1.404-2.827 3.432-7.825 3.479-8.559.015-.266.296-1.015.608-1.64.905-1.796 1.217-3.046 1.279-5.233.032-1.046.078-1.968.125-2.046.281-.453.484-3.577.484-7.825 0-5.279-.172-7.216-1.03-11.262-.265-1.234-.546-2.702-.624-3.264-.359-2.64-1.513-4.905-3.588-7.107-.795-.843-.889-1.031-.998-1.796-.452-3.733-2.574-7.154-5.741-9.294-.639-.437-.858-.734-1.513-2.046-1.232-2.515-3.026-4.373-5.491-5.685-.546-.297-1.217-.844-1.716-1.422-.92-1.062-2.433-2.233-3.806-2.952-.655-.343-1.186-.812-1.857-1.609-1.341-1.577-2.901-2.842-4.446-3.576-.733-.344-1.575-.75-1.871-.922-3.542-1.952-7.192-3.233-11.622-4.06-.936-.188-2.247-.5-2.902-.704-1.685-.5-3.619-.812-6.24-1-1.232-.078-2.355-.14-2.48-.124-.125 0-1.03.078-2.012.14Zm7.55 1.78c1.622.28 3.447.828 3.65 1.078.109.125-.062.827-.515 2.124-1.778 5.154-3.9 9.231-5.709 11.058-.718.703-1.763 1.281-2.356 1.281-1.856 0-3.962-2.046-5.959-5.779-1.31-2.452-3.244-7.779-3.026-8.34.218-.547 2.917-1.36 5.491-1.64 1.919-.204 6.708-.095 8.424.218Zm-15.459 1.733c.296 2.265 2.979 8.669 4.602 11.075.358.515.577.952.499.984-.188.062-3.604-1.172-5.632-2.031-4.087-1.749-9.11-4.623-11.076-6.341l-.702-.609.936-.469c2.06-1.047 5.913-2.296 9.017-2.937 2.371-.5 2.231-.515 2.356.328Zm24.413.297c1.139.313 2.761.813 3.588 1.125 1.669.625 3.604 1.546 3.604 1.734-.016.187-2.138 1.78-3.791 2.827-2.777 1.765-7.488 4.03-10.873 5.264-.577.203-1.123.374-1.233.374-.093 0 .11-.453.453-1.015 1.388-2.265 2.761-5.373 3.9-8.825.343-1.078.671-2.03.702-2.124.062-.234.842-.094 3.65.64Zm-36.909 4.467c.609.532 1.841 1.422 2.715 2 .873.562 1.591 1.077 1.606 1.156.016.312-3.697 2.764-4.227 2.764-.047 0 .125-.609.359-1.359.655-2.015.39-2.452-1.56-2.608-1.077-.094-3.526.078-4.555.312-.765.172 1.575-1.858 2.964-2.561.702-.36 1.341-.656 1.419-.656.078 0 .655.421 1.279.952Zm46.518-.64c.952.406 2.824 1.703 3.51 2.437.531.546.531.562.156.484-1.06-.25-3.478-.422-4.586-.328-.998.078-1.31.172-1.607.468-.452.453-.452.828.032 2.25.218.624.358 1.171.327 1.218-.047.031-.624-.234-1.295-.578-1.185-.625-2.917-1.968-2.823-2.202.031-.063.78-.609 1.685-1.219.904-.609 2.09-1.483 2.652-1.968.561-.484 1.06-.874 1.123-.874.047 0 .421.14.826.312Zm-47.859 4.03.655.109-.359 1.015a20.53 20.53 0 0 1-.858 2.062l-.499 1.062-1.544.797c-1.857.953-3.526 2.421-4.774 4.217-.764 1.078-1.31 1.609-1.31 1.25 0-.078.109-.438.234-.812.452-1.281.717-2.718.811-4.374.093-1.577.078-1.671-.265-2.015-.297-.297-.453-.328-1.155-.25l-.795.11.546-.469c.858-.718 3.073-1.843 4.399-2.202 1.716-.469 3.775-.672 4.914-.5Zm51.073.281c1.966.39 4.103 1.359 5.288 2.39l.546.468-.702-.078c-.561-.078-.78-.031-1.092.219-.358.297-.39.406-.358 1.671.031 1.515.374 3.53.811 4.795.296.844.296.875 0 .797-.156-.047-.499-.406-.733-.812-1.295-2.078-3.23-3.811-5.382-4.827-1.202-.578-1.217-.593-1.748-1.687-.514-1.03-1.169-2.764-1.169-3.045 0-.328 2.745-.266 4.539.109Zm-38.438 2.89c.718.296 1.295.578 1.295.624 0 .313-2.636 2.39-3.744 2.952-.936.485-2.652 1.047-3.51 1.172l-.686.109.53-1.296c.578-1.39.671-2.218.328-2.687-.265-.343-2.09-.64-3.401-.546-.499.031-.905.062-.905.046 0-.015.375-.218.827-.437.437-.234 1.279-.781 1.857-1.203.577-.437 1.31-.89 1.638-.999.577-.203.624-.188 2.542.765a77.26 77.26 0 0 0 3.229 1.5Zm28.017-2.125c.281.125.858.516 1.28.859.436.344 1.185.844 1.684 1.094.484.265.89.5.89.515 0 .016-.827.047-1.826.063-2.823.031-3.104.406-2.168 2.874.296.796.515 1.484.484 1.515-.172.172-2.574-.547-3.775-1.125-1.326-.64-3.651-2.343-3.932-2.874-.124-.218.047-.343.968-.703.624-.25 1.996-.89 3.073-1.421 2.09-1.062 2.542-1.156 3.322-.797Zm-21.34 4.546c1.03.296 2.34.749 2.917 1.015 1.732.781 3.37.609 4.867-.547.266-.203 1.404-.671 2.527-1.031l2.06-.687 1.216 1.109c2.652 2.359 5.07 3.514 8.097 3.874.92.093.967.125 1.404.827 1.076 1.703 3.276 3.671 5.132 4.593l1.045.515.686 1.437c.827 1.765 1.389 2.593 2.668 3.952.718.749.998 1.171.998 1.468 0 .75.484 2.811.952 4.03.515 1.343 1.638 3.124 2.621 4.17l.655.703-.172 1.734c-.187 1.968.032 4.076.624 5.779.203.593.265.953.156.984-.483.172-.577.531-.671 2.796-.202 4.576-1.029 8.169-3.026 12.98-.811 1.983-.842 2.093-.608 2.452.249.375.234.39-.562.984-2.043 1.515-3.947 4.03-4.68 6.169l-.359 1.078-1.435.672c-2.527 1.187-4.586 2.843-5.772 4.639-.358.515-.468.578-1.263.671-.499.047-1.622.266-2.527.485-.905.218-1.732.406-1.857.421-.436.063-2.355-6.591-3.525-12.105-1.872-8.918-3.416-21.726-3.619-30.036-.047-2.436-.141-3.733-.281-4.014-.203-.406-.187-.422.608-.812 1.045-.516 2.231-1.671 2.793-2.702.436-.828.967-2.906.811-3.187-.063-.078-1.638-.14-3.791-.14-3.369 0-3.666-.016-3.338-.235 1.17-.827 1.591-3.139.998-5.498-.312-1.265-1.388-3.795-1.591-3.795-.14 0-.967 1.859-1.404 3.139-.421 1.297-.577 3.327-.312 4.28.109.391.468 1.015.811 1.406l.624.703h-7.41l.078.984c.172 2.03 1.514 3.92 3.557 5.029.562.297.936.547.827.547-.343 0-.515 1.14-.515 3.436 0 3.187-.499 9.466-1.264 16.088-1.076 9.356-2.839 18.072-5.085 25.194-.593 1.906-.764 2.281-.967 2.203-1.139-.516-3.417-1.156-4.664-1.312l-1.529-.188-.421-.656c-1.155-1.843-4.29-4.202-6.552-4.92-.422-.141-.609-.312-.671-.609-.53-2.234-2.699-5.326-4.805-6.826-.842-.609-1.029-.89-.717-1.093.265-.172.171-.609-.468-2.124-.827-1.922-2.075-5.764-2.465-7.638-.453-2.14-.702-4.561-.811-8.013 0-.063-.172-.188-.375-.281l-.374-.172.312-.89c.702-2 .936-4.702.577-6.639l-.156-.89.811-.89c1.919-2.093 2.98-4.421 3.417-7.498.156-1.093.187-1.171 1.045-2.03 1.061-1.078 2.137-2.687 2.855-4.295.358-.797.639-1.219.858-1.266.545-.14 2.776-1.593 3.665-2.405.468-.422 1.28-1.328 1.779-2.015l.92-1.249 1.248-.188c2.792-.39 5.476-1.718 7.66-3.78l1.263-1.187 1.014.375c.562.219 1.857.625 2.886.922Zm-28.22.015c-.234 2.671-1.528 6.357-2.293 6.56-.702.188-2.901 1.344-4.071 2.156-.687.468-1.264.859-1.311.859-.031 0-.062-.188-.062-.422 0-.812-.671-2.921-1.045-3.295l-.375-.375.421-.797c1.342-2.593 4.041-4.701 7.161-5.592.514-.156 1.107-.281 1.31-.281.374-.015.374-.015.265 1.187Zm66.611-.874c1.981.609 4.134 1.889 5.397 3.217.687.703 1.997 2.671 1.997 2.983 0 .125-.14.328-.312.469-.203.172-.452.843-.733 1.984a89.66 89.66 0 0 1-.452 1.78c-.032.032-.344-.187-.718-.484-.936-.75-2.465-1.656-3.697-2.171-.562-.234-1.139-.578-1.279-.75-.812-.999-1.857-4.623-1.857-6.466 0-1.047.032-1.062 1.654-.562Zm-52.041.374c0 .453-1.201 3.015-1.965 4.155-.905 1.375-2.309 2.812-3.526 3.608-.967.656-1.279.734-1.154.313.047-.141.156-.766.25-1.359.389-2.765.14-3.312-1.467-3.155-.515.046-1.544.265-2.277.484-.734.203-1.358.343-1.404.297-.047-.047.499-.625 1.185-1.281 2.387-2.265 4.93-3.249 8.533-3.28 1.513-.016 1.825.031 1.825.218Zm40.357.016c2.449.5 4.43 1.578 6.099 3.311.531.547.952 1.047.905 1.078-.047.047-.515-.062-1.061-.234-2.855-.906-3.869-.875-4.212.14-.093.235.078 2.296.265 3.452.063.328.047.594-.031.594-.281 0-1.684-1.015-2.667-1.937-1.17-1.109-2.512-3.061-3.214-4.733-.905-2.108-1.014-1.921.999-1.921.967 0 2.246.109 2.917.25Zm-48.047 6.029c-.234 2.64-1.529 6.029-2.933 7.669-.733.844-.92.797-.92-.297 0-.905-.266-1.546-.718-1.765-.328-.14-.593-.109-1.513.219-.609.203-1.123.359-1.139.344-.016-.016-.047-.906-.078-1.968l-.062-1.953.92-.749c1.56-1.25 4.68-2.578 6.162-2.609.374-.015.374 0 .281 1.109Zm53.179-.718c1.654.468 3.401 1.359 4.633 2.343.749.593.889.796.827 1.077-.047.188-.14 1.062-.187 1.937-.094 1.375-.141 1.578-.359 1.484-1.092-.484-1.903-.672-2.262-.531-.53.187-.686.547-.811 1.78-.063.563-.156 1.031-.234 1.031-.25 0-1.623-2.015-2.2-3.248-.671-1.422-1.279-3.593-1.451-5.233-.109-1.031-.093-1.046.281-1.046.219 0 .999.171 1.763.406Zm-69.294 3.264c.811 3.218.609 6.357-.608 8.997-.281.609-.749 1.171-1.716 2.077-.733.672-1.357 1.203-1.388 1.172a28.253 28.253 0 0 1-.312-1.078c-.437-1.609-1.186-3.265-1.592-3.546a1.165 1.165 0 0 0-.78-.156c-.39.078-.405.063-.312-.562.281-1.75 1.545-4.046 3.058-5.592.998-1.015 3.12-2.546 3.291-2.374.063.078.219.547.359 1.062Zm85.705.125c2.262 1.703 3.915 4.28 4.477 6.951.109.499.078.515-.234.421-.967-.312-1.373.235-2.34 3.171-.312.969-.624 1.671-.671 1.546-.047-.125-.593-.671-1.232-1.202-.624-.547-1.295-1.265-1.482-1.625-1.42-2.608-1.669-6.372-.655-9.98l.156-.594.577.344c.312.187.951.624 1.404.968Zm-78.373.515c.047.407.094 1.437.094 2.312l-.016 1.578-.733.5c-1.591 1.077-3.073 2.749-4.072 4.56l-.436.813-.344-.563c-.187-.312-.468-.609-.639-.656-.39-.109-.39-.109 0-1.327.171-.531.405-1.797.499-2.781.187-1.687.218-1.811.702-2.296.718-.703 2.184-1.687 3.51-2.311.624-.297 1.17-.547 1.232-.547.047 0 .141.328.203.718Zm70.058-.265c1.186.547 3.073 1.827 3.76 2.546.468.484.499.609.577 1.999.047.875.25 2.015.468 2.78l.374 1.297-.374.156c-.203.078-.484.406-.64.734l-.265.609-.686-1.234c-.843-1.483-2.153-2.967-3.635-4.061l-1.108-.827.094-1.969c.094-1.78.187-2.483.359-2.483.047 0 .53.203 1.076.453Zm-66.33 6.451c-.015 1.734-.093 2.514-.343 3.483-.421 1.624-1.529 3.858-2.387 4.826l-.686.766-.281-.766c-.39-1.031-1.17-2.577-1.466-2.921-.406-.468-1.03-.328-1.966.438-.483.39-.92.703-.967.703-.062 0-.062-.36-.031-.797.125-1.171 1.295-3.436 2.465-4.717 1.482-1.624 5.085-3.811 5.522-3.374.094.078.14 1.14.14 2.359Zm63.054-1.843c1.685.827 3.167 1.952 4.181 3.17 1.31 1.578 2.621 4.624 2.184 5.061-.078.078-.499-.156-.983-.562-.936-.766-1.513-.891-1.965-.438-.312.313-1.389 2.546-1.545 3.202-.062.25-.171.438-.234.438-.234 0-1.591-1.89-2.106-2.952-.795-1.593-1.17-3.124-1.279-5.108-.093-1.671.031-3.499.234-3.499.047 0 .733.313 1.513.688Zm-79.823 5.217c.905 2.342 1.217 5.201.795 7.466-.218 1.155-1.045 3.342-1.263 3.342-.187 0-4.431-2.187-5.086-2.624-.343-.219-.358-.312-.265-1.109.203-1.859.78-3.311 1.966-5.107.748-1.125 3.026-3.405 3.26-3.265.078.047.343.625.593 1.297Zm97.467.39c1.856 2.077 3.182 4.967 3.182 6.982 0 .672-.031.718-.671 1.062-1.95 1.078-4.649 2.374-4.773 2.312-.25-.156-1.061-2.624-1.264-3.843-.343-2.077.062-4.982 1.03-7.294l.405-.984.702.515c.39.266 1.014.844 1.389 1.25Zm-6.49 1.984 1.513 1.499.094 1.781c.093 1.874.437 3.389 1.123 4.92l.374.875-.889.406c-.483.218-1.373.593-1.981.843l-1.092.437-.109-1.39c-.187-2.343-.936-4.561-2.153-6.326-.577-.843-.577-1.265.016-3.264.577-1.952.53-1.874 1.107-1.546.266.156 1.17.952 1.997 1.765Zm-84.176-.672c.219.672.468 1.578.562 2.031l.171.796-.858 1.453c-1.216 2.015-1.731 3.702-1.872 6.232-.031.64-.109.843-.265.812-.218-.047-3.603-1.452-3.712-1.531-.032-.031.156-.562.421-1.187.639-1.562.967-3.139.967-4.685 0-.969.078-1.406.281-1.703.686-1.062 3.244-3.421 3.697-3.421.125 0 .374.516.608 1.203Zm4.696 2.812c.967 2.296 1.217 3.467 1.232 5.669.016 2.031-.156 3.062-.733 4.421-.218.546-.374.718-.562.671-.14-.047-1.092-.328-2.121-.624-1.03-.297-2.153-.641-2.496-.766l-.624-.218v-1.703c0-1.437.078-1.89.437-2.952.234-.703.686-1.718 1.014-2.265.546-.921 2.886-3.592 3.151-3.592.062 0 .39.609.702 1.359Zm73.817-.219c2.247 2.374 3.62 5.763 3.448 8.544l-.047.859-2.418.718c-1.326.391-2.605.766-2.823.812-.406.11-.437.063-.858-1.265-.422-1.265-.453-1.515-.437-3.78 0-2.202.047-2.53.437-3.717.234-.703.624-1.749.873-2.312.546-1.187.577-1.187 1.825.141Zm-36.612 8.075c2.122 18.884 4.586 36.05 5.616 39.095.125.391.078.532-.343 1.031l-.484.594-.733-.281c-2.933-1.109-7.27-.906-9.984.484-.795.406-1.029.39-1.341-.078-.234-.359-.234-.469.156-1.828 1.294-4.654 3.4-19.336 6.13-42.844.141-1.296.281-2.233.312-2.108.016.125.328 2.796.671 5.935Zm-51.292-.89c3.838 1.952 7.114 3.311 10.639 4.389 1.279.39 2.356.734 2.387.781.125.125-2.746 1.078-5.023 1.655a45.083 45.083 0 0 1-9.859 1.359l-2.855.094v-.609c.016-1.593.983-9.434 1.17-9.434.031 0 1.622.796 3.541 1.765Zm103.691-.953c.39 1.843.796 5.17.905 7.107l.094 2.077h-1.95c-4.509 0-9.797-.906-14.165-2.421-.905-.312-1.669-.593-1.7-.625-.031-.031.359-.171.858-.312 4.337-1.218 7.394-2.437 11.996-4.764 1.981-1.015 3.635-1.843 3.697-1.859.062 0 .172.36.265.797Zm-88.699 8.903c.046.968.249 2.609.421 3.639.577 3.28.608 2.937-.172 3.171-5.834 1.656-10.982 2.281-15.818 1.906-1.373-.094-2.777-.235-3.12-.297l-.624-.094-.093-1.015c-.063-.562-.156-2.015-.219-3.249l-.125-2.218h1.311c5.257 0 11.918-1.171 16.208-2.858.983-.391 1.872-.703 1.965-.719.11-.015.203.609.266 1.734Zm71.883-1.14c4.664 1.765 9.484 2.702 15.1 2.921l2.715.109-.094 2.671c-.062 1.468-.14 2.921-.203 3.233-.093.547-.14.578-.827.672-5.475.75-11.871.265-17.565-1.328-.936-.265-1.763-.531-1.825-.578-.062-.062-.016-.562.109-1.124.312-1.469.655-4.077.78-5.748.063-.781.125-1.437.141-1.437.015 0 .78.281 1.669.609Zm-70.058 10.356c.436 1.358 1.544 4.186 1.731 4.435.172.219-1.638 2.64-3.712 4.936-2.387 2.655-5.538 5.295-8.315 6.92-1.232.718-4.524 2.327-4.602 2.233-.109-.125-1.061-2.108-1.763-3.717-1.357-3.093-2.059-5.014-1.856-5.077 5.382-1.733 7.956-2.936 11.84-5.513a25.68 25.68 0 0 0 4.883-4.139c.608-.656 1.17-1.187 1.263-1.203.094 0 .343.515.531 1.125Zm67.234-1c0 .219 2.356 2.608 3.354 3.421 3.619 2.92 9.454 5.982 13.385 7.028 1.014.266 1.061.297.967.672-.156.609-1.747 4.389-2.746 6.513-.748 1.609-.951 1.906-1.185 1.828-1.014-.36-4.275-2.093-5.616-2.984-3.791-2.53-7.816-6.497-10.467-10.308l-.344-.485.687-1.702c.374-.922.842-2.187 1.029-2.78.203-.61.39-1.141.421-1.219.094-.156.515-.14.515.016Zm-71.368 1.296c-.687.688-1.981 1.703-2.215 1.703-.125 0-.718-1.406-.624-1.5.015-.015.78-.218 1.669-.421a61.104 61.104 0 0 0 1.716-.406c.031 0-.219.265-.546.624Zm76.251-.109c.593.125 1.108.265 1.154.312.125.125-.421 1.5-.577 1.5-.14 0-1.295-.906-2.184-1.718l-.546-.485.546.079c.297.046 1.03.187 1.607.312Zm-89.199.859 1.716.094.125 1.249c.062.688.281 1.828.499 2.515.218.703.39 1.39.39 1.531 0 .14-.265.359-.577.5-1.17.499-3.947 1.343-4.15 1.265-.359-.141-1.341-2.203-1.669-3.483-.203-.766-.312-1.719-.312-2.609v-1.406l1.139.125a102.3 102.3 0 0 0 2.839.219Zm9.204.75c.327.843.374 1.062.203 1.234-.531.515-5.226 3.155-5.335 2.999-.032-.032-.188-.438-.375-.906-.405-1.094-.655-2.296-.655-3.28v-.781l1.217-.016a31.073 31.073 0 0 0 2.215-.141c.561-.062 1.31-.125 1.653-.125l.656-.031.421 1.047Zm86.469-.781c1.279.062 1.794.156 1.856.312.203.531-.593 4.139-1.029 4.624-.11.109-3.229-1.469-4.056-2.078-.25-.172-.499-.312-.546-.312-.063 0-.312-.156-.546-.328-.499-.375-.531-.156.218-1.953l.234-.578 1.061.11c.577.047 1.841.14 2.808.203Zm8.86.14c.156.61-.093 2.812-.436 3.952-.453 1.468-1.326 3.14-1.638 3.14-.499 0-4.555-1.453-4.633-1.672-.047-.109.078-.734.296-1.359.296-.89.686-3.155.702-4.045 0-.062.577-.109 1.295-.125.702-.016 1.7-.078 2.215-.141 1.856-.218 2.09-.203 2.199.25Zm-84.394 5.967c.765.562 1.841 1.609 2.59 2.53.515.641 1.841 3.015 1.841 3.312 0 .078-.203.125-.437.125-.25 0-.562.125-.687.265-.343.391-.468 1.921-.28 3.468.078.734.124 1.343.109 1.359-.016.031-.702-.219-1.498-.547-1.092-.438-1.638-.766-2.121-1.25-1.295-1.327-2.278-3.42-2.59-5.56l-.172-1.14 1.217-1.484c.687-.828 1.279-1.515 1.326-1.515.047 0 .375.203.702.437Zm62.274 1.062c.936 1.234 1.123 1.578 1.123 2.062-.015 1.702-1.185 4.529-2.464 5.951-.593.656-.983.921-2.06 1.359-1.996.828-1.856.828-1.7.031.203-1.047.156-3.577-.062-4.03-.141-.265-.344-.406-.702-.437-.266-.031-.5-.125-.5-.219 0-.375 1.124-2.436 1.794-3.28.734-.937 2.964-2.936 3.261-2.921.093 0 .686.672 1.31 1.484Zm-66.72 4.077c.312.328.718 1.015.905 1.53a11.2 11.2 0 0 0 .952 1.89l.608.953-.374.172c-.484.219-.624 1.156-.422 2.874.078.718.141 1.312.125 1.328-.015.015-.499-.11-1.076-.266-.593-.172-1.607-.375-2.262-.484-1.17-.172-1.217-.188-1.622-.844-.234-.359-.812-1.077-1.28-1.608-.702-.781-1.232-1.812-.998-1.968.468-.297 3.229-2.624 3.869-3.249.468-.469.889-.859.936-.875.047-.016.343.234.639.547Zm71.322.874c.874.797 1.981 1.75 2.465 2.109.873.656.889.672.733 1.187-.094.281-.468.859-.842 1.281a22.753 22.753 0 0 0-1.248 1.562c-.562.796-.562.812-1.748.984-1.076.172-2.433.5-3.057.734-.187.078-.203-.187-.14-1.781.093-1.858.093-1.874-.312-2.28l-.406-.406.546-.875c.312-.484.764-1.374 1.014-1.999.39-.906 1.107-1.968 1.357-1.968.031 0 .764.656 1.638 1.452Zm-60.761 1.828c2.106.812 4.509 2.515 5.507 3.92l.312.453-.39.157c-.562.203-.655.796-.343 2.124.265 1.124 1.217 3.295 1.809 4.123.172.25.312.469.312.5 0 .031-.717-.109-1.591-.312-.889-.203-1.747-.406-1.934-.438-.531-.093-2.371-1.593-3.105-2.53-.795-1.015-1.497-2.265-1.871-3.389-.515-1.515-.905-4.827-.593-5.124.125-.124.374-.062 1.887.516Zm49.904 1.203c-.156 3.67-1.56 6.435-4.337 8.575-.78.593-1.108.734-2.184.937-.702.14-1.544.343-1.872.453-.343.125-.608.187-.608.156 0-.047.343-.719.764-1.515.983-1.828 1.669-4.092 1.42-4.717-.078-.234-.297-.469-.468-.516-.484-.125-.375-.39.468-1.265 1.591-1.64 3.213-2.671 5.537-3.561 1.467-.547 1.373-.625 1.28 1.453Zm-67.001 1.53c.374.297 1.061 1 1.529 1.578.811 1 .827 1.046 1.029 2.546.11.843.375 2.077.593 2.733.219.656.406 1.234.406 1.265 0 .047-.874.078-1.95.078-1.903 0-1.981.016-2.325.391l-.374.39-.874-.702a11.65 11.65 0 0 1-3.556-5.139c-.281-.859-.312-1.094-.141-1.156.422-.141 3.853-1.89 4.306-2.202.265-.172.515-.313.561-.313.047-.015.406.235.796.531Zm84.036.047c.561.328 1.715.922 2.558 1.328.827.406 1.513.765 1.513.812 0 .031-.172.547-.39 1.125-.733 1.936-2.293 4.061-3.884 5.279l-.531.406-.405-.406c-.406-.406-.437-.406-2.356-.359-1.341.031-1.934 0-1.887-.125.452-1.187.92-3.03.982-3.968.078-.859.203-1.327.484-1.78.374-.625 2.574-2.905 2.777-2.905.062 0 .577.265 1.139.593Zm-72.445.828c.686.25 1.653.687 2.152.968.827.453.968.594 1.311 1.437.515 1.219 1.56 2.796 2.449 3.655l.702.688-.406.312c-.359.297-.39.39-.312 1.187.031.484.25 1.39.453 1.999.218.625.343 1.141.296 1.141-.203 0-2.465-.969-3.354-1.437-.561-.313-1.466-1.016-2.215-1.781-1.061-1.047-1.388-1.5-1.981-2.733-.811-1.687-1.17-3.015-1.311-4.827l-.093-1.281.53.11c.297.062 1.092.312 1.779.562Zm61.182.875c-.234 3.92-2.262 7.247-5.57 9.153-.733.421-3.135 1.39-3.229 1.296-.031-.016.047-.281.172-.578.374-.937.764-2.764.655-3.186-.062-.219-.281-.484-.499-.578l-.406-.188.531-.468c.967-.875 1.887-2.124 2.605-3.577l.717-1.421 1.28-.656c1.06-.531 3.073-1.25 3.697-1.297.078-.015.093.641.047 1.5Zm-46.799 1.312c1.575.203 3.619.906 4.851 1.624.998.578 2.761 2.124 3.307 2.89l.297.421-.687.485c-.561.406-.702.578-.702.968 0 .25-.047.469-.109.469-.078 0-1.17.14-2.465.312-2.699.344-2.511.391-3.993-1.078-.921-.937-1.857-2.296-2.356-3.452-.327-.765-.905-2.452-.905-2.671 0-.187 1.28-.171 2.762.032Zm32.962.125c0 .656-1.014 3.077-1.732 4.154a15.214 15.214 0 0 1-1.794 2.109c-1.045.968-1.045.968-1.778.875-1.825-.25-5.148-.563-5.881-.563-.999 0-1.014-.109-.266-1.249.952-1.468 1.638-2.202 2.886-3.124 2.075-1.531 4.743-2.405 7.675-2.483.78-.016.89.015.89.281Zm-52.4.968c2.028.5 2.169.594 2.559 1.687.951 2.608 3.369 5.232 5.928 6.435 1.404.672 1.357.937-.203 1.453-.655.218-1.279.406-1.373.406-.094 0-.359-.266-.562-.594-1.341-2.015-4.18-4.014-6.848-4.779-.858-.25-.905-.297-1.279-1.156a13.74 13.74 0 0 1-.967-3.296l-.109-.671.826.109c.468.062 1.373.234 2.028.406Zm71.899-.062c-.015.718-.281 1.765-.811 3.123l-.499 1.281-1.108.344c-2.324.703-4.555 2.155-6.021 3.92-.437.547-.905 1-1.03 1.031-.281.078-2.699-.734-2.699-.906 0-.062.5-.375 1.108-.687 2.792-1.421 4.696-3.639 6.037-6.982.187-.468 1.31-.921 3.245-1.296 1.653-.328 1.778-.328 1.778.172Zm-34.007 3.108a18.74 18.74 0 0 1 1.513.406l.484.172-.406.75c-.234.406-.561.796-.733.843-.343.109-10.733.39-10.826.297-.25-.25 2.511-1.718 4.087-2.171 2.012-.578 4.227-.688 5.881-.297Zm-21.777 2.249c1.357.344 3.401 1.218 3.291 1.406-.046.062-.405.156-.811.218-.421.047-1.794.344-3.073.641-1.825.437-2.356.5-2.465.359-.187-.281-.905-2.593-.905-2.889 0-.219.172-.235 1.373-.157.749.063 1.919.25 2.59.422Zm40.871-.047c-.047.25-.25.89-.437 1.453-.327.953-.374 1.015-.811.999-.655-.015-5.678-1.062-5.678-1.171 0-.109 1.528-.797 2.371-1.062 1.014-.328 2.683-.609 3.681-.625l.968-.016-.094.422Zm-58.171.438c1.404.374 3.634 1.53 4.617 2.374.827.718 2.278 2.358 2.153 2.436-.031.032-.967.422-2.09.891-1.108.453-2.434 1.031-2.933 1.28l-.889.438-.889-.563c-2.2-1.405-4.088-4.045-4.961-6.919l-.109-.375 2.074.094c1.17.047 2.496.203 3.027.344Zm76.516-.266c0 .281-.593 1.874-1.014 2.687-.873 1.733-2.137 3.217-3.588 4.217l-.717.5-1.748-.781c-.967-.422-2.355-1.016-3.104-1.297-.764-.297-1.373-.578-1.373-.64 0-.063.515-.625 1.139-1.265 2.278-2.328 5.195-3.499 8.814-3.53.874-.016 1.591.047 1.591.109Zm-31.542 1.906c9.297.968 17.612 3.17 24.959 6.607l.827.39-.593.453c-2.324 1.812-7.051 4.53-10.545 6.045l-1.997.874-2.075-.781c-3.479-1.296-7.893-2.342-12.339-2.905-2.715-.359-10.639-.406-13.182-.093-5.117.624-9.765 1.718-13.509 3.17l-1.576.609-1.31-.546c-1.966-.844-5.32-2.562-7.129-3.655-1.981-1.203-4.446-2.89-4.509-3.093-.109-.312 4.836-2.358 8.456-3.53 6.598-2.108 13.228-3.358 20.669-3.858 3.12-.218 10.421-.047 13.853.313Zm-43.804 8.434c2.964 2.28 7.862 5.061 12.027 6.841 2.137.922 5.366 2.578 4.82 2.468-.998-.187-5.756-.734-7.721-.874-3.183-.235-9.875-.188-12.87.078-7.769.687-18.439 2.733-23.993 4.607l-.842.282.078-.344c.031-.172.53-1.656 1.092-3.265 1.014-2.905 1.03-2.936.686-3.061-.187-.062-1.622-.578-3.182-1.125-1.575-.546-2.855-1.046-2.855-1.093 0-.25 8.518-2.327 13.338-3.249 5.756-1.093 13.712-2.108 17.129-2.186l1.06-.016 1.233.937Zm76.75-.609c6.427.64 13.556 1.859 19.812 3.358 3.728.906 6.396 1.64 6.396 1.765 0 .063-1.404.594-3.12 1.187-2.091.734-3.12 1.172-3.12 1.312 0 .125.468 1.562 1.029 3.171.577 1.624.999 2.983.952 3.03-.031.047-1.077-.203-2.293-.562-6.739-1.953-15.054-3.483-22.464-4.139-3.307-.297-10.015-.297-13.603 0-2.496.203-5.974.593-6.988.796-.531.11 2.355-1.374 4.446-2.28 4.898-2.124 9.266-4.592 12.682-7.201l1.045-.796 1.872.093c1.03.063 2.543.172 3.354.266Z"/><path fill="#fff" d="M155.568 189.976c-1.81.063-1.981.125-1.919.641.047.374.109.421.671.421h.624l.093 1.843c.063 1.016.125 1.875.156 1.89.032.032.297.016.578-.015l.499-.078-.094-1.844-.109-1.858.608-.047c.562-.047.609-.078.609-.516 0-.531.062-.499-1.716-.437Zm2.855.781c-.015.5-.047 1.187-.062 1.531-.063.906.343 1.905.873 2.186.25.125.765.235 1.155.235.561 0 .811-.094 1.217-.453.452-.391.514-.563.608-1.593.062-.641.125-1.484.125-1.875.015-.64-.031-.734-.328-.796-.858-.157-.905-.063-.905 1.608 0 1.781-.14 2.172-.748 2.172-.734 0-.812-.219-.812-2.14v-1.765h-1.092l-.031.89Zm4.976-.406c-.124.469-.046.562.609.687l.561.094-.093 1.359c-.063.75-.156 1.593-.203 1.858-.078.469-.047.516.328.532.218.015.499.031.608.046.125.016.234-.531.343-1.858l.156-1.875.671.047c.639.047.655.047.655-.406s-.016-.468-.967-.562c-.546-.047-1.342-.141-1.778-.188-.734-.078-.812-.062-.89.266Zm-11.466-.047c-.421.047-.484.109-.421.39.078.375.39 3.593.39 4.046 0 .219.125.281.515.281.296 0 .561-.031.592-.062.094-.094-.374-4.577-.483-4.655-.047-.031-.312-.031-.593 0Zm-3.619.469c-.811.156-1.466.312-1.435.375.016.078.031.265.031.452 0 .282.078.313.655.266l.656-.047.265 1.765c.14.969.296 1.812.343 1.859.047.031.312.031.577-.031.437-.094.468-.141.39-.594-.515-3.139-.515-3.202.156-3.327.468-.078.546-.156.546-.547 0-.531-.031-.546-2.184-.171Zm19.5 1.983c-.187 1.25-.312 2.312-.265 2.374.109.094 2.777.547 2.855.484.015-.031.078-.234.14-.468.109-.406.094-.422-.842-.531l-.952-.11v-1.077l.936.109.936.109v-.468c0-.437-.047-.469-.78-.562-.749-.094-.78-.125-.78-.578 0-.485 0-.485.671-.375.359.047.764.14.905.172.187.046.296-.063.358-.344.063-.219.078-.437.047-.469-.047-.062-.873-.218-2.386-.453l-.484-.078-.359 2.265Zm-23.509-1.312c-.593.172-1.295.969-1.295 1.468 0 .61.608 1.141 1.56 1.359.686.156.873.266.905.547.062.375-.156.469-1.217.547-.437.031-.562.125-.593.421-.094.625.452.781 1.591.469.874-.234 1.342-.765 1.342-1.515 0-.781-.499-1.265-1.498-1.453-.405-.078-.795-.234-.873-.343-.188-.297.483-.766 1.029-.703.437.047.484 0 .484-.422 0-.406-.063-.469-.468-.5-.25-.015-.687.047-.967.125Zm30.747.828c-.967.422-1.622 1.921-1.31 3.03.514 1.968 3.369 2.171 4.211.297.624-1.359.266-2.749-.842-3.249-.749-.344-1.388-.359-2.059-.078Zm1.591.843c.593.391.608 1.437.047 2.359-.562.937-1.856.5-1.856-.64 0-.516.249-1.203.577-1.562.249-.282.92-.375 1.232-.157Zm-35.769-.796c-.203.031-.359.125-.359.203 0 .11.53 1.89.733 2.484.062.14-.437-.266-1.076-.891-.656-.609-1.248-1.124-1.326-1.124-.39 0-1.155.375-1.092.531.031.094.327 1.109.655 2.233.343 1.141.655 2.078.717 2.078.063 0 .297-.063.515-.156l.39-.141-.359-1.14c-.187-.625-.405-1.312-.468-1.531-.093-.281.234-.031 1.186.89l1.295 1.297.577-.156.577-.172-.218-.656a77.45 77.45 0 0 1-.702-2.265c-.265-.875-.531-1.578-.593-1.578a6.328 6.328 0 0 1-.452.094Zm38.359 3.124c-.436 1.187-.748 2.202-.686 2.249.062.063.296.172.53.219.39.094.437.047.702-.687.297-.859.406-.906 1.233-.563.639.266.764.219.889-.25.078-.265-.047-.374-.64-.624-.405-.172-.748-.344-.78-.36-.015-.031.047-.234.141-.468.203-.438.296-.438 1.357 0 .484.203.515.187.671-.203.078-.219.125-.422.109-.453-.078-.063-2.465-1-2.59-1-.062 0-.483.969-.936 2.14Zm-43.664-1.312-.328.187.78 2.031c.421 1.109.843 2.093.921 2.171.078.094.312.062.577-.078l.452-.219-.842-2.155c-.468-1.172-.936-2.14-1.03-2.14a1.77 1.77 0 0 0-.53.203Zm-13.307 3.342c0 .157.078.766.156 1.359.094.594.141 1.109.11 1.14-.047.032-.359-.39-.718-.921-1.014-1.546-1.17-1.687-1.794-1.687-.655 0-.655-.047-.359 2.733.125 1.188.25 1.719.39 1.703.094-.016.328-.031.515-.047.265-.016.312-.094.234-.453-.047-.234-.125-.921-.187-1.515l-.109-1.093.748 1.093c1.389 2.015 1.342 1.968 1.872 1.859.25-.047.484-.125.515-.141.031-.031-.062-.953-.187-2.062a78.48 78.48 0 0 1-.25-2.124c0-.062-.202-.109-.468-.109-.343 0-.468.078-.468.265Zm-6.504.313c-.203.031-.359.078-.359.093-.015.016-.14 1.031-.296 2.249l-.265 2.234h.515c.483 0 .514-.047.608-.625.062-.343.187-.624.296-.624.11 0 .406-.047.656-.094.405-.078.468-.031.67.468.219.563.375.625 1.046.438.327-.11.296-.188-.765-2.187-1.154-2.171-1.139-2.14-2.106-1.952Zm1.092 2.421c-.031.078-.249.125-.468.125-.374 0-.39-.032-.296-.594.047-.312.093-.687.093-.812.016-.125.188.078.375.468.203.391.343.75.296.813Zm-4.883-1.796c0 .187.92 4.311.967 4.358.031.015.234 0 .484-.047.514-.11.514-.125 0-2.499l-.406-1.922h-.53c-.281 0-.515.047-.515.11Zm-4.322.702c-.468.094-.67.219-.67.407 0 .14.202 1.108.436 2.139l.437 1.875.827-.032c.998-.046 2.09-.515 2.434-1.046.374-.562.358-1.812-.032-2.468-.546-.953-1.747-1.265-3.432-.875Zm2.153 1.047c.889.89.577 2.218-.577 2.452l-.499.094-.312-1.375c-.343-1.515-.312-1.624.483-1.624.281 0 .609.172.905.453Zm-4.96-.484c-.156.093-.109.437.156 1.468l.359 1.327-.718-.796c-.405-.437-.905-1-1.123-1.25-.359-.421-.437-.453-1.014-.312l-.64.14.39 1.562c.624 2.64.656 2.734.952 2.734.624-.016.655-.188.265-1.718l-.359-1.484.39.468c.219.25.78.875 1.248 1.375.796.828.89.89 1.389.797.296-.047.53-.11.53-.125-.016 0-.249-.969-.53-2.125-.421-1.749-.562-2.108-.811-2.155-.156-.016-.39.015-.484.094Zm-5.024.953c-.171.109-.124.499.312 2.264l.515 2.14.484-.109c.249-.047.483-.109.514-.141.016-.015-.187-.984-.483-2.124-.437-1.734-.562-2.093-.827-2.14a.956.956 0 0 0-.515.11Zm94.411-2.937c-.578.172-1.139.812-1.139 1.296 0 .36.515 1.031.795 1.031.359 0 1.233.516 1.233.719 0 .359-.609.562-1.326.453-.609-.078-.687-.063-.78.25-.141.453.125.609 1.061.609 1.419 0 2.324-.797 2.074-1.812-.078-.312-.327-.5-1.029-.812-1.326-.563-1.248-.969.187-1.031.562-.016.686-.078.718-.344.078-.5-.734-.671-1.794-.359Zm3.852.281c-.749.406-1.123.969-1.217 1.859-.14 1.499.656 2.218 2.465 2.218.889 0 .936-.016.936-.391 0-.359-.047-.39-.78-.39-.639 0-.873-.078-1.201-.406-.343-.344-.39-.5-.312-1.047.14-.984.702-1.406 1.778-1.327.702.062.843.031.921-.219a.674.674 0 0 0-.016-.437c-.171-.282-1.981-.188-2.574.14Zm3.51.047c-.094.281-.702 3.733-.702 3.983 0 .125.203.203.515.203h.53l.343-2.03c.203-1.109.312-2.093.25-2.187-.141-.219-.858-.203-.936.031Zm2.044.234c-.141.485-.874 4.015-.827 4.046.016.031.655.125 1.419.218 1.42.188 1.638.141 1.654-.406 0-.187-.702-.375-1.42-.375-.468 0-.514-.125-.358-.734.078-.296.187-.343.982-.312.78.031.874 0 .921-.297.047-.297-.047-.343-.733-.437-.702-.094-.796-.141-.796-.484 0-.5.094-.531 1.045-.406.624.093.827.062.905-.11.203-.531.078-.609-1.045-.718-.624-.063-1.264-.141-1.404-.188-.156-.047-.297.032-.343.203Zm3.759.313c-.109.172-.889 3.717-.889 4.03 0 .156.156.234.452.234.437 0 .468-.047.702-1.109.141-.609.25-1.25.25-1.406 0-.656.265-.203.702 1.219.452 1.437.515 1.53.983 1.671.281.078.546.109.592.047.078-.078.999-3.905.999-4.186 0-.078-.203-.141-.468-.141-.406 0-.484.078-.624.609-.078.328-.203.922-.25 1.328-.062.406-.156.672-.202.609-.063-.062-.312-.734-.562-1.499-.312-.906-.546-1.359-.702-1.359-.125 0-.39-.047-.562-.094-.187-.047-.374-.031-.421.047Zm5.616 1.046c-.796.297-1.139.625-1.451 1.437-.281.734-.219 1.625.125 2.046.327.407 1.404.828 2.121.828.593 0 .655-.031.655-.39 0-.313-.078-.391-.374-.391-.608 0-1.154-.265-1.435-.703-.219-.343-.234-.499-.078-.999.093-.328.343-.719.561-.859.422-.281 1.358-.328 1.794-.094.234.125.328.094.484-.172.218-.421.047-.593-.733-.781-.796-.172-.967-.172-1.669.078Zm2.746 2.437c-.92 2.327-.982 2.124.858 2.593.999.249 1.155.249 1.28.062.28-.437.156-.578-.702-.781-.921-.219-.952-.25-.687-.843.172-.375.187-.375.967-.141.64.187.796.187.905.016.265-.406.125-.594-.561-.781-.702-.188-.858-.422-.562-.891.109-.171.265-.171.936.032.764.218.811.218.967-.078.094-.172.109-.375.031-.438-.109-.109-2.34-.781-2.558-.781-.031 0-.421.922-.874 2.031Zm-92.819 8.981c-.608.328-.889.968-.795 1.874l.093.703h-18.22v1.25h2.028v1.999l-1.155.062-1.138.047-.11-1.374c-.109-1.531-.343-2.14-.951-2.421-1.217-.563-2.403.187-2.418 1.499 0 .547.093.766.452 1.14.25.25.609.453.78.453.265 0 .328-.093.328-.546 0-.391-.063-.547-.25-.547-.171 0-.218-.125-.187-.437.031-.328.125-.422.437-.422.39 0 .39.016.39 1.328v1.327l-.671.094c-.905.109-1.31.547-1.388 1.499-.078.657-.016.828.343 1.266.483.578 1.217.765 2.028.499.671-.218.967-.624 1.107-1.53l.11-.656h2.293v2.967h1.248v-6.325h1.872v6.325h1.248v-3.217c0-2.874.031-3.202.249-3.124.141.047 1.061.094 2.059.094h1.826l-.032.968c-.015.547-.031 1.109-.031 1.265-.031.484-.483.5-.873.016l-.344-.437-.499.406-.483.421 1.794 2.109c1.903 2.234 1.996 2.28 2.558 1.593.172-.203.047-.437-.78-1.452l-.998-1.219.405-.39c.343-.344.421-.578.515-1.796.047-.766.125-1.406.156-1.437.016-.032 1.56-.063 3.416-.079l3.385-.046v.812c0 .937.156.859-1.809.828-1.498-.032-2.48.234-2.87.781-.484.671-.546 1.562-.188 2.358.281.656 1.498 2.171 1.716 2.171.063 0 .297-.187.546-.39l.421-.375-.702-.656c-.889-.812-1.185-1.656-.795-2.249.249-.375.312-.391 1.965-.391h1.716v3.436h1.248v-6.357l1.061.063c.577.031 1.139.094 1.248.14.172.047.203.672.187 2.906-.015 1.577-.015 2.952-.015 3.045.015.125.234.203.561.203h.546v-6.247h1.623c1.513 0 1.653.031 1.872.343.312.438.312.906.031 1.297-.172.234-.39.296-.889.296-.671-.031-1.061.219-1.077.657 0 .343 1.326 1.671 1.95 1.952.936.437 1.607.375 3.089-.25.234-.094.265 0 .265.922v1.03h1.248v-6.247h.515c.265 0 .874-.047 1.326-.094.795-.109.811-.109.811-.64v-.547l-5.538.047c-3.042.015-5.553.015-5.584-.031-.032-.032-.344-.485-.702-1-.359-.516-.905-1.109-1.202-1.312-.702-.469-1.716-.578-2.371-.25Zm2.169 1.64c.327.359.592.703.592.781 0 .094-.452.156-1.014.156-.951 0-1.014-.031-1.232-.437-.359-.703-.172-1.125.499-1.125.437 0 .671.125 1.155.625Zm8.673 2.187h.655v2.655l-.608.406c-.811.531-1.654.64-2.434.297l-.624-.25.468-.203c.265-.125.64-.406.858-.64.343-.36.39-.563.375-1.437-.016-.953 0-1 .312-.922.187.047.624.094.998.094Zm-31.48 3.826c0 .61-.328.86-.765.594-.561-.359-.296-1.14.39-1.14.328 0 .375.078.375.546Zm42.322-7.59c-.858.39-1.17.905-1.17 1.905 0 .609-.047.765-.219.703-.171-.063-.218.078-.218.531 0 .625 0 .625.624.625h.624v6.248h1.248v-6.217l1.123-.062c.608-.032 1.903-.032 2.886 0l1.778.046-.047 1.594-.046 1.577-.531.359c-1.185.797-2.371.531-2.48-.562-.078-.703.327-1.109 1.061-1.109.624 0 .733-.125.717-.781-.015-.359-.062-.39-.811-.39-1.934.015-2.933 2.186-1.685 3.655.702.827 2.169 1.015 3.339.406l.468-.25v1.734h1.248v-6.248h8.735v.937h-4.212v.547c0 .468.063.546.437.624.671.157.889.313.936.766.047.39.016.406-.655.406s-1.482-.453-1.856-1.062c-.109-.172-.219-.141-.515.14-.203.188-.374.422-.374.516.015.093.748.937 1.637 1.89l1.623 1.718.437-.422.421-.437-.499-.516c-.515-.531-.515-.734 0-.734.156 0 .483-.187.702-.406.343-.344.39-.5.312-1.124l-.078-.735h.842l.842-.015v4.155h1.248v-6.248h1.872v6.248h1.248v-6.248l3.089-.016c1.685 0 3.26-.031 3.51-.062.421-.063.421-.047.421.796 0 .703-.047.844-.265.844-2.075.015-3.666.172-4.072.375-.873.453-1.06 2.061-.327 2.842.686.734 2.09.625 2.465-.187.234-.531.218-1.312-.016-1.312-.499 0-.905.219-.905.468 0 .297-.265.469-.577.36-.296-.11-.25-1.094.047-1.203.14-.047 1.014-.094 1.95-.094h1.7v3.437h1.248v-6.326h2.574l.047-.594.047-.578h-24.741l-1.092-.796c-2.512-1.828-4.571-2.406-6.115-1.718Zm3.775 1.577c1.809.875 1.794.922-.234.953-.983.015-2.044.047-2.356.062-.811.047-1.232-.156-1.232-.593 0-.562.359-.922 1.029-1.031.796-.141 1.638.047 2.793.609Zm40.013-1.171-.53.546.577.594.577.578.578-.578.577-.594-.531-.546c-.296-.297-.577-.547-.624-.547-.046 0-.327.25-.624.547Zm10.327 1.796c-.483.297-.78.312-9.001.312h-8.502v1.218h1.061c.577 0 1.123.016 1.201.016.156.016.156 1.765 0 2.468-.109.453-.499.453-.842.016l-.281-.328-.483.359c-.281.218-.437.437-.375.546.468.766 3.214 3.812 3.354 3.718.328-.172.733-.562.733-.687 0-.063-.374-.563-.842-1.109l-.858-.984.328-.36c.312-.312.483-.343 1.872-.343h1.528v2.967h1.248v-6.325l2.2.015c1.201.016 2.231.078 2.277.125.125.125.094 2.031-.031 2.437-.125.406-.499.39-.842-.031l-.281-.328-.484.359c-.405.312-.468.406-.296.609.764.984 3.151 3.764 3.229 3.764.063 0 .265-.172.468-.39.406-.422.453-.313-.733-1.734l-.671-.797.359-.328c.328-.312.53-.343 2.278-.343h1.918l.562.484c1.279 1.125 2.667 1.343 4.071.609l.64-.312v2.186h1.248v-6.325h1.716v6.325h1.248v-3.217c0-2.874.031-3.202.25-3.124.14.047 1.747.094 3.587.094h3.339v1.53l-1.981.063c-1.217.047-2.169.14-2.418.265-.578.297-.967 1.156-.858 1.922.265 1.968 3.073 2.014 3.073.046 0-.453-.219-.609-.718-.484-.234.063-.374.219-.374.391 0 .343-.328.515-.624.328-.265-.156-.25-.937.015-1.109.125-.078 1.046-.141 2.06-.141h1.825v3.436h1.248v-6.247l.936-.016c1.731-.047 1.638 0 1.685-.656l.046-.578h-16.707v1.25h1.404v1.296c0 1.437-.062 1.546-1.092 2.062-.718.375-1.576.343-2.215-.047l-.499-.328.39-.141c.577-.234 1.357-1.187 1.544-1.921.296-1.109-.094-2.108-1.014-2.546-.686-.328-1.295-.312-1.919.063Zm1.654 1.218c.249.328.234.89-.047 1.437-.296.578-.671.781-1.451.781-.327 0-.639.047-.702.094-.046.062-.858.093-1.778.093l-1.685.016-.015-1.046-.032-1.031h1.654c1.638 0 1.654 0 2.044.468.218.266.577.484.795.516.328.031.406-.047.437-.422.031-.297-.031-.5-.187-.594-.297-.171-.328-.531-.047-.64.281-.125.78.047 1.014.328Zm-12.761 1.296c0 .61-.062 1.078-.156 1.094-.078 0-.639.015-1.248.015-.592 0-1.17-.015-1.248-.015-.109-.016-.156-.391-.124-1l.046-.968 1.014-.078c.562-.047 1.17-.094 1.373-.094.328-.031.343.031.343 1.046Z"/></svg>