<svg xmlns="http://www.w3.org/2000/svg" width="318" height="318" fill="none"><path fill="#4C51A9" d="M0 0h318v318H0z"/><mask id="a" width="177" height="55" x="70" y="131" maskUnits="userSpaceOnUse" style="mask-type:luminance"><path fill="#fff" d="M247 131.996H70.922v53.905H247v-53.905Z"/></mask><g mask="url(#a)"><path fill="#fff" d="M70.922 185.508h2.812v-33.424l-2.812-1.182v34.606Zm5.94-2.423h2.812v-28.499l-2.812-1.184v29.683Zm5.938-2.424h2.813v-23.575l-2.812-1.182v24.757Zm5.941-2.422h2.812v-18.653l-2.812-1.183v19.836Zm5.941-2.422h2.81v-13.731l-2.81-1.183v14.914Zm5.94-2.425h2.81v-8.805l-2.81-1.184v9.989Zm5.94-2.422h2.809v-3.882l-2.809-1.183v5.065Z"/><path fill="url(#b)" d="M70.922 147.02v3.882l2.812 1.183v-5.065h-2.812Z"/><path fill="url(#c)" d="M76.862 144.597v8.805l2.812 1.184v-9.989h-2.812Z"/><path fill="url(#d)" d="M82.8 142.173v13.731l2.813 1.182v-14.913H82.8Z"/><path fill="url(#e)" d="M88.741 139.75v18.653l2.812 1.183V139.75h-2.812Z"/><path fill="url(#f)" d="M94.682 137.328v23.575l2.81 1.183v-24.758h-2.81Z"/><path fill="url(#g)" d="M100.622 134.904v28.499l2.81 1.185v-29.684h-2.81Z"/><path fill="url(#h)" d="M106.562 132.482v33.423l2.809 1.183v-34.606h-2.809Z"/><path fill="#fff" d="M140.262 154.284c0-1.943-.736-3.715-2.204-5.315-1.47-1.601-3.534-2.728-6.188-3.387l-3.646-.899c-1.244-.314-2.225-.779-2.946-1.393-.72-.614-1.081-1.478-1.081-2.593 0-1.373.459-2.443 1.378-3.216.918-.771 2.184-1.158 3.795-1.158 1.611 0 2.854.371 3.9 1.115 1.046.745 1.78 1.687 2.205 2.828l4.746-1.543a9.856 9.856 0 0 0-2.077-3.45c-.932-1.014-2.113-1.815-3.54-2.4s-3.087-.879-4.981-.879c-3.365 0-5.95.779-7.759 2.337-1.808 1.558-2.714 3.735-2.714 6.537 0 1.486.318 2.771.955 3.858.636 1.086 1.51 1.986 2.628 2.699 1.115.714 2.367 1.258 3.752 1.629l3.645.942c1.526.4 2.741.965 3.646 1.693.903.728 1.356 1.666 1.356 2.808 0 1.258-.536 2.271-1.611 3.042-1.074.77-2.53 1.158-4.365 1.158-1.583-.029-2.912-.443-3.984-1.244-1.075-.799-1.795-1.729-2.162-2.785l-4.832 1.501c.255.886.699 1.735 1.335 2.55.636.814 1.442 1.55 2.417 2.209.974.658 2.104 1.172 3.39 1.543 1.285.371 2.706.557 4.26.557 2.29 0 4.231-.371 5.829-1.116 1.597-.742 2.804-1.772 3.626-3.087.819-1.313 1.229-2.828 1.229-4.543l-.002.002Zm9.878 8.23h4.916v-25.461h9.114v-4.543h-23.145v4.543h9.115v25.461Zm21.321-11.058h5.214l6.315 11.058h5.552l-7.018-11.975c.222-.094.442-.196.658-.304 1.611-.814 2.875-1.935 3.795-3.364.917-1.43 1.378-3.071 1.378-4.929 0-1.857-.438-3.492-1.313-4.908-.877-1.415-2.092-2.522-3.646-3.321-1.553-.799-3.348-1.201-5.383-1.201h-10.47v30.004h4.918v-11.06Zm0-14.401h5.383c1.611 0 2.924.457 3.941 1.372 1.018.916 1.526 2.086 1.526 3.515 0 .942-.233 1.787-.7 2.529a5.128 5.128 0 0 1-1.823 1.757c-.748.429-1.604.643-2.565.643h-5.764v-9.818l.002.002Zm25.308-4.545h-4.918v30.004h4.918V132.51Zm21.555 28.075a13.989 13.989 0 0 0 5.299-5.316c1.285-2.257 1.929-4.842 1.929-7.758 0-2.916-.642-5.544-1.929-7.801a13.856 13.856 0 0 0-5.299-5.294c-2.247-1.27-4.826-1.906-7.736-1.906h-9.326v30.004h9.326c2.91 0 5.489-.642 7.736-1.929Zm-12.144-23.446h4.408a9.718 9.718 0 0 1 7.08 3.001c.903.942 1.61 2.043 2.118 3.301.51 1.258.763 2.614.763 4.072 0 1.458-.255 2.816-.763 4.072a10.307 10.307 0 0 1-2.118 3.301 9.8 9.8 0 0 1-3.179 2.208 9.687 9.687 0 0 1-3.901.793h-4.408v-20.748Zm27.341 20.832v-8.486h11.783v-4.46h-11.783v-7.972h13.351v-4.543h-18.269v30.004H247v-4.543h-13.479Zm-106.118 23.975-6.044-15.617h-3.336l7.673 19.187h3.442l7.673-19.187h-3.363l-6.045 15.617Zm14.503-4.761h7.536v-2.851h-7.536v-5.1h8.539v-2.905h-11.683v19.187h11.765v-2.906h-8.621v-5.425Zm24.017 3.013-10.085-13.869h-3.252v19.187h3.144v-14.033l10.193 14.033h3.144v-19.187h-3.144v13.869Zm4.664-10.964h5.827v16.282h3.145v-16.282h5.827v-2.905h-14.799v2.905Zm28.596 9.266c0 .895-.181 1.676-.542 2.342a3.842 3.842 0 0 1-1.558 1.562c-.677.376-1.46.563-2.345.563-.884 0-1.635-.187-2.304-.563a3.958 3.958 0 0 1-1.557-1.562c-.372-.666-.557-1.447-.557-2.342v-12.171h-3.144V178.5c0 1.48.312 2.777.936 3.892a6.5 6.5 0 0 0 2.63 2.59c1.13.611 2.445.917 3.943.917 1.499 0 2.906-.306 4.054-.917a6.47 6.47 0 0 0 2.657-2.59c.624-1.115.936-2.412.936-3.892v-12.171h-3.144V178.5h-.005Zm15.207-.836c1.03-.52 1.839-1.238 2.426-2.151.588-.914.881-1.964.881-3.153 0-1.188-.281-2.234-.84-3.138-.561-.905-1.337-1.612-2.33-2.124-.995-.512-2.141-.767-3.442-.767h-6.696v19.187h3.144v-7.071h3.334l4.039 7.071h3.552l-4.488-7.658c.143-.062.283-.125.422-.194l-.002-.002Zm-6.859-8.429h3.442c1.029 0 1.869.291 2.52.876.65.586.977 1.334.977 2.247 0 .604-.149 1.142-.447 1.617a3.276 3.276 0 0 1-1.166 1.124 3.258 3.258 0 0 1-1.64.412h-3.686v-6.276Zm15.1 7.95h7.537v-2.851h-7.537v-5.1h8.54v-2.905h-11.684v19.187h11.765v-2.906h-8.621v-5.425Zm18.813-2.494-2.331-.575c-.795-.2-1.423-.498-1.884-.891-.46-.394-.691-.946-.691-1.658 0-.877.294-1.562.881-2.055.587-.494 1.397-.74 2.426-.74 1.03 0 1.825.238 2.494.713a3.811 3.811 0 0 1 1.409 1.809l3.036-.987a6.344 6.344 0 0 0-1.327-2.206c-.596-.649-1.352-1.16-2.263-1.536-.914-.375-1.974-.562-3.185-.562-2.152 0-3.805.497-4.961 1.494-1.156.997-1.736 2.39-1.736 4.18 0 .95.204 1.772.61 2.467a5.067 5.067 0 0 0 1.68 1.727 8.505 8.505 0 0 0 2.4 1.042l2.331.604c.976.257 1.753.616 2.33 1.083.579.467.867 1.064.867 1.796 0 .803-.343 1.452-1.03 1.945-.687.494-1.617.74-2.791.74-1.011-.018-1.862-.283-2.549-.795-.687-.512-1.148-1.105-1.382-1.782l-3.091.96c.163.567.446 1.11.854 1.632.406.52.921.991 1.545 1.411.624.42 1.346.75 2.17.987.822.236 1.731.356 2.724.356 1.464 0 2.706-.238 3.727-.713 1.022-.475 1.793-1.134 2.319-1.974.524-.84.787-1.809.787-2.906 0-1.241-.471-2.375-1.409-3.399-.94-1.023-2.259-1.745-3.958-2.165l-.002-.002Z"/></g><defs><linearGradient id="b" x1="70.335" x2="73.626" y1="167.873" y2="137.622" gradientUnits="userSpaceOnUse"><stop stop-color="#222795"/><stop offset="1" stop-color="#fff"/></linearGradient><linearGradient id="c" x1="76.21" x2="79.501" y1="168.511" y2="138.262" gradientUnits="userSpaceOnUse"><stop stop-color="#222795"/><stop offset="1" stop-color="#fff"/></linearGradient><linearGradient id="d" x1="82.083" x2="85.374" y1="169.151" y2="138.9" gradientUnits="userSpaceOnUse"><stop stop-color="#222795"/><stop offset="1" stop-color="#fff"/></linearGradient><linearGradient id="e" x1="87.958" x2="91.249" y1="169.789" y2="139.54" gradientUnits="userSpaceOnUse"><stop stop-color="#222795"/><stop offset="1" stop-color="#fff"/></linearGradient><linearGradient id="f" x1="93.831" x2="97.122" y1="170.429" y2="140.179" gradientUnits="userSpaceOnUse"><stop stop-color="#222795"/><stop offset="1" stop-color="#fff"/></linearGradient><linearGradient id="g" x1="99.707" x2="102.998" y1="171.068" y2="140.819" gradientUnits="userSpaceOnUse"><stop stop-color="#222795"/><stop offset="1" stop-color="#fff"/></linearGradient><linearGradient id="h" x1="105.581" x2="108.872" y1="171.708" y2="141.457" gradientUnits="userSpaceOnUse"><stop stop-color="#222795"/><stop offset="1" stop-color="#fff"/></linearGradient></defs></svg>