<svg xmlns="http://www.w3.org/2000/svg" width="272" height="290" fill="none"><path fill="#0A090D" d="M0 0h272v290H0z"/><path fill="#fff" d="M105.609 160.872v-22.969h3.392l.323 1.854h.162c.969-1.27 2.616-2.18 4.909-2.18 4.197 0 7.557 3.45 7.557 8.556 0 5.105-3.357 8.555-7.557 8.555-2.261 0-3.842-.945-4.681-2.017h-.162v8.198h-3.94l-.003.003Zm12.4-14.737c0-2.993-1.906-4.879-4.231-4.879s-4.231 1.886-4.231 4.879c0 2.994 1.906 4.88 4.231 4.88s4.231-1.886 4.231-4.88Zm5.943.001c0-4.978 3.551-8.555 8.299-8.555 4.747 0 8.298 3.577 8.298 8.555s-3.551 8.556-8.298 8.556c-4.748 0-8.299-3.612-8.299-8.556Zm12.625 0c0-2.929-1.938-4.879-4.326-4.879-2.389 0-4.359 1.953-4.359 4.879 0 2.927 1.97 4.848 4.359 4.848 2.388 0 4.326-1.918 4.326-4.848Zm6.825 8.228v-22.771h3.94v22.774h-3.94v-.003Zm18.568-16.463h4.197l-7.105 20.008c-.709 1.985-1.678 2.961-4.231 2.961h-3.81v-3.676h3.23c.583 0 .903-.293 1.099-.781l.387-1.073-6.652-17.439h4.197l4.232 11.421h.646l3.81-11.421Zm4.95 17.278h4.004c.161 1.072 1.226 2.537 3.747 2.537 2.356 0 3.908-1.497 3.908-3.775v-2.31h-.162c-.871.944-2.486 1.79-4.554 1.79-4.197 0-7.427-3.255-7.427-7.94 0-4.684 3.23-7.904 7.427-7.904 2.163 0 3.747.878 4.747 2.116h.162l.323-1.79h3.424v16.038c0 4.359-2.908 7.256-7.848 7.256-5.521 0-7.653-3.644-7.751-6.018Zm11.659-9.695c0-2.569-1.809-4.359-4.102-4.359s-4.07 1.79-4.07 4.359 1.809 4.391 4.07 4.391c2.262 0 4.102-1.79 4.102-4.391Zm6.678.652c0-4.978 3.551-8.555 8.298-8.555 4.748 0 8.299 3.577 8.299 8.555s-3.551 8.556-8.299 8.556c-4.747 0-8.298-3.612-8.298-8.556Zm12.625 0c0-2.929-1.939-4.879-4.327-4.879s-4.358 1.953-4.358 4.879c0 2.927 1.97 4.848 4.358 4.848s4.327-1.918 4.327-4.848Zm6.715 8.229v-16.462h3.389l.323 1.56h.161c.646-.747 2.262-1.886 4.714-1.886 3.746 0 6.458 2.732 6.458 6.896v9.889h-3.94v-9.369c0-2.115-1.486-3.644-3.519-3.644-2.033 0-3.649 1.596-3.649 3.644v9.369h-3.94l.003.003Z"/><path fill="url(#a)" d="m82.676 152.443 9.686-5.635a1.68 1.68 0 0 0 .83-1.45v-11.27c0-.595-.317-1.15-.83-1.45l-9.686-5.634a1.653 1.653 0 0 0-1.661 0l-9.686 5.634c-.513.3-.83.855-.83 1.45v20.139l-6.793 3.949-6.793-3.949v-7.901l6.793-3.95 4.479 2.607v-5.3l-3.649-2.125a1.667 1.667 0 0 0-1.661 0l-9.686 5.635a1.68 1.68 0 0 0-.83 1.45v11.27c0 .595.317 1.15.83 1.45l9.686 5.634a1.66 1.66 0 0 0 1.661 0l9.686-5.634c.513-.3.83-.855.83-1.45v-20.142l.122-.07 6.668-3.879 6.793 3.949v7.902l-6.793 3.949-4.473-2.601v5.301l3.643 2.118c.513.296 1.15.296 1.661 0l.003.003Z"/><defs><linearGradient id="a" x1="52.226" x2="91.586" y1="157.017" y2="134.341" gradientUnits="userSpaceOnUse"><stop stop-color="#A726C1"/><stop offset=".88" stop-color="#803BDF"/><stop offset="1" stop-color="#7B3FE4"/></linearGradient></defs></svg>