<svg xmlns="http://www.w3.org/2000/svg" width="272" height="290" fill="none"><path fill="#000" d="M0 0h272v290H0z"/><path fill="#fff" fill-rule="evenodd" d="M82.032 125.267c0 .146-.181.266-.403.266-.913 0-3.099 1.741-3.752 2.987-.313.597-.377 3.431-.377 16.624v15.904l.733 1.024c.805 1.125 2.565 2.395 3.32 2.395.263 0 .48.12.48.266 0 .336 7.014.364 7.668.032.254-.13.774-.381 1.155-.557.812-.377 2.107-1.447 2.107-1.741 0-.113.216-.398.48-.636.763-.683 1.585-2.708 2.069-5.098.527-2.603.292-3.839-.957-5.033-1.003-.959-2.4-1.366-4.69-1.368-1.008-.001-2.287-.127-2.84-.281-1.1-.305-2.748-1.788-3.143-2.827-.617-1.622-.043-4.208 1.151-5.189.33-.271.743-.614.92-.763.177-.15.5-.272.718-.272.217 0 .47-.12.56-.267.09-.146.81-.266 1.6-.266.788 0 1.508.12 1.599.266.09.147.35.267.574.267.226 0 .758.248 1.184.551 1.11.791.955.38-.318-.843-.772-.742-1.042-1.187-.919-1.513.269-.71 1.32-2.191 1.556-2.193.116-.001.453-.227.748-.502.705-.657 3.394-1.217 4.69-.977 3.289.609 5.409 2.845 5.45 5.75.012.879.129 1.664.26 1.745.131.081.238-.1.238-.402 0-.302.12-.549.267-.549.146 0 .266-.36.266-.8 0-.756.06-.8 1.067-.8.586 0 1.066.12 1.066.266 0 .147.264.267.587.267.35 0 1.043.483 1.716 1.195.863.915 1.172 1.486 1.314 2.427.319 2.129-.636 4.056-2.555 5.154-.378.216-1.905.458-3.592.569-1.614.106-3.175.287-3.468.4-.842.326-2.213 1.937-2.409 2.83-.385 1.752.723 6.536 1.775 7.665.275.296.5.617.5.713 0 .406 2.326 2.285 3.005 2.428.407.085.803.259.882.387.188.303 7.235.303 7.422 0 .079-.128.486-.301.905-.385 1.01-.202 3.107-2.108 3.507-3.188.176-.474.43-1.07.564-1.325.315-.597.324-29.121.009-29.74-.13-.255-.4-.814-.6-1.243-.722-1.545-2.857-3.354-3.96-3.354-.295 0-.537-.12-.537-.266 0-.175-5.109-.267-14.796-.267-9.686 0-14.796.092-14.796.267Zm53.053 0c0 .146-.259.266-.575.266-.579 0-2.105 1.009-2.946 1.947-.736.823-1.089 2.283-.928 3.843.129 1.257.299 1.596 1.299 2.594.776.775 1.628 1.303 2.617 1.62.806.26 1.674.574 1.929.701.255.125.825.229 1.266.229.442 0 .804.12.804.266 0 .147.21.271.466.275.257.005.691.316.965.692.429.589.45.774.153 1.329-.19.355-.703.824-1.139 1.042-.899.448-2.578.532-2.578.129 0-.147-.218-.267-.484-.267s-.852-.415-1.302-.923c-.768-.868-.871-.907-1.715-.638-.494.157-1.217.345-1.607.417-1.383.256-1.156 1.293.688 3.137 1.498 1.499 2.885 2.007 5.47 2.007 3.129 0 5.356-1.159 6.508-3.39.864-1.669.337-4.493-1.065-5.704-.682-.589-2.21-1.306-2.786-1.306-.262 0-.55-.12-.641-.266-.091-.147-.511-.267-.933-.267-.423 0-.843-.12-.933-.267-.091-.146-.518-.266-.949-.266-.431 0-.784-.12-.784-.267 0-.147-.161-.267-.357-.267-.197 0-.498-.309-.67-.686-.257-.564-.23-.826.148-1.467.253-.429.668-.78.921-.78s.534-.12.624-.267c.091-.146.451-.266.8-.266.349 0 .709.12.8.266.091.147.346.267.568.267.525 0 1.165.649 1.165 1.181 0 .3.261.419.917.419.505 0 .992-.12 1.082-.267.091-.146.443-.266.783-.266s.765-.178.946-.395c.265-.32.191-.609-.397-1.538-.757-1.198-2.461-2.601-3.158-2.601-.225 0-.482-.12-.573-.266-.091-.147-1.117-.267-2.282-.267-1.233 0-2.117.111-2.117.267Zm47.076-.035c-.079.128-.511.306-.96.396-1.67.334-3.727 3.194-3.727 5.181 0 .992.977 2.846 1.853 3.516 1.141.872 4.362 2.142 5.435 2.142.48 0 1.344.426 2.11 1.041.743.597.571 1.518-.425 2.278-1.466 1.119-3.289.776-4.78-.899l-.702-.788-1.546.425c-.849.234-1.652.52-1.783.636-.38.335.385 1.853 1.457 2.894 1.332 1.293 3.103 1.882 5.654 1.881 2.515-.002 3.616-.419 5.115-1.937 2.581-2.614 2.105-6.311-1.004-7.812-.744-.359-1.57-.653-1.836-.653s-.484-.12-.484-.266c0-.147-.419-.267-.933-.267-.513 0-.933-.12-.933-.267 0-.146-.221-.266-.492-.266s-.877-.192-1.347-.427c-.78-.389-.848-.522-.774-1.522.071-.96.203-1.16 1.075-1.618.905-.475 1.096-.489 2.112-.153.724.239 1.265.635 1.538 1.126.353.636.549.736 1.221.622 2.806-.478 3.019-.625 2.57-1.782-.346-.895-1.893-2.646-2.338-2.646-.201 0-.366-.12-.366-.267 0-.147-.3-.267-.666-.267-.367 0-.667-.12-.667-.266 0-.33-4.175-.363-4.377-.035Zm-32.108 5.418c-2.349.524-4.579 3.765-4.567 6.636.007 1.559 1.667 5.314 2.349 5.314.117 0 .45.21.74.467.683.604.983.687 2.923.807 1.565.097 3.848-.538 3.848-1.07 0-.112.12-.204.267-.204.147 0 .267.305.267.678 0 .672.019.678 1.933.6l1.932-.078v-13.067l-1.932-.078c-1.926-.078-1.933-.076-1.933.618v.697l-.76-.541c-.73-.52-2.67-1.107-3.506-1.06-.22.012-.922.138-1.561.281Zm16.102-.026c-.581.142-1.12.344-1.2.45-.079.107-.445.348-.813.537-1.838.944-3.372 5.687-2.413 7.459.137.255.314.769.391 1.143.078.374.607 1.154 1.176 1.734 1.697 1.727 1.813 1.78 4.247 1.93 1.412.086 1.855-.003 2.9-.588.678-.379 1.278-.689 1.333-.689.055 0 .1.306.1.679 0 .668.028.678 1.799.6l1.8-.079v-13.067l-1.8-.079c-1.771-.077-1.799-.068-1.799.6 0 .374-.12.679-.267.679-.147 0-.267-.106-.267-.236 0-.784-3.447-1.497-5.187-1.073Zm-11.421 4.043c1.612 1.77 1.545 3.63-.187 5.196-.502.454-.991.603-1.981.603-1.17.001-1.411-.105-2.199-.966-.751-.82-.886-1.166-.886-2.274 0-1.094.138-1.458.843-2.233.772-.849.969-.926 2.353-.926 1.226 0 1.613.112 2.057.6Zm15.847-.089c1.683 1.569 1.67 3.771-.032 5.288-.502.447-1.003.6-1.966.6-1.115.001-1.417-.124-2.199-.906-.796-.796-.907-1.074-.907-2.278 0-1.341.128-1.632 1.184-2.695.721-.726 3.144-.732 3.92-.009Zm-23.099 15.457c-.587.107-1.352.35-1.702.541-1.066.583-2.803 2.495-3.323 3.659-.678 1.517-.661 4.724.033 6.285.809 1.818 3.12 3.947 4.284 3.947.299 0 .617.12.708.266.206.334 2.912.352 3.536.023a27.33 27.33 0 0 1 1.45-.673c1.489-.647 2.563-1.671 3.319-3.164.886-1.749 1.005-5.109.238-6.741-.574-1.222-2.329-3.057-3.495-3.655-.985-.505-3.581-.756-5.048-.488Zm16.396.001c-2.214.471-4.405 2.418-5.245 4.662-.595 1.588-.238 6.302.478 6.302.129 0 .234.18.234.4 0 .22.12.4.267.4.147 0 .267.154.267.341 0 .188.254.518.566.733.311.216.705.513.876.659.616.528 1.493.934 2.02.934.295 0 .537.12.537.266 0 .151.755.267 1.732.267.978 0 1.733-.116 1.733-.267 0-.146.222-.266.493-.266 1.153 0 3.555-1.826 3.921-2.981.085-.268.266-.486.403-.486s.249-.233.249-.518c0-.284.12-.591.266-.682.326-.201.357-4.225.038-4.87-1.212-2.456-1.681-3.029-3.39-4.141-1.151-.75-3.763-1.111-5.445-.753Zm-33.858 7.213c0 6.606.037 7.194.466 7.329.257.081 1.966.118 3.799.083 2.608-.051 3.524-.169 4.211-.543 1.26-.685 1.919-1.909 1.92-3.566.001-1.214-.112-1.501-.938-2.376l-.939-.996.562-.598c1.138-1.212 1.217-3.956.148-5.141-1.088-1.205-1.781-1.374-5.617-1.374h-3.612v7.182Zm45.384.084.071 7.267.727.084.728.084.072-5.817.072-5.818 1.4 2.504c.77 1.376 1.399 2.606 1.399 2.733 0 .127.12.23.267.23.147 0 .267.24.267.533 0 .294.12.534.266.534.147 0 .267.18.267.4 0 .22.12.4.266.4.147 0 .267.15.267.333.001.183.275.652.61 1.042.507.589.698.66 1.133.417.783-.436 1.19-.905 1.19-1.373 0-.231.12-.419.266-.419.147 0 .267-.24.267-.534 0-.293.12-.533.266-.533.147 0 .267-.18.267-.4 0-.22.106-.4.235-.4.13 0 .303-.21.384-.467.195-.61 2.276-4.393 2.598-4.72.154-.157.249 1.948.249 5.551v5.805l.733-.085.733-.084.071-7.267.071-7.266h-1.071c-.774 0-1.07.111-1.07.4 0 .22-.09.401-.2.402-.11.001-.327.271-.483.6-.811 1.714-3.366 6.392-3.604 6.598-.085.073-.325.523-.532 1-.207.476-.498.866-.647.866-.148 0-.439-.39-.646-.866-.208-.477-.447-.927-.532-1-.203-.176-.664-.992-2.106-3.734-.657-1.246-1.295-2.306-1.42-2.355-.125-.049-.228-.319-.228-.6 0-.281-.12-.511-.266-.511-.147 0-.267-.18-.267-.4 0-.289-.297-.4-1.071-.4h-1.07l.071 7.266Zm17.823-6.559c-.467.533-.072 1.293.672 1.293.382 0 .504-.193.504-.797 0-.912-.592-1.162-1.176-.496Zm-56.391 1.016c1.855.776 2.15 3.56.461 4.343-.403.187-1.749.334-3.065.334h-2.346v-2.356c0-1.296.08-2.436.178-2.533.334-.335 3.837-.179 4.772.212Zm13.818-.099c2.601.723 4.159 2.842 4.159 5.655 0 2.41-.871 3.984-2.799 5.057-2.853 1.588-6.386.551-7.865-2.31-.766-1.483-.309-6.293.599-6.293.111 0 .201-.16.201-.355 0-.195.33-.525.733-.733.404-.208.793-.445.867-.528.19-.215 1.901-.725 2.532-.755.294-.014 1.001.104 1.573.262Zm17.411.423c1.873.882 3.277 3.115 3.277 5.208 0 1.54-1.151 3.944-2.248 4.696-.887.607-3.228 1.369-3.75 1.22a91.525 91.525 0 0 0-1.388-.364c-1.355-.348-3.374-2.19-3.662-3.341-.508-2.031-.467-3.228.154-4.554.674-1.441 1.329-2.19 2.395-2.739 1.71-.881 3.528-.925 5.222-.126Zm25.325 2.388c-.273.273-.221 9.498.057 9.937.131.207.427.298.668.206.382-.147.425-.757.361-5.169-.062-4.267-.134-5.014-.486-5.082-.227-.043-.497.005-.6.108Zm-55.555 4.209c.885.82 1.133 1.815.708 2.84-.52 1.256-1.506 1.615-4.198 1.526l-2.326-.077-.077-2.467-.076-2.466h2.637c2.418 0 2.695.053 3.332.644Z" clip-rule="evenodd"/></svg>