<svg xmlns="http://www.w3.org/2000/svg" width="272" height="290" fill="none"><path fill="#1D1D1D" d="M0 0h272v290H0z"/><path fill="#fff" d="M102.731 127.171H74v6.715h28.731v-6.715Z"/><path fill="#fff" fill-rule="evenodd" d="M78.317 127.171v35.658l6.699-6.786v-28.872h-6.699Zm13.247 0v22.38l6.703-6.786v-15.594h-6.703Zm35.922 30.571a3.605 3.605 0 0 1-2.643-1.092c-.726-.728-1.089-1.694-1.089-2.898 0-1.203.385-2.159 1.155-2.867.768-.707 1.695-1.066 2.779-1.066 1.356 0 2.487.496 3.399 1.628l1.791-1.961c-1.427-1.618-3.201-2.427-5.321-2.427-1.897 0-3.501.642-4.812 1.926-1.312 1.284-1.968 2.886-1.967 4.804 0 1.921.644 3.51 1.932 4.768 1.288 1.258 2.925 1.886 4.912 1.886 1.988 0 3.714-.827 5.181-2.483l-1.847-1.906c-.898 1.127-2.058 1.688-3.47 1.688Zm14.158-10.632h-2.854l-5.715 13.258h3.144l1.23-2.862h5.544l1.23 2.862h3.145l-5.724-13.258Zm-3.081 7.79 1.664-3.847 1.645 3.847h-3.309Zm19.111-6.607c-.928-.789-2.407-1.183-4.439-1.183h-4.676v13.258h2.951v-3.696h1.761c1.956 0 3.41-.38 4.363-1.138.952-.759 1.427-1.958 1.427-3.595 0-1.639-.458-2.852-1.387-3.646Zm-2.166 5.218c-.353.4-1.024.597-2.007.597h-1.988v-4.455h1.685c.973 0 1.684.162 2.149.486.463.323.691.864.691 1.633-.003.758-.18 1.34-.533 1.739h.003Z" clip-rule="evenodd"/><path fill="#fff" d="M163.49 147.11h-2.95v13.258h2.95V147.11Z"/><path fill="#fff" fill-rule="evenodd" d="M165.543 147.11v2.559h3.748v10.699h2.951v-10.699h3.748v-2.559h-10.447Zm16.877 0h-2.855l-5.715 13.258h3.144l1.232-2.862h5.542l1.231 2.862h3.144l-5.723-13.258Zm-3.083 7.79 1.665-3.848 1.644 3.848h-3.309Zm13.024 2.828V147.11h-2.951v13.258H198v-2.64h-5.639Z" clip-rule="evenodd"/><path fill="#fff" d="m126.342 134.661 2.975-2.988v-2.18h-7.873v2.2h4.181l-3.108 3.267v2.235c.752-.238 1.852-.284 2.266-.284.776 0 1.478.096 1.967.405.459.288.655.753.655 1.295 0 .541-.191.96-.569 1.249-.378.288-1.014.505-1.608.505-.973 0-1.841-.182-2.425-.718l-2.018 1.957c1.488 1.027 2.88 1.244 4.332 1.244s2.789-.39 3.718-1.173c.928-.784 1.397-1.861 1.397-3.242 0-.925-.28-1.751-.862-2.451-.708-.851-1.838-1.164-3.028-1.321Zm30.707 3.585-6.358-8.755h-2.809v13.357h2.925v-7.853l6.093 7.853h3.074v-13.35h-2.925v8.748Zm8.682-.856h5.791v-2.501h-5.791v-2.705h6.446v-2.686h-9.52v13.355h9.572v-2.741h-6.506v-2.722h.008Zm18.179-.14v-2.215h-2.885v2.215h-3.194l5.357-5.436v-2.316h-1.72l-7.123 7.16v3.429h6.678v2.766h2.885v-2.766h2.149v-2.837h-2.147Zm-44.768-5.045c.78 0 1.543.232 2.191.667a3.952 3.952 0 0 1 1.676 4.059 3.944 3.944 0 0 1-5.377 2.882 3.956 3.956 0 0 1 1.51-7.608Zm0-2.721a6.652 6.652 0 0 0-6.151 4.121 6.687 6.687 0 0 0 1.443 7.274 6.656 6.656 0 0 0 7.256 1.447 6.669 6.669 0 0 0 4.111-6.167 6.683 6.683 0 0 0-1.952-4.718 6.648 6.648 0 0 0-4.707-1.954v-.003Zm-26.97-2.313h-.746v35.578h.746v-35.578Z"/></svg>