<svg xmlns="http://www.w3.org/2000/svg" width="272" height="290" fill="none"><path fill="#1C393F" d="M0 0h272v290H0z"/><g clip-path="url(#a)"><mask id="b" width="146" height="40" x="63" y="125" maskUnits="userSpaceOnUse" style="mask-type:luminance"><path fill="#fff" d="M209 125H63v39.683h146V125Z"/></mask><g mask="url(#b)"><path fill="#F0E8D5" fill-rule="evenodd" d="M64.608 133.065v-2.96c0-2.098 1.417-3.447 3.561-3.447 2.145 0 3.562 1.386 3.562 3.447v3.672h1.532v-3.747c0-2.885-2.03-4.796-5.094-4.796-3.063 0-5.093 1.911-5.093 4.796v3.11c0 6.07 8.731 5.995 8.731 10.828v3.447c0 2.136-1.455 3.523-3.638 3.523-2.182 0-3.637-1.387-3.637-3.523v-4.084H63v4.159c0 2.923 2.068 4.871 5.17 4.871 3.101 0 5.17-1.948 5.17-4.871v-3.597c0-6.07-8.732-5.995-8.732-10.828Zm11.849 19.296h8.317v-1.473H78.04V139.34h6.139v-1.473h-6.14v-11.161h6.734v-1.472h-8.317v27.127Zm10.922 0h8.515v-2.015h-6.297v-10.735h5.743v-2.015h-5.743v-10.347h6.297v-2.015H87.38v27.127Zm20.045-5.27c0 1.976-1.307 3.255-3.327 3.255h-3.327v-23.097h3.327c2.02 0 3.327 1.279 3.327 3.255v16.587Zm-3.208-21.857h-5.664v27.127h5.664c3.287 0 5.426-2.054 5.426-5.154v-16.819c0-3.1-2.139-5.154-5.426-5.154Z" clip-rule="evenodd"/><mask id="c" width="11" height="28" x="112" y="125" maskUnits="userSpaceOnUse" style="mask-type:alpha"><path fill="#fff" d="M112.766 125.233h10.218v27.128h-10.218v-27.128Z"/></mask><g mask="url(#c)"><path fill="#F0E8D5" fill-rule="evenodd" d="M112.766 127.869h3.643v24.492h2.931v-24.492h3.644v-2.636h-10.218v2.636Z" clip-rule="evenodd"/></g><path fill="#F0E8D5" fill-rule="evenodd" d="M134.345 147.116c0 1.611-1.11 2.698-2.757 2.698s-2.757-1.087-2.757-2.698v-16.637c0-1.611 1.11-2.697 2.757-2.697s2.757 1.086 2.757 2.697v16.637Zm-2.757-21.883c-3.37 0-5.591 2.062-5.591 5.172v16.748c0 3.147 2.221 5.208 5.591 5.208s5.591-2.061 5.591-5.208v-16.748c0-3.11-2.221-5.172-5.591-5.172Zm12.696 8.094v-2.773c0-1.311.881-2.173 2.26-2.173 1.34 0 2.221.862 2.221 2.173v3.597h3.523v-3.597c0-3.185-2.298-5.32-5.744-5.32-3.485 0-5.782 2.135-5.782 5.32v3.147c0 6.033 8.079 6.258 8.079 10.042v3.223c0 1.349-.919 2.248-2.297 2.248-1.418 0-2.336-.899-2.336-2.248v-3.972h-3.523v4.009c0 3.222 2.335 5.358 5.859 5.358 3.484 0 5.82-2.136 5.82-5.358v-3.597c0-6.07-8.08-6.295-8.08-10.079Zm17.083-8.093c-3.485 0-5.821 2.135-5.821 5.358v16.411c0 3.222 2.336 5.358 5.821 5.358s5.821-2.136 5.821-5.358v-5.395h-3.523v5.358c0 1.349-.919 2.248-2.298 2.248s-2.298-.899-2.298-2.248v-16.337c0-1.349.919-2.248 2.298-2.248s2.298.899 2.298 2.248v4.984h3.523v-5.021c0-3.223-2.336-5.358-5.821-5.358Zm14.022 16.741 1.069-10.308v-2.209h.753v2.209l1.069 10.308h-2.891Zm-1.822-16.741-3.644 27.127h4.397l.712-6.821h3.644l.713 6.821h4.594l-3.604-27.127h-6.812Zm17.426 0h-4.357v27.127h8.951v-3.875h-4.594v-23.252Zm17.056 4.456v-4.456h-9.426v27.127h9.426v-4.457h-4.436v-7.13h4v-4.341h-4v-6.743h4.436Zm-3.924 28.331a1.055 1.055 0 0 0-.668.204c-.559.401-.783.976-.883 1.615-.033.204.103.191.236.159.625-.15 1.25-.303 1.875-.457a.42.42 0 0 0 .26-.201c.344-.576-.09-1.316-.82-1.32Zm-.295 5.243c-.546-.114-1.072-.261-1.528-.604a2.716 2.716 0 0 1-.588-3.739c.799-1.149 2.454-1.505 3.705-.798.414.233.674.581.84 1.011.106.275.058.425-.268.498-.997.225-1.988.474-2.981.715-.44.107-.467.149-.359.584.426 1.726 2.345 1.807 3.333 1.147.086-.057.163-.261.295-.106.094.111-.045.227-.125.316a2.819 2.819 0 0 1-1.691.908c-.111.018-.22.045-.33.068h-.303Zm-9.942 0c-.788-.151-1.499-.434-1.999-1.086-.66-.86-.794-1.797-.359-2.78.417-.944 1.179-1.487 2.23-1.609.907-.106 1.711.115 2.304.827.301.36.255.443-.196.549a5.44 5.44 0 0 1-.221.05c-.512.107-.515.107-.545-.401-.052-.849-.8-.923-1.392-.688-.313.123-.535.368-.697.655-.481.856-.503 1.746-.103 2.623.498 1.089 2.108 1.403 3.17.65.079-.056.158-.216.274-.096.095.1-.019.206-.09.288a2.75 2.75 0 0 1-1.742.952c-.112.015-.22.043-.331.066h-.303Z" clip-rule="evenodd"/><path fill="#F0E8D5" fill-rule="evenodd" d="M198.896 163.264c-.338-.092-.688-.133-1.011-.288-1.202-.578-1.841-1.813-1.567-3.056a2.784 2.784 0 0 1 2.752-2.167c.766.006 1.474.238 1.971.862.269.338.226.438-.188.543-.036.009-.073.022-.11.028-.199.03-.412.18-.584.094-.187-.094-.039-.333-.067-.507-.115-.715-.881-1.009-1.549-.573-.565.369-.805.933-.905 1.557-.053.327-.043.661.024.991.324 1.589 2.025 2.244 3.396 1.309.078-.054.156-.219.272-.097.096.102-.026.207-.094.287-.444.525-1.023.827-1.706.948-.111.02-.22.045-.33.069h-.304Zm9.942-.148c-.833.001-1.668.005-2.501.002-.107 0-.27.045-.299-.085-.035-.155.144-.13.24-.165.417-.153.56-.356.567-.893.01-.799.003-1.597.003-2.396 0-.971-.008-1.941.004-2.912.005-.365-.028-.677-.429-.856-.201-.089-.124-.224.051-.272.414-.111.831-.208 1.248-.307.174-.041.268.036.278.206.008.122.008.245.008.368 0 2.076-.002 4.153.001 6.229.002.606.207.812.829.86v.221Zm-21.26-6.549-.114-.014c-.489 1.15-.98 2.3-1.466 3.453-.087.209.054.194.195.159.783-.19 1.565-.382 2.348-.57.15-.036.22-.104.156-.26l-1.119-2.768Zm3.054 6.551c-.455 0-.91.002-1.365-.001-.085-.001-.205.01-.221-.096-.017-.115.105-.111.186-.135.554-.166.626-.281.469-.828-.183-.64-.426-1.261-.666-1.882-.087-.229-.216-.261-.434-.205-.869.219-1.738.434-2.611.639a.515.515 0 0 0-.395.355c-.139.382-.292.761-.414 1.148-.153.483-.021.668.497.768.111.021.312-.028.291.141-.017.145-.209.095-.328.096-.619.005-1.238.003-1.857-.001-.095-.001-.233.019-.245-.11-.009-.108.118-.108.2-.127.392-.094.629-.361.78-.699.859-1.929 1.708-3.862 2.567-5.791.113-.255.102-.436-.171-.582-.198-.106-.128-.224.049-.272.414-.111.832-.208 1.25-.306.272-.065.312.151.377.316.444 1.125.883 2.252 1.325 3.377.402 1.022.807 2.043 1.209 3.065.175.447.438.804.96.901.073.014.172.032.162.121-.012.109-.127.105-.211.106-.468.003-.936.001-1.404.002Zm-36.167-.74a1.789 1.789 0 0 1-.679.585 2.25 2.25 0 0 1-1.014.237c-.341 0-.656-.059-.946-.177a2.255 2.255 0 0 1-1.257-1.233c-.12-.286-.181-.6-.181-.942 0-.341.061-.655.181-.942a2.25 2.25 0 0 1 1.257-1.232c.29-.118.605-.177.946-.177.284 0 .569.055.853.164.284.11.527.291.73.544l-.407.297a1.08 1.08 0 0 0-.194-.215 1.427 1.427 0 0 0-.281-.19 1.867 1.867 0 0 0-.339-.133 1.368 1.368 0 0 0-.362-.05c-.293 0-.555.053-.788.158a1.785 1.785 0 0 0-.963 1.04 2.115 2.115 0 0 0-.129.736c0 .257.043.503.129.737a1.788 1.788 0 0 0 .963 1.04c.233.105.495.158.788.158.121 0 .241-.011.359-.032s.235-.057.349-.107c.114-.051.222-.119.322-.206.102-.086.195-.195.281-.326l.382.266Zm2.81.708a2.747 2.747 0 0 1-.016-.237 9.247 9.247 0 0 1-.003-.237h-.013a.964.964 0 0 1-.181.221 1.156 1.156 0 0 1-.245.174 1.382 1.382 0 0 1-.288.114 1.12 1.12 0 0 1-.301.041c-.387 0-.673-.1-.859-.3-.184-.2-.277-.486-.277-.857v-1.877h.426v1.637c0 .164.013.31.039.436.026.127.07.233.133.319a.569.569 0 0 0 .252.196c.105.045.237.067.397.067.022 0 .081-.009.181-.025a.805.805 0 0 0 .313-.14c.109-.075.208-.189.294-.341.086-.152.129-.362.129-.632v-1.517h.427v2.307c0 .08.002.181.009.304.007.122.014.237.023.347h-.44Zm1.454-2.035c0-.131-.003-.264-.01-.398-.006-.135-.011-.31-.016-.525h.42v.55h.013a.915.915 0 0 1 .129-.231.99.99 0 0 1 .481-.341 1.11 1.11 0 0 1 .359-.054c.12 0 .226.013.317.038l-.084.411a.738.738 0 0 0-.246-.032.888.888 0 0 0-.711.326.978.978 0 0 0-.226.622v1.669h-.426v-2.035Zm3.818.562c-.108 0-.243.005-.403.016a2.35 2.35 0 0 0-.466.076c-.148.04-.275.102-.381.186a.422.422 0 0 0-.159.348c0 .097.021.18.062.25a.497.497 0 0 0 .165.17.685.685 0 0 0 .229.095c.084.019.169.029.255.029a1 1 0 0 0 .404-.076.852.852 0 0 0 .288-.205.835.835 0 0 0 .171-.304 1.24 1.24 0 0 0 .054-.37v-.215h-.219Zm.219-.341v-.076c0-.51-.258-.765-.775-.765-.353 0-.661.116-.923.348l-.259-.297c.284-.287.71-.43 1.279-.43.147 0 .288.021.423.063a.955.955 0 0 1 .352.193c.1.086.179.195.24.325.06.131.09.287.09.468v1.321a5.217 5.217 0 0 0 .051.664h-.413a2.95 2.95 0 0 1-.038-.48h-.014c-.124.198-.272.34-.442.426-.17.087-.378.13-.623.13-.134 0-.263-.018-.388-.054a.978.978 0 0 1-.333-.164.848.848 0 0 1-.233-.272.79.79 0 0 1-.087-.376c0-.24.064-.429.191-.566a1.16 1.16 0 0 1 .478-.306c.191-.068.396-.11.614-.127.217-.017.417-.025.597-.025h.213Zm2.979-.765h-.872v1.745c0 .109.01.199.032.268a.37.37 0 0 0 .09.161.296.296 0 0 0 .14.079.66.66 0 0 0 .177.023 1.014 1.014 0 0 0 .439-.114l.02.385a1.392 1.392 0 0 1-.831.076.601.601 0 0 1-.241-.12.65.65 0 0 1-.181-.24.936.936 0 0 1-.071-.398v-1.865h-.64v-.379h.64v-.835h.426v.835h.872v.379Zm2.933.872c0-.282-.086-.51-.259-.685-.172-.175-.413-.263-.723-.263a1.13 1.13 0 0 0-.74.291 1.06 1.06 0 0 0-.232.303.76.76 0 0 0-.088.354h2.042Zm-2.055.342c.013.147.05.286.11.417a1.112 1.112 0 0 0 .582.562c.129.056.268.083.42.083.228 0 .425-.052.591-.155a1.16 1.16 0 0 0 .377-.357l.33.265c-.181.224-.38.384-.598.481a1.697 1.697 0 0 1-.7.145c-.225 0-.433-.039-.624-.117a1.46 1.46 0 0 1-.82-.818c-.08-.19-.12-.397-.12-.62 0-.223.039-.43.117-.62.077-.189.184-.354.322-.493s.3-.247.485-.325c.185-.078.386-.117.601-.117.228 0 .433.04.614.12.181.08.332.186.455.319s.216.289.281.468c.065.179.097.37.097.572v.19h-2.52Zm3.553-.114c0 .164.027.318.081.461a1.084 1.084 0 0 0 1.063.715 1.249 1.249 0 0 0 .866-.342c.107-.105.191-.229.252-.373.06-.143.091-.297.091-.461a1.16 1.16 0 0 0-.343-.835 1.249 1.249 0 0 0-.866-.341 1.18 1.18 0 0 0-.475.092 1.076 1.076 0 0 0-.588.622 1.305 1.305 0 0 0-.081.462Zm2.759 1.479h-.426v-.493h-.013a1.084 1.084 0 0 1-.246.259 1.512 1.512 0 0 1-.93.31 1.74 1.74 0 0 1-.649-.117 1.517 1.517 0 0 1-.507-.325 1.495 1.495 0 0 1-.333-.494 1.592 1.592 0 0 1-.12-.619c0-.223.041-.43.12-.62.08-.189.191-.354.333-.493.142-.139.311-.247.507-.325a1.74 1.74 0 0 1 .963-.085 1.405 1.405 0 0 1 .616.278c.095.072.177.158.246.259h.013v-2.314h.426v4.779Zm5.485-1.479c0-.164-.027-.318-.081-.462a1.076 1.076 0 0 0-.587-.622 1.184 1.184 0 0 0-.475-.092 1.209 1.209 0 0 0-.866.341c-.108.106-.192.23-.252.373a1.19 1.19 0 0 0-.091.462c0 .164.031.318.091.461.06.144.144.268.252.373.108.106.235.189.381.25.146.061.308.092.485.092.176 0 .334-.031.475-.092a1.064 1.064 0 0 0 .587-.623c.054-.143.081-.297.081-.461Zm-2.758-3.3h.426v2.314h.013c.069-.101.15-.187.245-.259a1.429 1.429 0 0 1 .617-.278 1.74 1.74 0 0 1 .963.085c.196.078.365.186.507.325.142.139.253.304.333.493.08.19.119.397.119.62 0 .223-.039.43-.119.619-.08.19-.191.355-.333.494a1.517 1.517 0 0 1-.507.325 1.74 1.74 0 0 1-.963.085 1.432 1.432 0 0 1-.617-.278 1.08 1.08 0 0 1-.245-.259h-.013v.493h-.426v-4.779Zm5.071 4.267.924-2.446h.517l-1.512 3.729c-.09.228-.206.409-.346.544-.139.135-.341.202-.603.202-.065 0-.131-.002-.198-.006a.79.79 0 0 1-.197-.038l.046-.404a.7.7 0 0 0 .323.069.46.46 0 0 0 .355-.139c.086-.093.161-.223.226-.392l.22-.569-1.24-2.996h.535l.95 2.446Z" clip-rule="evenodd"/></g></g><defs><clipPath id="a"><path fill="#fff" d="M63 125h146v40H63z"/></clipPath></defs></svg>