<svg xmlns="http://www.w3.org/2000/svg" width="272" height="290" fill="none"><path fill="#64234D" d="M0 0h272v290H0z"/><path fill="#FEFAF9" fill-rule="evenodd" d="M55.447 120.833c-4.305 1.141-7.524 4.179-8.959 8.454L46 130.743v28.567l.507 1.456c1.409 4.048 4.754 7.255 8.76 8.4 1.089.311 2.126.334 15.025.334h13.856l1.38-.476c4.16-1.437 7.055-4.389 8.452-8.622l.42-1.274.055-13.462c.063-15.354.08-15.121-1.344-18.108-.695-1.459-1.065-1.972-2.374-3.288-1.713-1.724-2.815-2.434-4.97-3.203l-1.44-.514-13.765-.039c-13.177-.037-13.823-.023-15.115.319Zm25.394 17.325 3.346 5.868-.51.909-.51.91-2.267.051c-1.247.028-2.24.111-2.209.184.032.073.528.963 1.103 1.979l1.044 1.846-.505.925-.504.924-2.294.002c-1.262.002-2.294.048-2.294.104 0 .055.492.962 1.093 2.016.601 1.053 1.052 2.025 1 2.16-.05.134-.301.579-.557.988l-.464.744-6.675-.048-6.675-.047-3.32-5.823-3.32-5.823.507-.954.506-.955 2.295-.001c1.262 0 2.294-.043 2.294-.096 0-.053-.5-.962-1.11-2.019l-1.108-1.923.524-.983.524-.983h2.205c1.212-.001 2.204-.046 2.204-.102 0-.055-.45-.889-1-1.853-.552-.964-1.017-1.804-1.036-1.866-.018-.062.194-.538.473-1.058l.506-.945h13.389l3.345 5.869Zm-15.497-3.849c0 .11.453 1.009 1.006 1.998l1.007 1.797 3.418.05 3.419.049 1.629 2.866 1.629 2.866h2.223c1.223 0 2.224-.046 2.224-.101 0-.164-5.075-9.06-5.367-9.407-.244-.29-.75-.318-5.728-.318-3.85 0-5.46.059-5.46.2Zm42.189 2.029c-.048.125-.065 4.035-.04 8.688l.047 8.462h3.419l.09-4.359.09-4.357.779-.601c.631-.487.942-.6 1.645-.6.583 0 1.004.113 1.29.347.424.347.425.361.481 5.011l.056 4.662 1.744-.052 1.743-.051v-10.19l-.45-.806c-1.136-2.035-4.089-2.241-6.497-.453l-.881.653v-6.582h-1.715c-1.206 0-1.741.068-1.801.228Zm-45.58 3.908c.034.079.536.982 1.115 2.007l1.054 1.864h2.23c1.227 0 2.227-.062 2.222-.137-.004-.075-.481-.955-1.06-1.956l-1.05-1.819-2.287-.052c-1.257-.028-2.258.014-2.224.093Zm7.28 1.096c.376.675.849 1.534 1.051 1.909l.368.681 2.294.001c1.262.001 2.295-.045 2.295-.101 0-.057-.466-.916-1.035-1.909l-1.035-1.805-2.31-.002-2.31-.002.683 1.228Zm55.455-.185c-2.767 1.051-4.237 3.465-4.065 6.673.097 1.799.528 2.854 1.667 4.085 1.26 1.363 2.281 1.753 4.594 1.754 1.816.001 1.935-.024 3.041-.631 2.401-1.316 3.597-4.02 3.073-6.944-.397-2.215-1.567-3.824-3.399-4.675-1.329-.618-3.649-.741-4.911-.262Zm26.375.008c-1.206.436-1.732.797-2.349 1.615-.453.6-.507.819-.507 2.05 0 1.154.069 1.477.421 1.976.55.778 1.755 1.379 3.538 1.762 2.75.591 3.329.883 3.329 1.675 0 .68-.939 1.151-2.3 1.151-1.33.001-2.091-.288-2.817-1.068-.291-.313-.637-.569-.771-.569-.46 0-2.029.917-2.029 1.186 0 .484 1.269 1.704 2.31 2.221.949.471 1.172.506 3.268.506 1.968 0 2.362-.053 3.149-.42 1.683-.784 2.457-1.845 2.462-3.376.009-2.292-1.079-3.28-4.531-4.118-2.552-.619-2.88-.783-2.88-1.444 0-1.439 2.736-1.679 4.21-.37.334.296.7.539.814.539.402 0 1.994-.919 1.994-1.152 0-.423-1.149-1.443-2.159-1.916-1.332-.623-3.784-.741-5.152-.248Zm12.875.092c-2.63 1.123-3.944 3.205-3.944 6.252 0 2.516 1.244 4.589 3.396 5.658.927.46 1.186.503 3.082.503 1.956 0 2.121-.03 3.031-.539.971-.544 2.608-2.186 2.502-2.509-.032-.096-.531-.377-1.11-.623l-1.053-.449-.651.638c-.805.791-1.398 1.025-2.596 1.024-1.556-.001-2.82-1.122-2.822-2.501l-.001-.591 4.004-.003c2.202-.002 4.117-.075 4.254-.163.397-.254.169-2.475-.377-3.681-1.017-2.246-2.599-3.282-5.167-3.384-1.304-.051-1.7.006-2.548.368Zm31.097-.228c-1.001.254-1.966.797-2.623 1.477-.584.604-.898 1.338-.67 1.569.067.068.704.263 1.416.435l1.295.313.54-.611c.714-.808 1.149-1.005 2.212-1.005 1.194 0 1.836.605 1.836 1.73 0 .748-.019.773-.675.882-.371.062-.987.114-1.368.115-.868.003-2.676.469-3.534.911-2.139 1.104-2.943 3.61-1.744 5.441 1.23 1.88 4.475 2.014 6.727.277l.585-.451.109.506c.061.278.141.608.18.733.048.159.532.228 1.601.228 1.463 0 1.536-.02 1.639-.433.059-.239.081-2.47.048-4.959-.055-4.27-.082-4.568-.46-5.283-.404-.765-.947-1.238-1.938-1.689-.659-.3-4.224-.428-5.176-.186Zm15.523.255a6.802 6.802 0 0 0-1.44 1.1l-.63.665-.09-.967-.09-.968-1.604-.053c-1.162-.038-1.645.012-1.752.182-.168.269-.209 11.61-.043 12.048.088.232.413.288 1.673.288.977 0 1.645-.083 1.78-.219.154-.156.216-1.299.216-3.989 0-3.77 0-3.771.456-4.319.591-.709 1.455-.986 2.839-.907l1.114.063v-3.276l-.81-.041c-.568-.029-1.051.088-1.619.393Zm7.436-.191c-1.102.364-1.921.928-2.827 1.947-1.101 1.238-1.462 2.365-1.454 4.534.006 1.504.07 1.862.499 2.755.271.565.861 1.371 1.311 1.791 1.214 1.131 2.202 1.513 4.154 1.605 2.38.112 3.4-.245 4.892-1.714.63-.62 1.11-1.235 1.066-1.366-.043-.131-.515-.416-1.049-.634l-.972-.394-.725.592c-1.057.863-1.404 1.004-2.471 1.004-1.656 0-2.777-.881-2.97-2.336l-.1-.757h3.994c2.522 0 4.129-.073 4.358-.197.329-.178.352-.307.237-1.319-.276-2.443-1.411-4.232-3.265-5.15-1.21-.598-3.44-.77-4.678-.361Zm-83.201.312c-.139.262-.183 1.834-.14 5.049.059 4.39.087 4.713.458 5.419.506.962 1.329 1.659 2.143 1.813 1.642.311 3.675-.285 4.639-1.362.493-.552.619-.48.681.39l.055.774h3.419v-12.374h-3.419l-.048 4.306-.048 4.305-.624.555c-1.162 1.031-2.84 1.128-3.335.192-.097-.183-.173-2.212-.173-4.6 0-2.35-.05-4.402-.11-4.561-.088-.232-.415-.288-1.703-.288-1.434 0-1.614.039-1.795.382Zm38.047-.122c-.058.151.78 2.958 1.861 6.239l1.966 5.966 1.37.053c1.167.045 1.395.004 1.536-.273.092-.18.592-1.718 1.112-3.42.52-1.701 1.008-3.162 1.084-3.246.076-.084.224.12.327.455l1.03 3.337c.462 1.501.925 2.835 1.029 2.965.129.161.584.218 1.464.182l1.276-.053 1.999-6.005c1.099-3.303 1.961-6.107 1.915-6.232-.055-.149-.474-.228-1.212-.228-.688 0-1.198.089-1.306.228-.098.125-.603 1.66-1.123 3.412-.519 1.751-1.01 3.307-1.091 3.457-.179.331-.056.658-1.267-3.366-.511-1.702-1.004-3.237-1.093-3.412-.132-.257-.405-.319-1.41-.319s-1.279.062-1.413.319c-.091.175-.581 1.71-1.089 3.412-.507 1.701-.973 3.216-1.034 3.366-.062.153-.632-1.322-1.301-3.366l-1.192-3.64-1.667-.052c-1.352-.042-1.687-.001-1.771.221Zm-5.557 2.004c.74.312 1.346 1.239 1.347 2.058l.001.591h-4.906l.105-.654c.272-1.69 1.92-2.643 3.453-1.995Zm54.015.199c.457.302 1.125 1.561 1.132 2.132.003.288-.235.318-2.515.318-2.857 0-2.824.022-2.134-1.419.651-1.358 2.296-1.841 3.517-1.031Zm-93.23.064c.954.588 1.245 1.466 1.245 3.751 0 1.742-.053 2.103-.415 2.789-.487.923-1.382 1.397-2.339 1.24-1.569-.257-2.266-1.499-2.261-4.029.004-2.137.555-3.491 1.597-3.922.626-.259 1.6-.183 2.173.171Zm-69.562 2.485c0 .054 1.233 2.265 2.74 4.913l2.741 4.814h5.638c3.1 0 5.604-.061 5.563-.136-.04-.075-.54-.976-1.11-2.002l-1.035-1.865-3.354-.005-3.355-.006-1.62-2.9-1.62-2.901-2.294-.005c-1.262-.003-2.294.039-2.294.093Zm6.838.067c0 .092.47.972 1.043 1.956l1.043 1.79 2.196.052c1.207.028 2.196-.005 2.196-.074 0-.068-.466-.97-1.035-2.004l-1.035-1.88-2.204-.003c-1.212-.001-2.204.072-2.204.163Zm6.955.699c.27.475.782 1.355 1.136 1.956l.644 1.091 2.29.051c1.26.028 2.29.001 2.29-.059 0-.061-.493-.964-1.096-2.007l-1.096-1.897h-4.66l.492.865Zm126.705 1.969c.061 1.272-.317 1.943-1.337 2.374-1.998.845-3.76-.653-2.569-2.184.497-.639 1.297-1.041 2.407-1.208 1.44-.217 1.44-.217 1.499 1.018Z" clip-rule="evenodd"/></svg>