<svg xmlns="http://www.w3.org/2000/svg" width="272" height="290" fill="none"><path fill="#9CC480" d="M0 0h272v290H0z"/><path fill="#fff" fill-rule="evenodd" d="M84.18 118.649c-.42 3.972-2.258 9.283-5.24 15.144-.913 1.796-1.591 3.385-1.508 3.532.083.148.06.185-.05.083-.181-.164-1.083.925-1.087 1.312-.008.781 14.216 1.151 19.403.504 10.383-1.294 20.963-4.179 30.319-8.269l1.091-.478-4.972-.173c-5.226-.182-9.711-.609-13.121-1.251-9.79-1.842-17.759-5.432-22.809-10.277L84.355 117l-.175 1.649Zm93.897 19.327c-.638.504-.87 1.693-.453 2.321.334.503 1.259.84 1.877.684 1.333-.336 1.732-1.913.737-2.912-.727-.73-1.321-.756-2.161-.093Zm-42.601 8.63v8.647h10.43v-2.923h-7.519v-4.384h6.792v-2.924h-6.792v-4.384h7.519v-2.68h-10.43v8.648Zm36.383-5.599v3.048l-1.003-.667c-.786-.522-1.363-.688-2.646-.761-2.012-.114-3.004.195-4.353 1.354-2.727 2.344-2.96 6.979-.48 9.545 1.441 1.492 2.258 1.834 4.399 1.842 1.704.007 1.95-.057 2.957-.769l1.097-.777.076.655c.071.622.141.655 1.409.655h1.334l.064-8.587.063-8.587h-2.917v3.049Zm-64.034.014c-11.526 3.996-24.178 5.04-34.928 2.882-2.551-.513-7.07-1.87-8.84-2.657-.259-.115.38.602 1.42 1.594 2.293 2.188 4.698 5.352 5.751 7.566.905 1.902.598 1.776 5.387 2.205 5.389.483 10.921-.196 16.235-1.993 3.485-1.178 9.195-4.117 13.173-6.78 3.504-2.346 5.577-3.934 5.077-3.89-.134.013-1.607.495-3.275 1.073Zm8.248 1.825c-1.659 1.425-6.478 4.574-9.582 6.262-7.774 4.23-16.488 7.153-25.225 8.463-1.468.22-4.96.529-7.762.686l-5.094.286 1.94.329c2.464.417 10.92 2.514 13.534 3.355 7.595 2.444 16.05 6.517 20.503 9.878.711.536 1.319.937 1.351.891.033-.045.19-1.288.349-2.762.705-6.532 2.505-12.467 5.948-19.609 1.176-2.439 3.925-7.144 4.778-8.176.444-.537.192-.402-.74.397Zm83.958-.227c-5.963 1.098-6.931 9.705-1.383 12.3 2.074.97 4.721.6 6.177-.862l.507-.509v1.705H208V142.83h-1.334c-1.325 0-1.334.005-1.334.742v.743l-.91-.727c-1.237-.99-2.622-1.295-4.391-.969Zm-48.025.7-1.006.732v-.61c0-.578-.072-.611-1.334-.611h-1.334v12.423H151l.001-3.593c.002-4.016.198-5.065 1.109-5.925.504-.475.884-.591 1.936-.591 1.107 0 1.413.105 1.981.675l.673.675.076 4.38.076 4.379h2.637v-4.514c0-4.813-.163-5.686-1.285-6.893-.886-.954-1.74-1.259-3.517-1.259-1.476 0-1.793.086-2.681.732Zm25.675 5.723v6.211h2.668V142.83h-2.668v6.212Zm4.366-6.12c0 .075 2.776 6.564 4.644 10.854.392.9.423 1.196.186 1.771-.402.974-1.582 1.899-2.423 1.899-.7 0-.709.018-.709 1.371v1.371l1.273-.162c1.53-.194 2.948-1.106 3.839-2.468.53-.809 5.568-13.986 5.562-14.545-.001-.101-.63-.182-1.397-.182l-1.394.001-1.444 4.156c-.793 2.286-1.519 4.203-1.613 4.261-.093.058-.739-1.333-1.434-3.092-.695-1.758-1.475-3.676-1.733-4.262l-.469-1.065h-1.444c-.794 0-1.444.041-1.444.092Zm-11.775 2.825c1.082.673 1.588 1.696 1.586 3.21-.001 2.276-1.476 3.858-3.6 3.859-2.108.002-3.634-1.296-3.857-3.281-.38-3.382 3.009-5.568 5.871-3.788Zm33.562.171c1.528 1.172 1.898 3.089.952 4.942-1.2 2.351-4.338 2.672-6.23.637-.806-.866-1.009-3.262-.376-4.442 1.072-2 3.809-2.55 5.654-1.137Z" clip-rule="evenodd"/></svg>