<svg xmlns="http://www.w3.org/2000/svg" width="318" height="318" fill="none"><path fill="#090953" d="M0 0h318v318H0z"/><path fill="#fff" d="m139.54 149 8.477-26.166h6.67L163.2 149h-5.491l-1.658-5.491h-9.398L144.995 149h-5.455Zm8.071-9.545h7.481l-3.648-12.088h-.074l-3.759 12.088Zm28.361-9.766c3.501 0 5.638 2.248 5.638 6.081V149h-4.791v-12.309c0-1.916-1.068-3.059-2.8-3.059-2.322 0-3.833 1.622-3.833 4.201V149h-4.828v-18.795h4.054l.626 2.837h.037c1.179-2.137 3.28-3.353 5.897-3.353Zm14.106 19.753c-3.575 0-6.081-2.064-6.081-5.38 0-3.354 2.617-5.676 7.518-6.192l2.985-.331c.885-.074 1.548-.664 1.548-1.696 0-1.584-1.4-2.579-3.28-2.579-2.285 0-3.759 1.732-3.833 3.722l-4.422-1.032c.147-3.575 3.427-6.376 8.292-6.376s7.923 2.801 7.923 7.002V149h-4.275l-.516-2.617h-.036c-1.18 1.954-3.244 3.059-5.823 3.059Zm1.769-3.648c2.358 0 4.09-1.769 4.09-4.386v-.958l-3.316.369c-2.617.294-3.796 1.363-3.796 2.764 0 1.4 1.253 2.211 3.022 2.211Zm22.815-16.105c3.501 0 5.639 2.248 5.639 6.081V149h-4.791v-12.309c0-1.916-1.069-3.059-2.801-3.059-2.322 0-3.833 1.622-3.833 4.201V149h-4.828v-18.795h4.054l.627 2.837h.037c1.179-2.137 3.28-3.353 5.896-3.353Zm15.986 19.864c-4.607 0-7.629-3.87-7.629-9.951 0-6.117 3.022-9.95 7.629-9.95 2.506 0 4.496 1.216 5.638 3.354h.037v-11.278h4.828V149h-4.128l-.552-2.911h-.037c-1.106 2.248-3.243 3.464-5.786 3.464Zm1.511-4.238c2.653 0 4.348-2.248 4.348-5.713 0-3.464-1.695-5.712-4.348-5.712-2.617 0-4.349 2.248-4.349 5.712 0 3.501 1.732 5.713 4.349 5.713Zm15.068-18.022c-1.769 0-2.985-1.179-2.985-2.948 0-1.732 1.216-2.911 2.985-2.911 1.806 0 3.022 1.179 3.022 2.911 0 1.769-1.216 2.948-3.022 2.948ZM244.795 149v-18.795h4.827V149h-4.827Zm-95.157 39.774c-5.823 0-9.877-3.685-10.171-9.029l3.022-.59c.147 4.128 3.169 6.892 7.223 6.892 3.575 0 5.786-2.064 5.786-4.717 0-2.175-1.401-3.575-4.681-4.57l-4.017-1.217c-4.164-1.289-6.044-3.39-6.044-6.817 0-4.312 3.022-7.482 7.998-7.482 4.754 0 7.96 3.059 8.329 7.592l-2.949.7c-.147-3.353-2.321-5.565-5.343-5.565-3.059 0-4.976 1.917-4.976 4.423 0 2.174 1.253 3.464 4.165 4.349l4.017 1.216c4.459 1.327 6.56 3.501 6.597 7.076 0 4.385-3.354 7.739-8.956 7.739Zm18.744-.147c-5.27 0-8.698-3.944-8.698-9.914 0-6.007 3.243-9.951 8.108-9.951 3.722 0 6.634 2.506 7.444 6.339l-2.69.7c-.626-2.764-2.506-4.533-4.754-4.533-3.133 0-5.307 2.912-5.307 7.445 0 4.496 2.396 7.407 5.897 7.407 2.874 0 5.122-2.137 5.601-5.417l2.691.627c-.664 4.385-3.98 7.297-8.292 7.297Zm10.125-.627v-27.087h2.801v11.019h.037c1.216-1.99 3.316-3.133 6.044-3.133 3.648 0 5.822 2.322 5.822 6.302V188h-2.8v-12.678c0-2.543-1.475-4.09-3.833-4.09-3.17 0-5.27 2.137-5.27 5.454V188h-2.801Zm25.545.627c-5.344 0-8.808-3.907-8.808-9.951 0-6.007 3.464-9.914 8.808-9.914 5.343 0 8.808 3.907 8.808 9.914 0 6.044-3.465 9.951-8.808 9.951Zm0-2.543c3.648 0 6.007-2.912 6.007-7.408 0-4.459-2.359-7.334-6.007-7.334-3.649 0-6.008 2.875-6.008 7.334 0 4.496 2.359 7.408 6.008 7.408Zm19.093 2.543c-5.344 0-8.808-3.907-8.808-9.951 0-6.007 3.464-9.914 8.808-9.914 5.344 0 8.808 3.907 8.808 9.914 0 6.044-3.464 9.951-8.808 9.951Zm0-2.543c3.648 0 6.007-2.912 6.007-7.408 0-4.459-2.359-7.334-6.007-7.334-3.649 0-6.007 2.875-6.007 7.334 0 4.496 2.358 7.408 6.007 7.408ZM234.167 188v-27.087h2.801V188h-2.801Z"/><path fill="#491A8A" d="M73.839 166.751v7.577l-3.935 4.769a27.91 27.91 0 0 1-2.965-6.653l6.9-5.693Zm46.082 5.693a27.878 27.878 0 0 1-2.965 6.653l-3.935-4.769v-7.577l6.9 5.693Z"/><path fill="#D9D9D9" d="m86.7 137.833-7.982-15.123h6.254l3.503 11.548-1.775 3.575Zm-3.595 7.234-17.315-9.254v6.229l16.313 5.042 1.002-2.017Zm25.222-22.357h-6.281l-3.608 11.672 1.76 3.539 8.129-15.211Zm-3.545 24.431 16.288-4.942v-6.202l-17.292 9.127 1.004 2.017ZM91.65 169.166l-2.197 22.929a27.29 27.29 0 0 0 7.953 0l-2.197-22.929h-3.56Z"/><path fill="#903FF4" d="M85.274 140.701 70.43 122.71h-4.64v5.069l18.373 15.159 1.111-2.237Zm-7.231 14.553-12.253 3.718v5.542c0 .219.004.437.009.654l9.92-5.235 2.324-4.679Zm38.388-32.544-14.849 17.995 1.112 2.236 18.376-15.162v-5.069h-4.639Zm-5.211 37.383 9.836 5.257c.009-.278.014-.555.014-.835v-5.386l-12.204-3.772 2.354 4.736Z"/><path fill="#FC6F55" d="m80.956 149.39-15.166-1.453v5.297l13.92-1.334 1.246-2.51Zm14.138-16.176 1.007-10.504H90.76l1.006 10.504h3.328Zm12.053 18.686 13.923 1.334v-5.297l-15.17 1.453 1.247 2.51Zm-32.208 33.285a27.82 27.82 0 0 0 6.439 4.394l5.247-16.978h-4.961l-6.725 12.584Zm25.171-12.584 5.18 17.071a27.811 27.811 0 0 0 6.474-4.348l-6.714-12.723h-4.94Z"/><path fill="#D9D9D9" fill-rule="evenodd" d="M95.729 136.649h-4.605l-13.85 27.872v4.644h6.943l9.21-27.872 9.216 27.872h6.942v-4.644l-13.856-27.872Z" clip-rule="evenodd"/></svg>