<svg xmlns="http://www.w3.org/2000/svg" width="272" height="290" fill="none"><path fill="#59C0C2" d="M0 0h272v290H0z"/><path fill="#fff" fill-rule="evenodd" d="m136.476 118.455-2.706.955v6.199l-1.454-.092-1.454-.093v4.898h2.747l.006 8.766c.005 9.301.083 10.476.777 11.812 1.028 1.98 3.222 2.886 6.54 2.7 2.591-.145 5.184-1.114 5.747-2.148.23-.421.455-2.019.583-4.143l.11-1.814-.958.955c-1.209 1.206-2.241 1.906-3.408 2.31-1.8.623-3.189.083-3.566-1.388-.117-.455-.177-3.472-.177-8.87v-8.18h2.953c3.217 0 3.44-.053 3.904-.934.221-.419.809-3.966.679-4.093-.034-.034-.38.018-.77.114-.389.096-2.069.215-3.734.264l-3.026.089-.043-4.131-.044-4.131-2.706.955Zm-59.33 7.09c-1.418.347-2.487.814-3.496 1.525-.432.305-.848.555-.925.555-.076 0-.177-.468-.224-1.04-.047-.572-.127-1.082-.179-1.133-.052-.05-1.405.364-3.007.921-2.316.806-2.892 1.063-2.807 1.252.059.131.256.738.439 1.348.32 1.07.332 1.493.338 11.424.007 10.669-.004 10.88-.645 12.495-.103.259.129.277 3.533.277h3.644l-.312-.889c-.49-1.4-.64-4.277-.64-12.299v-7.43l.848-.662c.467-.365 1.393-.919 2.06-1.233 1.14-.537 1.306-.571 2.827-.571 1.325-.001 1.732.059 2.262.33.711.365 1.272 1.069 1.552 1.951.26.822.364 9.396.174 14.536-.136 3.693-.205 4.415-.498 5.231-.187.52-.34.966-.34.991 0 .025 1.636.045 3.635.045 2 0 3.634-.017 3.633-.039a30.602 30.602 0 0 0-.357-1.071c-.348-1.008-.357-1.245-.413-10.292l-.057-9.26.37-.386c.57-.597 1.893-1.399 2.963-1.797 1.368-.51 3.755-.544 4.685-.067.86.44 1.303 1.121 1.518 2.338.22 1.245.236 14.278.02 17.005-.083 1.047-.263 2.216-.4 2.598-.137.382-.25.756-.25.833 0 .076 1.609.138 3.574.138h3.573l-.104-.357a208.77 208.77 0 0 0-.365-1.229c-.223-.745-.278-2.36-.375-11.027-.082-7.361-.169-10.329-.314-10.789-.905-2.864-3.823-4.522-7.96-4.522-2.741 0-5.192.699-7.241 2.066l-.998.665-.46-.548c-.573-.684-2.32-1.589-3.718-1.927-1.408-.34-4.08-.319-5.563.044Zm37.53.013c-.772.16-1.681.378-2.019.484-1.072.337-2.726 1.259-3.296 1.837-.503.51-.549.637-.53 1.461a8.29 8.29 0 0 0 .274 1.775c.139.48.332 1.175.429 1.544l.176.671 1.16-.957c2.066-1.703 4.285-2.537 6.776-2.545 1.763-.006 2.648.332 3.215 1.228.354.56.394.816.444 2.85l.055 2.235-2.016.264c-2.56.335-4.49.885-6.242 1.778-1.708.87-2.698 1.692-3.555 2.951-.949 1.397-1.364 2.861-1.364 4.816 0 3.521 1.588 6.123 4.424 7.251.768.305 1.194.354 3.15.359 2.719.007 3.971-.307 5.666-1.423.595-.392 1.101-.713 1.125-.713.025 0 .244.335.488.744 1.11 1.859 1.569 1.89 4.302.296l2.025-1.182-.841-.852c-1.477-1.498-1.425-1.11-1.537-11.381-.063-5.648-.163-9.143-.27-9.445-.796-2.233-2.359-3.513-5.012-4.101-1.618-.359-5.162-.331-7.027.055Zm38.584.734c-1.499.549-2.766 1.039-2.816 1.089-.05.049.036.485.191.97.449 1.398.575 4.056.579 12.205.004 7.718-.128 10.456-.563 11.667-.132.368-.241.731-.241.808 0 .076 1.608.138 3.572.138 3.339 0 3.563-.018 3.45-.277-.609-1.401-.625-1.661-.682-11.086l-.056-9.221.752-.65c1.349-1.167 3.6-1.704 5.158-1.231.443.134.848.192.902.129.098-.116 1.012-3.094 1.187-3.872.14-.62-.14-1.188-.736-1.49-.42-.214-.825-.25-2.067-.187-1.86.095-2.862.449-4.416 1.56-.7.5-1.118.711-1.158.583-.034-.109-.122-.634-.197-1.167l-.135-.968-2.724 1Zm17.605-.008c-1.678.557-3.077 1.04-3.11 1.072-.032.032.104.623.302 1.314.358 1.242.362 1.37.364 11.727.003 10.956.011 10.802-.664 12.529-.084.215.338.243 3.557.243 2.009 0 3.651-.017 3.65-.039a28.798 28.798 0 0 0-.361-1.071c-.358-1.028-.36-1.074-.409-13.923-.027-7.09-.101-12.886-.164-12.879-.062.007-1.487.469-3.165 1.027Zm7.817-.617c0 .058.423.612.939 1.23 1.758 2.105 5.449 7.209 8.184 11.315l.447.67-1.497 1.631c-3.925 4.273-6.606 8.208-8.058 11.827l-.333.829h6.552l.221-.976c.478-2.116 2.737-5.81 5.273-8.62l.823-.912 1.051 1.486c4.066 5.751 4.977 7.274 4.977 8.325v.697h4.119c2.266 0 4.12-.057 4.12-.127s-.262-.374-.581-.674c-1.102-1.037-3.08-3.587-6.431-8.29l-3.361-4.718 1.058-1.101c3.489-3.633 6.313-7.729 7.688-11.154.273-.679.496-1.305.496-1.392 0-.101-1.092-.142-3.016-.115l-3.017.044-.217.941c-.443 1.917-1.752 4.053-4.477 7.305-.697.831-1.324 1.511-1.395 1.511-.148 0-3.087-4.094-4.114-5.729-.611-.973-1.17-2.392-1.447-3.671l-.094-.437h-3.955c-2.175 0-3.955.048-3.955.105Zm-57.352 17.705c-.001 1.418-.072 2.828-.158 3.134-.384 1.352-2.044 2.491-3.87 2.654-2.359.21-3.92-1.368-3.675-3.715.28-2.687 2.876-4.308 7.421-4.631.259-.018.283.2.282 2.558Zm14.222 23.403-.005 5.434h1.293v-3.821c0-2.102.063-3.798.14-3.768.077.029 1.835 1.802 3.907 3.94s3.826 3.911 3.899 3.94c.072.029.132-2.345.132-5.276v-5.328h-1.293l-.002 3.847-.003 3.848-1.253-1.269c-.689-.698-2.504-2.555-4.032-4.126l-2.778-2.855-.005 5.434Zm-36.97-4.617c-.282.547-3.081 6.518-4.247 9.059l-.455.992h1.386l.581-1.269.581-1.27h4.959l.562 1.268.561 1.267.704.002c.498.001.68-.056.623-.196-.168-.417-4.834-10.356-4.885-10.408-.03-.03-.196.219-.37.555Zm82.523-.437c-.742.152-1.111.361-1.688.957-.403.416-.488.649-.543 1.496-.061.954-.037 1.035.477 1.612.359.402 1.008.818 1.916 1.228 1.823.824 2.262 1.239 2.262 2.139 0 .38-.106.893-.235 1.138-.251.476-1.116.966-1.704.966-.868 0-1.939-.911-1.939-1.651 0-.266-.311-.315-.944-.149-.325.086-.365.169-.279.59.496 2.439 4.245 3.196 5.804 1.172a3.305 3.305 0 0 0 .319-3.495c-.31-.603-1.243-1.234-2.59-1.753-1.36-.524-1.88-1.009-1.859-1.731.037-1.289 2.123-1.862 3.092-.85.35.367.379.37.832.117.559-.312.564-.343.153-.856-.594-.742-1.965-1.157-3.074-.93Zm-98.385 5.314v5.174h1.292v-4.216l1.29-.169c2.19-.288 3.072-1.156 3.072-3.019 0-1.254-.382-1.924-1.385-2.432-.659-.333-1.057-.404-2.526-.454l-1.743-.058v5.174Zm27.787.017v5.157h1.292v-2.233c0-1.994.029-2.227.268-2.182.147.029.965 1.032 1.817 2.23l1.55 2.179.787.003c.604.002.752-.043.635-.195-.762-.989-3.118-4.228-3.118-4.288 0-.042.208-.116.462-.166.619-.122 1.47-.847 1.741-1.484.282-.663.282-1.821 0-2.484-.281-.66-1.075-1.317-1.845-1.527-.33-.091-1.273-.165-2.095-.165l-1.494-.001v5.156Zm12.278-4.601v.556h2.423v9.202h1.293v-9.202h2.584v-1.111h-6.3v.555Zm29.887 4.601v5.157h5.654v-1.111h-4.361v-3.966h4.2v-1.111h-4.2v-3.014h4.361v-1.111h-5.654v5.156Zm12.924-.013v5.17h1.293v-2.221c0-1.87.038-2.222.242-2.222.25 0 .956.885 2.504 3.139l.889 1.293.777.006c.579.004.746-.046.656-.193a103.93 103.93 0 0 0-1.622-2.221l-1.501-2.022.6-.246c1.232-.506 1.839-1.391 1.851-2.699.006-.633-.097-1.021-.411-1.548-.621-1.039-1.253-1.286-3.46-1.352l-1.818-.054v5.17Zm-79.48-3.775c1.077.424 1.437 1.543.816 2.542-.329.53-.847.753-2.153.926l-.767.102v-3.827h.724c.398 0 1.019.115 1.38.257Zm27.49-.093c.328.089.79.389 1.027.666.364.424.419.612.352 1.195-.046.409-.224.843-.434 1.063-.371.387-1.413.719-2.258.719h-.494v-3.807h.606a5.52 5.52 0 0 1 1.201.164Zm55.386.093c.747.294 1.128.872 1.128 1.715 0 1.072-1.106 1.82-2.706 1.832l-.525.003v-3.807h.724c.398 0 1.018.115 1.379.257Zm-69.169 3.035c.459 1.025.833 1.917.832 1.983-.002.066-.81.119-1.797.119-1.583 0-1.783-.03-1.695-.255.404-1.033 1.65-3.706 1.729-3.709.054-.001.473.836.931 1.862Z" clip-rule="evenodd"/></svg>