<svg xmlns="http://www.w3.org/2000/svg" width="272" height="290" fill="none"><path fill="#396255" d="M0 0h272v290H0z"/><path fill="#fff" fill-rule="evenodd" d="M209.956 127.52c0 .561.132.939.294.839.161-.099.294-.558.294-1.02 0-.461-.133-.839-.294-.839-.162 0-.294.459-.294 1.02Zm-1.172.652c.116.187.352.253.524.147.465-.285.379-.485-.211-.485-.288 0-.429.152-.313.338Zm2.384.995c.021.734.155 1.335.299 1.335s.278-.601.298-1.335c.021-.733-.113-1.334-.298-1.334s-.319.601-.299 1.334Zm-3.563 0c0 .183.161.333.356.333.195 0 .262-.15.148-.333-.114-.183-.274-.333-.355-.333-.082 0-.149.15-.149.333Zm1.176 0c-.114.183-.048.333.148.333.195 0 .355-.15.355-.333 0-.183-.066-.333-.148-.333-.081 0-.241.15-.355.333Zm1.175 0a.335.335 0 0 0 .671 0 .335.335 0 0 0-.671 0Zm2.658-.25c-.186.555-.135 1.65.083 1.784.155.095.281-.287.281-.848 0-.56-.076-1.019-.168-1.019-.092 0-.181.037-.196.083Zm-29.125 1.177c-3.071.07-4.103.199-4.002.5.075.224.415.46.756.526.807.155 1.507.863 1.507 1.524 0 .288.151.524.336.524.218 0 .336 4.65.336 13.283 0 15.132-.037 15.387-2.252 15.387-1.251 0-2.232-.814-3.175-2.634-.247-.477-.54-.941-.651-1.033-.112-.092-.482-.767-.822-1.5-.341-.734-.708-1.409-.816-1.501-.355-.302-2.693-4.375-2.693-4.691 0-.17-.152-.309-.336-.309-.185 0-.336-.225-.336-.5s-.134-.5-.296-.5c-.164 0-.38-.316-.482-.701-.246-.934 3.898-5.086 5.996-6.007.824-.362 1.498-.801 1.498-.976 0-.186-2.007-.317-4.869-.317-4.598 0-6.166.325-3.817.792 1.494.296 2.327 1.355 2.07 2.63-.203 1.007-4.414 5.579-5.139 5.579a.334.334 0 0 0-.333.333c0 .184-.303.334-.672.334-.657 0-.672-.223-.672-10.335v-10.335h-4.522c-3.882 0-4.495.071-4.329.5.106.275.414.5.685.5.27 0 .68.188.91.417 1.084 1.08 1.212 2.686 1.212 15.128 0 10.658-.077 12.638-.54 13.786-.42 1.041-.719 1.34-1.343 1.34-.476 0-.803.196-.803.481 0 .401.934.482 5.54.482 4.607 0 5.541-.081 5.541-.482 0-.284-.326-.481-.799-.481-1.423 0-1.577-.594-1.477-5.713l.093-4.788 1.092 1.036c.6.57 1.091 1.282 1.091 1.583 0 .301.123.548.273.548.15 0 .481.525.734 1.167.254.641.569 1.166.701 1.166s.519.675.861 1.499c.341.825.734 1.5.873 1.5.138.001.251.452.251 1.002s-.151 1-.335 1c-.185 0-.336.225-.336.5 0 .434 1.38.5 10.409.5s10.409-.066 10.409-.5c0-.284-.301-.5-.695-.5-1.453 0-1.655-.668-1.655-5.477 0-3.535.097-4.524.445-4.524.633 0 1.641 1.231 2.595 3.167.452.917.935 1.717 1.073 1.778.139.061.252.398.252.75 0 .351.121.639.269.639.397 0 1.791 2.991 1.564 3.355-.106.172-.411.312-.678.312a.493.493 0 0 0-.483.5c0 .422.765.5 4.868.5 5.033 0 5.551-.158 4.254-1.294-.338-.297-1.05-1.289-1.582-2.206s-1.087-1.717-1.232-1.778c-.145-.062-.264-.399-.264-.75 0-.352-.151-.639-.336-.639-.185 0-.336-.225-.336-.5s-.113-.501-.252-.501c-.138-.001-.686-.826-1.216-1.834-.531-1.008-1.097-1.833-1.259-1.833-.162 0-.295-.287-.295-.639 0-.351-.113-.689-.252-.75-.138-.061-.519-.589-.845-1.173l-.594-1.062 2.126-2.152c1.169-1.184 2.909-2.56 3.867-3.057.958-.498 1.742-1.039 1.742-1.203 0-.164-2.191-.298-4.869-.298-4.602 0-6.166.325-3.809.793 1.53.304 1.963.793 1.963 2.217 0 1.111-.279 1.546-2.321 3.627-1.276 1.3-2.485 2.364-2.686 2.364-.201 0-.366.15-.366.333 0 .184-.302.334-.672.334-.657 0-.671-.223-.671-10.299 0-7.954-.096-10.327-.42-10.419-.231-.065-2.281-.076-4.557-.025Zm22.773.413c0 .202.375.25.924.12 1.318-.314 1.362-.46.14-.46-.585 0-1.064.153-1.064.34Zm2.522-.001c.116.186.352.253.524.147.465-.286.379-.486-.211-.486-.288 0-.429.153-.313.339Zm1.172-.005a.335.335 0 0 0 .671 0 .335.335 0 0 0-.671 0Zm3.694 0a.335.335 0 0 0 .671 0 .336.336 0 0 0-.671 0Zm-6.38 2.166c-.367.44-.003.501 2.981.501 1.869 0 3.399-.134 3.399-.298 0-.509-.97-.703-3.512-.703-1.769 0-2.567.139-2.868.5Zm.068 1.785c-.964.607.448 1.003 3.223.904 2.867-.103 3.595-.333 2.743-.868-.61-.383-5.369-.412-5.966-.036Zm-143.111.378c-.277.176-1.367.417-2.422.537l-1.918.218-.097 2.708-.096 2.709-1.847.185-1.847.186 1.847.148 1.847.148.167 9.168c.177 9.656.27 10.233 1.817 11.334.892.636 2.839 1.322 3.767 1.329 1.708.012 4.215-1.572 5.107-3.227.591-1.097.051-1.15-.852-.084-.683.807-1.09.982-2.274.982-1.212 0-1.474-.12-1.645-.75-.318-1.181-.235-18.033.093-18.546.218-.342.692-.4 1.846-.229.854.127 1.89.11 2.303-.04.546-.196.061-.316-1.767-.437l-2.518-.167v-3.251c0-3.391-.19-3.758-1.511-2.921Zm143.08 1.886c-.723.811.077 1.109 2.985 1.109 2.937 0 3.752-.313 2.932-1.127-.749-.743-5.25-.73-5.917.018ZM78.33 140.827c-.278.158-.991.466-1.587.684-1.411.519-2.21 1.233-2.928 2.618-.551 1.062-.552 1.199-.016 2.379.312.688.922 1.439 1.354 1.669 1.105.587 2.842.16 3.789-.932 1.092-1.259.794-3.142-.701-4.438l-1.073-.93.938-.354c1.857-.701 4.924-.179 4.924.838 0 .23.19.482.42.558.294.097.42 1.033.42 3.127 0 2.802-.056 3.043-.908 3.889-.5.496-1.142.902-1.428.902-.285 0-.518.15-.518.333 0 .183-.378.333-.84.333-.461 0-.84.15-.84.334 0 .183-.292.333-.65.333-.36 0-.746.15-.86.333-.114.184-.49.334-.836.334-.345 0-.854.225-1.13.5-.278.275-.608.5-.735.5s-.742.554-1.367 1.232c-1.031 1.118-1.137 1.42-1.137 3.26 0 1.241.19 2.298.492 2.725 1.724 2.443 7.32 2.369 9.855-.13.832-.819 1.406-.74 1.406.195 0 1.56 4.79 2.341 7.252 1.181 1.273-.6 1.494-1.129.47-1.129-.369 0-.671.15-.671.334 0 .484-.644.408-1.2-.143-.389-.387-.479-2.014-.479-8.673 0-5.946-.115-8.396-.42-8.924-1.365-2.37-3.432-3.269-7.45-3.243-1.674.01-3.27.148-3.547.305Zm23.336.008c-.118.19-1.794.334-3.881.334-2.02 0-3.674.12-3.674.266 0 .147.53.456 1.175.688.647.232 1.176.638 1.176.901s.15.478.335.478c.215 0 .336 2.876.336 7.961 0 8.944-.236 10.24-1.9 10.436-.496.058-.952.256-1.012.439-.07.214 2.175.34 6.27.351 5.025.013 6.38-.075 6.38-.417 0-.285-.468-.434-1.367-.434-2.517 0-2.713-.663-2.681-9.059.025-6.251.203-8.277.728-8.277.164 0 .298-.156.298-.348 0-.509 1.366-1.756 2.45-2.236 1.218-.54 1.243-.534 1.243.251 0 .366-.132.667-.295.667-.504 0-1.135 1.944-.914 2.818.523 2.067 3.099 2.865 4.724 1.463 2.715-2.344 1.21-6.615-2.332-6.615-1.952 0-4.876 1.585-4.876 2.643 0 .197-.321.357-.714.357-.613 0-.685-.14-.512-.996.303-1.506-.35-2.646-.957-1.671Zm19.644 0c-.277.178-2.091.335-4.03.348-2.875.02-3.405.098-2.874.422.359.218 1.001.728 1.427 1.132.772.731.776.781.776 9.442 0 9.283-.065 9.659-1.655 9.659-.383 0-.696.189-.696.42 0 .321 1.47.431 6.23.469 4.583.036 6.195-.053 6.102-.337-.07-.212-.629-.434-1.242-.493-1.184-.115-1.68-.465-2.306-1.627-.468-.868-.528-12.606-.075-14.544.315-1.345 1.623-2.93 3.063-3.71 1.313-.711 1.805-.163.81.902-.541.58-.826 1.27-.819 1.986.011 1.157.641 2.265 1.286 2.265.21 0 .382.15.382.334 0 .183.605.333 1.344.333.738 0 1.343-.15 1.343-.333 0-.184.162-.334.359-.334.198 0 .576-.214.84-.476.601-.596.632-4.149.042-4.858-1.468-1.766-4.653-1.806-6.541-.083-.251.229-.587.417-.746.417-.159 0-.385.3-.502.667-.117.366-.469.666-.781.666-.466 0-.546-.267-.447-1.5.125-1.56-.208-1.861-1.29-1.167Zm18.468-.019c-.277.152-.957.473-1.511.716-1.298.566-2.519 1.631-2.519 2.195 0 .243-.151.442-.336.442-.46 0-.423 1.881.055 2.772.58 1.081 1.329 1.54 2.532 1.551 2.182.022 3.457-1.183 3.457-3.265 0-1.074-.842-2.391-1.53-2.391-.817 0-.537-.997.377-1.342 1.626-.614 3.104-.392 4.179.627.97.921 1.003 1.055.993 3.918-.01 2.918-.388 4.131-1.285 4.131-.211 0-.383.15-.383.333 0 .184-.302.334-.672.334-.369 0-.671.15-.671.333 0 .183-.229.333-.509.333-.279 0-.77.135-1.091.299-.321.165-1.263.575-2.094.912-.831.338-1.887.953-2.347 1.368-.46.415-.933.755-1.053.755-.119 0-.461.511-.759 1.134-1.103 2.308-.376 5.222 1.596 6.395 2.128 1.266 6.667.559 8.345-1.301.618-.683 1.605-.554 1.605.211 0 2.071 6.118 2.507 7.89.563.67-.735.225-.899-.868-.318-.495.263-.78.227-1.153-.143-.409-.406-.496-1.841-.496-8.142 0-4.208-.095-8.124-.212-8.702-.249-1.235-2.261-3.365-3.179-3.365-.351 0-.638-.15-.638-.334 0-.404-6.986-.421-7.723-.019Zm67.658 1.103c-.081.229-.19 4.553-.241 9.609-.082 8.082-.161 9.26-.657 9.751-.31.307-.876.559-1.259.559-.383 0-.696.191-.696.423 0 .326 1.317.424 5.709.424 4.391 0 5.708-.098 5.708-.424 0-.232-.313-.423-.695-.423-1.605 0-1.655-.317-1.655-10.442 0-8.345-.065-9.514-.532-9.692-1.032-.393-5.526-.223-5.682.215Zm-123.66 8.668c.08.229.119 2.25.086 4.49-.057 3.856-.103 4.109-.865 4.739-.926.765-3.16.919-3.768.259-1.183-1.284-1.588-3.225-.939-4.492.163-.319.474-.954.69-1.413.218-.458.927-1.208 1.578-1.667.65-.458 1.51-1.161 1.912-1.563.852-.854 1.107-.923 1.306-.353Zm60.865 9.167c-1.12.964-2.733.975-3.751.026-.635-.593-.777-1.07-.777-2.618 0-2.317.777-3.6 3.19-5.27.924-.639 1.755-1.326 1.847-1.525.092-.201.212 1.661.265 4.137.097 4.483.094 4.503-.774 5.25Z" clip-rule="evenodd"/></svg>