<svg xmlns="http://www.w3.org/2000/svg" width="272" height="290" fill="none"><path fill="#170D2C" d="M0 0h272v290H0z"/><path fill="#fff" fill-rule="evenodd" d="M65.49 133.083c-1.095.282-2.03 1.17-2.405 2.286-.208.619-.208 1.557 0 2.176a3.84 3.84 0 0 0 .931 1.468l.286.269-3.202 5.367-3.202 5.368-.506.086a3.482 3.482 0 0 0-2.892 3.427c0 1.581 1.113 3.012 2.624 3.375 1.158.279 2.322-.064 3.175-.934 1.34-1.366 1.36-3.413.047-4.844l-.394-.429.117-.207a8.061 8.061 0 0 1 1.448-1.901c1.4-1.375 2.732-2.007 4.395-2.086 1.625-.077 3.062.407 4.505 1.515.755.58 1.741 1.615 2.055 2.156.13.226.238.419.238.43 0 .01-.199.225-.441.476-1.056 1.096-1.308 2.602-.663 3.97.282.599.888 1.24 1.46 1.547 1.834.981 4.11.078 4.814-1.909.168-.475.225-1.395.117-1.898-.24-1.116-1.105-2.122-2.167-2.522a3.897 3.897 0 0 0-.669-.177l-.318-.046-3.223-5.399-3.222-5.399.287-.292c.385-.392.729-.942.877-1.405.171-.531.171-1.657 0-2.189-.311-.968-1.087-1.783-2.057-2.162-.541-.211-1.446-.263-2.014-.117Zm1.278 2.475c.122.059.295.22.383.356.136.21.157.304.134.597-.082 1.003-1.196 1.296-1.799.473-.183-.25-.182-.805.002-1.058.328-.451.817-.592 1.28-.368Zm44.694.609c-2.25.262-4.111 1.146-5.583 2.651-1.22 1.248-1.933 2.584-2.298 4.31-.202.957-.202 2.774 0 3.731.366 1.727 1.079 3.065 2.298 4.308.744.758 1.357 1.209 2.288 1.68 2.318 1.173 5.197 1.354 7.757.488 2.947-.998 5.106-3.43 5.734-6.457.2-.963.226-2.553.056-3.507-.653-3.687-3.514-6.465-7.326-7.113-.714-.122-2.254-.17-2.926-.091Zm37.638-.003c-2.871.284-4.904 1.617-5.611 3.679-.439 1.282-.319 2.853.303 3.934.243.423.866 1.043 1.415 1.408.747.498 1.858.881 4.424 1.527 1.513.381 2.057.567 2.556.873.501.307.762.66.802 1.088.081.854-.427 1.46-1.512 1.806-.46.146-2.18.207-2.94.104-1.156-.157-2.561-.629-3.535-1.188l-.33-.19.445-.717c.244-.395.436-.738.425-.762-.01-.024-1.079.194-2.375.485-2.137.479-2.354.539-2.334.651.035.203 1.097 4.727 1.113 4.743.009.009.239-.348.512-.793.273-.444.513-.808.534-.808.02 0 .169.087.329.192.414.271 1.416.744 1.984.938 1.476.503 2.775.712 4.421.712 1.9.001 2.998-.222 4.266-.866 1.182-.6 1.86-1.238 2.372-2.23.337-.653.471-1.168.508-1.962.063-1.314-.238-2.275-.955-3.056-.985-1.074-1.885-1.477-5.175-2.32-2.341-.599-2.915-.823-3.325-1.3-.376-.436-.389-1.232-.029-1.76.236-.347.695-.651 1.248-.828.409-.132.578-.145 1.727-.141 1.21.004 1.31.014 2.006.202.668.181 2.009.695 2.063.792.012.022-.191.386-.452.809-.26.423-.46.784-.443.801.028.029.876-.153 3.729-.797.54-.122.989-.229.998-.238.019-.02-1.106-4.795-1.138-4.828-.013-.013-.232.312-.486.723-.254.41-.476.746-.494.746a4.19 4.19 0 0 1-.424-.22c-.878-.494-2.191-.915-3.469-1.114-.768-.119-2.407-.169-3.153-.095Zm58.285-.02c-3.39.352-5.906 1.976-7.38 4.765-.608 1.15-.92 2.535-.92 4.084 0 2.499.785 4.483 2.44 6.169 1.921 1.956 4.678 2.925 7.601 2.672 2.413-.209 4.314-1.064 5.874-2.641 1.551-1.568 2.369-3.457 2.487-5.743.273-5.284-3.855-9.427-9.306-9.339-.315.005-.673.02-.796.033Zm-75.87.256c-2.174.243-4.001 1.058-5.377 2.398-1.239 1.207-2.002 2.623-2.367 4.392-.181.878-.197 2.524-.032 3.386.33 1.729 1.043 3.128 2.204 4.327.724.747 1.28 1.157 2.197 1.618 1.224.617 2.137.87 3.522.978 2.756.215 5.292-.647 6.987-2.375.261-.267.475-.509.475-.538 0-.03-.534-.555-1.187-1.167l-1.186-1.114-.446.429c-1.14 1.096-2.443 1.584-3.994 1.495-.855-.049-1.539-.234-2.26-.612-.461-.242-.687-.416-1.147-.888-1.004-1.028-1.438-2.156-1.439-3.736-.001-1.139.154-1.831.61-2.715.85-1.65 2.527-2.608 4.562-2.608 1.468 0 2.701.513 3.734 1.555.185.186.361.328.392.317.096-.037 2.361-2.2 2.361-2.256 0-.029-.238-.285-.529-.57-1.191-1.166-2.617-1.883-4.373-2.199-.542-.098-2.227-.17-2.707-.117Zm-46.962 8.593v8.569h4.295c3.451 0 4.438-.019 5.024-.097 3.959-.529 6.718-2.976 7.467-6.621.171-.832.171-2.869 0-3.701-.749-3.647-3.507-6.092-7.467-6.621-.586-.078-1.573-.098-5.024-.098h-4.295v8.569Zm75.482-8.282c-.019.051-.022 2.425-.006 5.275.024 4.253.047 5.276.126 5.706.313 1.707.871 2.886 1.827 3.86 1.294 1.32 3.043 1.959 5.382 1.965 2.385.006 4.054-.58 5.404-1.898 1.069-1.043 1.734-2.499 1.945-4.256.045-.378.069-2.377.07-5.665v-5.081l-1.863.017-1.862.018-.034 5.29c-.033 5.27-.034 5.293-.178 5.772-.222.739-.454 1.172-.842 1.573-.657.678-1.35.929-2.576.93-.68.001-.909-.025-1.281-.144-1.126-.359-1.797-1.154-2.173-2.575-.091-.345-.109-1.054-.14-5.621l-.035-5.225-1.865-.018c-1.575-.014-1.869-.002-1.899.077Zm18.123 8.218v8.309h3.501l.016-4.847.017-4.847 2.361 3.954 2.361 3.955h1.763l2.361-4.042 2.361-4.041.016 4.934.016 4.934h3.565v-5.67c0-3.118-.019-6.858-.042-8.31l-.042-2.641-1.532.017-1.532.018-2.95 5.063-2.998 5.147c-.031.054-1.116-1.724-3.031-4.966-1.64-2.777-3.026-5.101-3.079-5.163-.086-.103-.247-.114-1.614-.114h-1.518v8.31Zm-63.804-5.136c1.111.383 1.991 1.055 2.602 1.986.632.964.9 1.921.9 3.214 0 1.294-.268 2.251-.9 3.215-.611.932-1.492 1.604-2.602 1.986-.531.182-.711.212-1.47.238-.655.023-.996.004-1.401-.079-1.98-.404-3.461-1.871-3.955-3.918-.192-.795-.192-2.088 0-2.883.404-1.675 1.44-2.943 2.941-3.6.76-.332 1.234-.411 2.325-.388.88.018 1.003.036 1.56.229Zm95.115-.15c1.992.419 3.498 1.964 3.941 4.041.142.664.142 1.955 0 2.619-.443 2.077-1.949 3.622-3.941 4.041-.611.129-1.745.132-2.326.008-1.931-.414-3.359-1.77-3.912-3.716-.125-.44-.144-.655-.144-1.643 0-.987.019-1.202.144-1.642.461-1.622 1.582-2.894 3.048-3.46.241-.093.609-.207.82-.255.54-.121 1.78-.117 2.37.007Zm-116.572.095c2.331.29 3.91 1.601 4.467 3.708.207.782.207 2.313 0 3.094-.557 2.108-2.136 3.419-4.467 3.709-.297.037-1.422.068-2.5.068h-1.96V139.67h1.96c1.078 0 2.203.031 2.5.068Zm-24.842 3.036a205.938 205.938 0 0 1 1.598 2.704c0 .012-.179-.032-.398-.099-1.482-.451-3.88-.507-5.577-.132-.286.063-.52.105-.52.093 0-.019 2.684-4.53 3.04-5.109.085-.138.178-.226.207-.195.028.031.77 1.263 1.65 2.738Zm-9.673 9.887c.29.167.51.541.51.869 0 .519-.478 1.006-.987 1.006-.322 0-.69-.223-.852-.519-.481-.872.474-1.846 1.33-1.356Zm16.723-.032c.842.407.631 1.763-.293 1.889-.34.047-.533-.014-.795-.248-.85-.762.062-2.137 1.088-1.641Z" clip-rule="evenodd"/></svg>