<svg xmlns="http://www.w3.org/2000/svg" width="272" height="290" fill="none"><path fill="#70C483" d="M0 0h272v290H0z"/><path fill="#fff" fill-rule="evenodd" d="M50.687 128.964c-.637.676-.908 1.401-.908 2.43 0 3.259 3.55 4.606 5.918 2.245.987-.985 1.12-1.343.931-2.506-.328-2.019-1.56-3.133-3.464-3.133-1.195 0-1.786.23-2.477.964Zm15.39-.537c-.383.222-.939.981-1.234 1.685-1.497 3.575 3.183 6.472 5.678 3.515 1.404-1.664 1.192-3.848-.5-5.144-.742-.567-3.006-.6-3.944-.056Zm22.822 7.37a10.318 10.318 0 0 0-5.187 4.945c-.879 1.784-1.058 2.635-1.052 4.98.012 4.438 2.03 7.847 5.7 9.623 2.08 1.008 6.513 1.206 8.66.388 3.402-1.295 5.858-4.968 5.858-8.758v-1.63H91.914v3.017h3.617c3.571 0 3.614.01 3.373.848-.395 1.376-2.91 3.536-4.452 3.825-4.323.809-7.83-2.467-7.83-7.313 0-3.011.977-4.934 3.151-6.205 3.165-1.85 6.906-1.026 8.638 1.902.621 1.05.97 1.299 1.592 1.133.437-.117 1.051-.218 1.363-.224 1.459-.028 1.651-.606.789-2.381-.938-1.934-2.696-3.425-4.99-4.232-2.003-.705-6.559-.66-8.266.082Zm21.634-.342-8.033.101v2.97l2.93.11 2.929.11.189 8.484.189 8.484 1.978.114 1.978.114.101-8.598.102-8.598 3.024-.046 3.025-.046.12-1.417c.066-.78-.019-1.523-.189-1.651-.17-.128-3.924-.188-8.343-.131Zm8.979 10.267v10.181h3.969l-.093-7.635-.094-7.636.938 2.451c.516 1.348 1.723 4.792 2.683 7.653l1.745 5.202 2.097-.112 2.097-.112 2.497-7.333 2.496-7.332.103 7.427.102 7.427h3.765v-20.362h-5.901l-2.41 7.636c-1.326 4.199-2.518 7.766-2.651 7.925-.132.158-1.388-3.277-2.79-7.636l-2.55-7.925h-6.003v10.181Zm27.598.228v10.409l5.954-.134c6.47-.145 7.653-.48 9.25-2.617 1.703-2.279.951-5.907-1.482-7.154l-1.146-.587 1.076-.616c3.56-2.038 3.32-6.941-.434-8.861-1.507-.771-2.188-.849-7.439-.849h-5.779v10.409Zm42.719-6.827c0 1.971-.092 3.583-.204 3.583-.113 0-.723-.382-1.356-.849-1.487-1.095-4.863-1.158-6.611-.123-1.564.925-3.081 3.327-3.387 5.359-.536 3.568.631 6.595 3.212 8.329 1.837 1.235 5.088 1.201 6.97-.073l1.376-.932v.952c0 .901.097.946 1.796.837l1.796-.115.1-10.275.101-10.275h-3.793v3.582Zm16.256-.051v3.531l-1.765-.891c-2.134-1.078-3.844-1.131-5.716-.178-2.919 1.486-3.984 3.607-3.803 7.573.11 2.417.303 3.148 1.16 4.377.565.812 1.416 1.718 1.89 2.013 2.13 1.326 5.676 1.123 7.353-.421l.819-.755.126.885c.109.767.365.901 1.921 1l1.796.115v-20.78h-3.781v3.531Zm-48.027-.145c1.076.574 1.529 2.302.959 3.654-.62 1.472-1.108 1.633-4.945 1.633h-3.182v-5.656h3.238c1.781 0 3.55.166 3.93.369Zm-112.461 2.757c-.74 5.909 2.84 12.505 8.21 15.121 4.392 2.14 8.839 2.088 13.42-.158 3.986-1.955 7.308-6.659 7.89-11.175l.252-1.947-2.156-.269-2.155-.268-1.67 1.634c-.918.899-1.669 1.769-1.669 1.933 0 .164.497.298 1.103.298s1.172.21 1.258.466c.491 1.469-3.817 5.594-6.637 6.355-4.073 1.099-9.098-.569-11.455-3.804-1.48-2.031-2.037-4.023-2.037-7.284 0-2.415-.005-2.427-1.182-2.661-2.682-.535-2.9-.415-3.172 1.759Zm118.525 5.093c0 5.21.062 5.714.855 6.902 2.432 3.641 9.215 3.541 11.465-.168.623-1.027.723-1.943.723-6.658v-5.467l-1.796-.115-1.796-.115-.001 4.828c-.002 4.148-.107 5.001-.751 6.054-.603.987-.994 1.225-2.005 1.225-2.502 0-2.703-.446-2.914-6.472l-.189-5.405-1.795-.115-1.796-.115v5.621Zm46.5-5.418c0 .089 1.373 3.333 3.052 7.208 2.815 6.5 3.016 7.133 2.594 8.148-.521 1.256-1.474 1.871-3.378 2.184-1.112.183-1.343.39-1.447 1.296-.169 1.471.33 1.844 2.412 1.802 2.54-.051 4.392-1.387 5.831-4.209.691-1.354 6.814-16.108 6.814-16.418 0-.095-.838-.173-1.863-.173h-1.863l-1.175 3.111c-1.553 4.112-2.365 6.06-2.678 6.434-.232.277-4.141-8.424-4.141-9.216 0-.181-.935-.329-2.079-.329-1.143 0-2.079.073-2.079.162Zm-22.383 3.479c1.068.673 1.59 1.97 1.59 3.95 0 2.702-1.499 4.453-3.824 4.467-3.665.022-5.491-5.304-2.754-8.034 1.452-1.447 3.096-1.574 4.988-.383Zm16.231-.164c.463.226 1.121 1.142 1.463 2.034 1.922 5.019-3.463 8.942-6.739 4.909-.87-1.072-.903-4.64-.054-5.85 1.207-1.719 3.213-2.13 5.33-1.093Zm-46.623 2.985c1.159.527 1.84 2.272 1.369 3.507-.618 1.621-1.799 2.097-5.197 2.097h-3.129v-6.033h3.007c1.653 0 3.431.193 3.95.429Z" clip-rule="evenodd"/></svg>