<svg xmlns="http://www.w3.org/2000/svg" width="272" height="290" fill="none"><path fill="#2960F6" d="M0 0h272v290H0z"/><path fill="#fff" d="M85.064 161.934c1.824.78 3.912.905 5.802.302 2.032-.654 3.829-1.949 5.308-3.512 1.4-1.41 2.386-3.176 3.328-4.927 1.509-2.959 2.615-6.152 3.136-9.456.533-3.186.53-6.455.104-9.654-.271-1.908-.947-3.776-2.093-5.311-1.015-1.41-2.642-2.363-4.363-2.37-1.677-.085-3.225.731-4.608 1.619-1.93 1.237-3.636 2.804-5.261 4.433-4.328 4.343-8.137 9.189-12.077 13.896-.253.273-.444.626-.777.805-1.323-1.541-2.483-3.225-3.786-4.784-1.154-1.47-2.425-2.924-4.085-3.794-.963-.526-2.224-.528-3.124.14-1.335.924-2.168 2.416-2.747 3.926-1.639 3.98-2.167 8.42-1.603 12.697.152 1.139.507 2.278 1.202 3.193.494.702 1.359 1.14 2.205 1.017 1.527-.181 2.822-1.131 3.993-2.089 2.885-2.44 5.26-5.427 7.693-8.321 2.371 3.171 4.487 6.602 7.43 9.263 1.301 1.17 2.705 2.268 4.323 2.927Zm-.274-3.116c-2.217-.949-4.065-2.581-5.763-4.292a63.94 63.94 0 0 1-4.055-4.794c-.252-.371-.64-.674-.751-1.129.133-.339.396-.6.62-.877 3.524-4.35 6.995-8.747 10.614-13.013 1.442-1.555 2.945-3.061 4.612-4.361 1.564-1.263 3.295-2.44 5.287-2.799 1.267-.228 2.67.01 3.66.9 1.187 1.054 1.793 2.631 2.114 4.176a24.36 24.36 0 0 1 .362 4.375c-.231 3.991-.954 7.983-2.436 11.693-1.056 2.651-2.431 5.184-4.222 7.385-1.313 1.464-2.916 2.767-4.822 3.268-1.731.477-3.592.185-5.22-.532ZM62 157.829c-.788-.085-1.411-.706-1.782-1.39-.752-1.302-.891-2.852-.97-4.333-.037-1.047-.037-2.096.076-3.135 1.583 1.067 3.547 1.875 5.45 1.328 1.528-.408 2.666-1.639 3.507-2.955l-.336.364c-.506.546-1.032 1.08-1.713 1.393-1.454.725-3.166.399-4.603-.205a15.237 15.237 0 0 1-2.167-1.069c.231-1.67.692-3.3 1.32-4.855.35-.877.88-1.657 1.406-2.428.558-.726 1.44-1.323 2.376-1.181.754.116 1.382.607 1.962 1.085 1.044.86 1.73 2.063 2.545 3.134 1.127 1.587 2.237 3.185 3.37 4.765.106.183.284.354.302.571-.26.391-.613.703-.922 1.052-1.258 1.407-2.501 2.831-3.826 4.174-1.103 1.171-2.331 2.237-3.72 3.032-.697.382-1.463.756-2.275.653Zm53.411-1.769c1.1-.053 2.197-.243 3.23-.641 1.086-.399 1.798-1.572 1.823-2.739-1.402.6-2.911.985-4.437.942-1.641.036-3.381-.598-4.418-1.957-.748-.965-1.052-2.2-1.11-3.414 2.291.054 4.583.066 6.873-.057a10.787 10.787 0 0 0 2.924-.682c.388-.168.893-.391.889-.903.135-1.498-.231-3.072-1.114-4.284-.703-.988-1.75-1.677-2.882-2.025-1.874-.516-3.929-.352-5.687.502-1.03.489-1.891 1.293-2.592 2.202-1.237 1.695-1.744 3.879-1.603 5.976.106 1.896.739 3.866 2.165 5.143 1.594 1.502 3.846 1.937 5.939 1.937Zm-4.736-9.733c.098-1.418.708-2.856 1.853-3.699 1.376-1.036 3.533-.947 4.705.375.631.696.835 1.693.813 2.619-.019.47-.509.722-.918.705-2.149.052-4.303.036-6.453 0Zm32.292-11.53c1.246-1.704 3.221-2.791 5.285-2.935 1.411-.125 2.954-.015 4.143.858.334.19.202.627.118.927-.185.57-.784 1.181-1.406.894a5.647 5.647 0 0 0-3.293-.395 3.524 3.524 0 0 0-2.162 1.554c-.889 1.398-1.002 3.133-1.019 4.757 2.296.038 4.596.056 6.889-.075.901.005 1.783-.21 2.677-.263.259-.014.387.276.44.494.097.575.116 1.163.132 1.748v12.368c0 .349-.088.805-.476.893-.944.238-1.924.2-2.888.226-.014-.958.062-1.914.082-2.871.041-3.538.023-7.076.015-10.613-2.291.181-4.589.12-6.882.152-.022 4.364.004 8.728.09 13.088-1.1.159-2.211.291-3.323.211-.142-.942.002-1.896-.03-2.843.092-2.453.032-4.909.046-7.363a36.114 36.114 0 0 1-.03-3.087c-.72-.037-1.665.036-2.056-.739.508-.554 1.162-.929 1.837-1.221.294-.076.19-.456.244-.683.047-1.797.489-3.638 1.567-5.082Zm36.628-.802c.373-1.311 2.273-1.731 3.132-.695.718.809.432 2.283-.54 2.74-.694.389-1.53.193-2.175-.205-.376-.518-.658-1.197-.417-1.84Zm10.634 4.455c.49-.378 1.086-.56 1.679-.686-.037.897-.137 1.792-.121 2.69 1.958.031 3.916.01 5.876.012-.127.553-.292 1.134-.705 1.536-.283.309-.703.426-1.101.454-1.372.087-2.743.095-4.114.092-.149 2.848-.218 5.711-.013 8.56.054.993.488 2.104 1.476 2.444 1.368.455 2.845.046 4.111-.548.094.685-.026 1.454-.537 1.941-.681.649-1.627.882-2.518 1.022-1.505.215-3.187.081-4.415-.937-.833-.723-1.237-1.849-1.317-2.947-.122-1.529-.039-3.069-.063-4.603.015-1.624-.033-3.249.027-4.871-.624-.059-1.552-.044-1.806-.768.493-.778 1.241-1.339 1.891-1.973.532-.494 1.08-.971 1.65-1.418Zm-66.938 2.215c.798-.364 1.675-.491 2.528-.642.492-.112.928.219 1.212.6 1.248 1.637 2.38 3.365 3.619 5.009 1.01-1.313 2.016-2.631 2.973-3.985.378-.485.691-1.034 1.154-1.441.202-.192.492-.21.753-.195.731.06 1.44.263 2.14.479a1465.096 1465.096 0 0 0-5.56 7.025c1.896 2.756 4.006 5.346 5.992 8.034-1.008.211-2.042.32-3.071.289-.343.01-.661-.175-.875-.441-1.317-1.846-2.682-3.657-4.037-5.472-1.338 1.814-2.699 3.608-4.015 5.438-.179.238-.418.487-.736.475-.887.033-1.771-.098-2.647-.236 1.907-2.604 3.961-5.092 5.894-7.676-1.715-2.465-3.531-4.856-5.324-7.261Zm42.806.006c1.668-.806 3.663-.91 5.365-.153 1.114.481 1.967 1.492 2.37 2.656.6 1.565.498 3.281.51 4.932.001 2.49-.039 4.981.129 7.466-1.081.122-2.163.345-3.253.244a2.499 2.499 0 0 1-.138-.847c-.005-1.333.001-2.667-.001-4-.017-1.623.081-3.244.022-4.867-.078-1.016-.315-2.122-1.096-2.82-.837-.817-2.075-.918-3.162-.76-1.331.205-2.495.997-3.45 1.94-.012 2.962-.001 5.925-.005 8.887-.006.716.035 1.437-.073 2.148-1.036.407-2.173.305-3.259.338.122-2.739.063-5.483.077-8.225-.007-1.583.009-3.167-.007-4.748 0-.62-.245-1.212-.683-1.636.554-.557 1.225-1.042 2.008-1.16a1.14 1.14 0 0 1 1.172.58c.358.581.49 1.266.604 1.935.91-.707 1.808-1.456 2.87-1.91Zm33.437.125c.865-.403 1.789-.764 2.748-.78.408-.012.629.384.763.721 1.478 3.616 2.8 7.296 4.203 10.944 1.041-2.159 1.85-4.429 2.648-6.692.557-1.647 1.092-3.304 1.506-4.995.862.063 1.744.176 2.524.591.059.283.124.579.016.859-1.48 4.946-3.374 9.779-5.846 14.29-1.204 2.163-2.497 4.282-4.011 6.231-.337.372-.624.853-1.102 1.033-.874.03-1.735-.344-2.406-.907 1.867-2.276 3.615-4.678 4.98-7.309-.65-1.064-1.056-2.254-1.529-3.405-1.439-3.554-2.865-7.115-4.494-10.581Zm-19.927-.253a15.69 15.69 0 0 1 2.682-.321c.206-.016.514.02.554.284.106.442.138.904.145 1.359 0 4.244-.003 8.488.002 12.73-.005.281-.009.581-.151.832-.233.177-.531.221-.808.26-.799.101-1.603.152-2.407.156.147-2.912.101-5.826.107-8.741-.017-2.186.067-4.378-.124-6.559Z"/></svg>