<svg xmlns="http://www.w3.org/2000/svg" width="318" height="318" fill="none"><path fill="#B8EF43" d="M0 0h318v318H0z"/><path fill="#1C291B" d="M98.795 179.067h-1.828a2.799 2.799 0 0 0-1.095-1.787 3.016 3.016 0 0 0-.932-.468 3.619 3.619 0 0 0-1.083-.158c-.692 0-1.31.173-1.857.521-.543.348-.973.857-1.29 1.529-.312.672-.468 1.492-.468 2.46 0 .977.156 1.801.469 2.473.316.671.748 1.179 1.294 1.523a3.4 3.4 0 0 0 1.846.515c.379 0 .738-.051 1.078-.152a3.12 3.12 0 0 0 .931-.463 2.809 2.809 0 0 0 1.107-1.763l1.828.006a4.896 4.896 0 0 1-.568 1.628 4.491 4.491 0 0 1-1.072 1.277 4.83 4.83 0 0 1-1.488.826 5.51 5.51 0 0 1-1.828.293c-1.039 0-1.964-.246-2.777-.738-.812-.496-1.453-1.205-1.921-2.126-.465-.922-.697-2.022-.697-3.299 0-1.281.234-2.38.703-3.298.468-.921 1.109-1.628 1.921-2.12.813-.496 1.736-.744 2.771-.744.637 0 1.23.091 1.78.275.555.18 1.053.445 1.495.797.441.347.806.773 1.095 1.277.29.5.484 1.072.586 1.716Zm5.073 8.278c-.843 0-1.579-.194-2.208-.58a3.917 3.917 0 0 1-1.465-1.623c-.347-.695-.521-1.507-.521-2.437 0-.933.174-1.75.521-2.449a3.9 3.9 0 0 1 1.465-1.628c.629-.387 1.365-.58 2.208-.58.844 0 1.58.193 2.209.58a3.892 3.892 0 0 1 1.464 1.628c.348.699.522 1.516.522 2.449 0 .93-.174 1.742-.522 2.437a3.908 3.908 0 0 1-1.464 1.623c-.629.386-1.365.58-2.209.58Zm.006-1.471c.547 0 1-.144 1.359-.433.36-.289.625-.674.797-1.154.176-.481.264-1.01.264-1.588a4.56 4.56 0 0 0-.264-1.581 2.57 2.57 0 0 0-.797-1.166c-.359-.293-.812-.44-1.359-.44-.55 0-1.007.147-1.371.44a2.618 2.618 0 0 0-.802 1.166 4.657 4.657 0 0 0-.258 1.581c0 .578.086 1.107.258 1.588.176.48.443.865.802 1.154.364.289.821.433 1.371.433Zm7.153-10.708v11.997h-1.751v-11.997h1.751Zm3.366 0v11.997h-1.752v-11.997h1.752Zm5.492 12.179c-.887 0-1.65-.19-2.291-.569a3.852 3.852 0 0 1-1.476-1.611c-.344-.695-.515-1.509-.515-2.442 0-.922.171-1.734.515-2.437.348-.703.832-1.252 1.453-1.646.625-.395 1.355-.592 2.191-.592.508 0 1 .084 1.476.252.477.168.904.431 1.283.791.379.359.678.826.896 1.4.219.57.328 1.263.328 2.079v.621h-7.152v-1.312h5.436c0-.461-.094-.869-.281-1.224a2.126 2.126 0 0 0-.791-.85c-.336-.207-.73-.31-1.183-.31-.493 0-.922.121-1.289.363a2.441 2.441 0 0 0-.844.937 2.711 2.711 0 0 0-.293 1.248v1.025c0 .602.106 1.113.317 1.535.214.422.513.744.896.967.383.218.83.328 1.341.328.332 0 .635-.047.908-.141a1.95 1.95 0 0 0 .709-.433c.199-.192.352-.428.457-.709l1.658.299a3.008 3.008 0 0 1-.715 1.283 3.454 3.454 0 0 1-1.283.849c-.511.199-1.095.299-1.751.299Zm8.834 3.38c-.715 0-1.33-.094-1.845-.281-.512-.188-.93-.436-1.254-.744a3.131 3.131 0 0 1-.726-1.014l1.505-.621c.106.172.246.354.422.545.18.195.422.361.726.498.309.137.705.205 1.19.205.664 0 1.212-.162 1.646-.486.433-.32.65-.832.65-1.535v-1.769h-.111a4.04 4.04 0 0 1-.457.638 2.472 2.472 0 0 1-.809.61c-.343.171-.79.257-1.341.257a3.751 3.751 0 0 1-1.922-.498c-.566-.335-1.015-.829-1.347-1.482-.328-.656-.492-1.462-.492-2.419 0-.957.162-1.777.486-2.46.328-.684.777-1.207 1.348-1.57.57-.368 1.216-.551 1.939-.551.558 0 1.009.094 1.353.281.343.184.611.398.802.644.196.247.346.463.451.651h.129v-1.459h1.717v9.197c0 .774-.18 1.408-.539 1.904-.36.496-.846.863-1.459 1.101-.609.239-1.296.358-2.062.358Zm-.018-5.149c.504 0 .93-.118 1.278-.352.351-.238.617-.578.796-1.019.184-.445.276-.979.276-1.6 0-.605-.09-1.138-.27-1.599-.18-.461-.443-.82-.791-1.078-.347-.261-.777-.392-1.289-.392-.527 0-.966.137-1.318.41-.351.269-.617.636-.796 1.101a4.371 4.371 0 0 0-.264 1.558c0 .59.09 1.108.27 1.553.179.445.445.793.796 1.043.356.25.793.375 1.312.375Zm9.563 1.769c-.887 0-1.65-.19-2.291-.569a3.839 3.839 0 0 1-1.476-1.611c-.344-.695-.516-1.509-.516-2.442 0-.922.172-1.734.516-2.437a3.996 3.996 0 0 1 1.453-1.646c.624-.395 1.355-.592 2.191-.592.507 0 .999.084 1.476.252.476.168.904.431 1.283.791.378.359.677.826.896 1.4.219.57.328 1.263.328 2.079v.621h-7.153v-1.312h5.437c0-.461-.094-.869-.282-1.224a2.123 2.123 0 0 0-.79-.85c-.336-.207-.731-.31-1.184-.31-.492 0-.921.121-1.289.363a2.439 2.439 0 0 0-.843.937 2.711 2.711 0 0 0-.293 1.248v1.025c0 .602.105 1.113.316 1.535.215.422.514.744.897.967.382.218.829.328 1.341.328.332 0 .635-.047.908-.141.273-.097.51-.242.709-.433a1.9 1.9 0 0 0 .457-.709l1.658.299a3.008 3.008 0 0 1-.715 1.283c-.34.363-.767.646-1.283.849-.512.199-1.095.299-1.751.299Zm12.475 0c-.844 0-1.58-.194-2.209-.58a3.908 3.908 0 0 1-1.464-1.623c-.348-.695-.522-1.507-.522-2.437 0-.933.174-1.75.522-2.449a3.892 3.892 0 0 1 1.464-1.628c.629-.387 1.365-.58 2.209-.58.843 0 1.579.193 2.208.58a3.9 3.9 0 0 1 1.465 1.628c.347.699.521 1.516.521 2.449 0 .93-.174 1.742-.521 2.437a3.917 3.917 0 0 1-1.465 1.623c-.629.386-1.365.58-2.208.58Zm.006-1.471c.546 0 .999-.144 1.359-.433.359-.289.624-.674.796-1.154.176-.481.264-1.01.264-1.588a4.56 4.56 0 0 0-.264-1.581 2.576 2.576 0 0 0-.796-1.166c-.36-.293-.813-.44-1.359-.44-.551 0-1.008.147-1.371.44-.36.293-.627.681-.803 1.166a4.657 4.657 0 0 0-.258 1.581c0 .578.086 1.107.258 1.588.176.48.443.865.803 1.154.363.289.82.433 1.371.433Zm9.683-7.709v1.406h-5.085v-1.406h5.085Zm-3.69 8.998v-10.041c0-.562.123-1.029.369-1.4.246-.375.572-.654.978-.837a3.111 3.111 0 0 1 1.324-.282c.351 0 .652.03.902.088.25.055.435.106.557.153l-.411 1.417a8.643 8.643 0 0 0-.316-.082 1.81 1.81 0 0 0-.469-.053c-.425 0-.73.106-.913.317-.18.211-.27.515-.27.914v9.806h-1.751Zm8.519 0v-11.997h4.394c.851 0 1.556.14 2.114.421.559.278.977.655 1.254 1.131.277.473.416 1.006.416 1.599 0 .5-.092.922-.275 1.266-.184.339-.43.613-.739.82-.304.203-.64.351-1.007.445v.117c.398.02.787.149 1.166.387.382.234.699.568.949 1.002.25.433.375.96.375 1.581 0 .613-.145 1.164-.434 1.652-.285.485-.726.869-1.324 1.154-.597.281-1.361.422-2.29.422h-4.599Zm1.81-1.552h2.613c.867 0 1.488-.168 1.863-.504.375-.336.562-.756.562-1.26 0-.378-.096-.726-.287-1.042a2.043 2.043 0 0 0-.82-.756c-.352-.187-.769-.281-1.254-.281h-2.677v3.843Zm0-5.255h2.425c.407 0 .772-.078 1.096-.234.328-.157.588-.375.779-.656.195-.286.293-.621.293-1.008 0-.496-.174-.912-.521-1.248-.348-.336-.881-.504-1.6-.504h-2.472v3.65Zm13.801 3.075v-5.266h1.757v8.998h-1.722v-1.558h-.094c-.207.48-.539.88-.996 1.201-.453.316-1.017.474-1.693.474-.578 0-1.089-.127-1.535-.381-.441-.257-.789-.638-1.042-1.142-.25-.504-.375-1.127-.375-1.869v-5.723h1.751v5.513c0 .613.17 1.101.51 1.464.34.363.781.545 1.324.545.328 0 .654-.082.978-.246.328-.164.6-.412.814-.744.219-.332.326-.754.323-1.266Zm10.111-3.069-1.588.281a1.888 1.888 0 0 0-.316-.58 1.573 1.573 0 0 0-.574-.451c-.242-.117-.545-.176-.908-.176-.496 0-.91.112-1.242.334-.332.219-.498.502-.498.85 0 .3.111.542.334.726.223.184.582.334 1.078.451l1.429.328c.828.191 1.445.486 1.851.885.406.398.61.916.61 1.552 0 .539-.157 1.019-.469 1.441-.309.418-.74.746-1.295.984-.55.239-1.189.358-1.915.358-1.008 0-1.83-.215-2.467-.645-.636-.433-1.027-1.048-1.171-1.845l1.693-.258c.105.442.322.775.65 1.002.328.223.756.334 1.283.334.574 0 1.033-.119 1.377-.357.343-.243.515-.537.515-.885a.92.92 0 0 0-.316-.709c-.207-.191-.525-.336-.955-.433l-1.523-.334c-.84-.192-1.461-.496-1.863-.914-.398-.418-.598-.947-.598-1.588 0-.531.149-.996.446-1.394.296-.398.707-.709 1.23-.931.523-.227 1.123-.34 1.798-.34.973 0 1.738.211 2.297.633.558.417.927.978 1.107 1.681Zm1.359 6.801v-8.998h1.752v8.998h-1.752Zm.885-10.386c-.305 0-.567-.102-.785-.305a.99.99 0 0 1-.323-.738c0-.289.108-.535.323-.738a1.1 1.1 0 0 1 .785-.311c.304 0 .564.104.779.311a.972.972 0 0 1 .328.738c0 .285-.11.531-.328.738a1.095 1.095 0 0 1-.779.305Zm4.232 5.044v5.342h-1.751v-8.998h1.681v1.465h.111c.207-.477.531-.86.973-1.149.445-.289 1.005-.433 1.681-.433.613 0 1.15.129 1.611.387.461.253.818.632 1.072 1.136.254.504.381 1.127.381 1.869v5.723h-1.752v-5.512c0-.653-.17-1.162-.509-1.529-.34-.371-.807-.557-1.401-.557-.406 0-.767.088-1.083.264a1.882 1.882 0 0 0-.744.773c-.18.336-.27.742-.27 1.219Zm11.244 5.524c-.887 0-1.65-.19-2.291-.569a3.845 3.845 0 0 1-1.476-1.611c-.344-.695-.516-1.509-.516-2.442 0-.922.172-1.734.516-2.437a3.996 3.996 0 0 1 1.453-1.646c.625-.395 1.355-.592 2.191-.592.507 0 .999.084 1.476.252.476.168.904.431 1.283.791.379.359.677.826.896 1.4.219.57.328 1.263.328 2.079v.621h-7.153v-1.312h5.437c0-.461-.094-.869-.282-1.224a2.123 2.123 0 0 0-.79-.85c-.336-.207-.731-.31-1.184-.31-.492 0-.921.121-1.288.363a2.433 2.433 0 0 0-.844.937 2.711 2.711 0 0 0-.293 1.248v1.025c0 .602.106 1.113.316 1.535.215.422.514.744.897.967.382.218.83.328 1.341.328.332 0 .635-.047.908-.141a1.95 1.95 0 0 0 .709-.433c.199-.192.352-.428.457-.709l1.658.299a3.008 3.008 0 0 1-.715 1.283c-.34.363-.767.646-1.283.849-.511.199-1.095.299-1.751.299Zm11.804-6.983-1.588.281a1.888 1.888 0 0 0-.316-.58 1.573 1.573 0 0 0-.574-.451c-.242-.117-.545-.176-.908-.176-.496 0-.91.112-1.242.334-.332.219-.498.502-.498.85 0 .3.111.542.334.726.223.184.582.334 1.078.451l1.429.328c.828.191 1.445.486 1.851.885.407.398.61.916.61 1.552 0 .539-.157 1.019-.469 1.441-.309.418-.74.746-1.295.984-.55.239-1.189.358-1.915.358-1.008 0-1.83-.215-2.467-.645-.636-.433-1.027-1.048-1.171-1.845l1.693-.258c.105.442.322.775.65 1.002.328.223.756.334 1.283.334.574 0 1.033-.119 1.377-.357.343-.243.515-.537.515-.885a.92.92 0 0 0-.316-.709c-.207-.191-.525-.336-.955-.433l-1.523-.334c-.84-.192-1.461-.496-1.863-.914-.398-.418-.598-.947-.598-1.588 0-.531.149-.996.446-1.394.296-.398.707-.709 1.23-.931.523-.227 1.123-.34 1.798-.34.973 0 1.738.211 2.297.633.558.417.927.978 1.107 1.681Zm8.102 0-1.588.281a1.888 1.888 0 0 0-.316-.58 1.573 1.573 0 0 0-.574-.451c-.242-.117-.545-.176-.908-.176-.496 0-.91.112-1.242.334-.332.219-.498.502-.498.85 0 .3.111.542.334.726.222.184.582.334 1.078.451l1.429.328c.828.191 1.445.486 1.851.885.406.398.61.916.61 1.552 0 .539-.157 1.019-.469 1.441-.309.418-.74.746-1.295.984-.55.239-1.189.358-1.915.358-1.008 0-1.83-.215-2.467-.645-.636-.433-1.027-1.048-1.171-1.845l1.693-.258c.105.442.322.775.65 1.002.328.223.756.334 1.283.334.574 0 1.033-.119 1.377-.357.343-.243.515-.537.515-.885a.92.92 0 0 0-.316-.709c-.207-.191-.526-.336-.955-.433l-1.523-.334c-.84-.192-1.461-.496-1.863-.914-.398-.418-.598-.947-.598-1.588 0-.531.149-.996.446-1.394.296-.398.706-.709 1.23-.931.523-.227 1.123-.34 1.798-.34.973 0 1.738.211 2.297.633.558.417.927.978 1.107 1.681Z"/><path stroke="#1C291B" stroke-width="3.259" d="M87.023 130.236h35.744v35.744H87.023z"/><path fill="#1C291B" d="M98.86 141.04h12.134v2.825h-4.424v12.505h-3.285v-12.505h-4.424v-2.825Z"/><path stroke="#1C291B" stroke-width="3.259" d="M122.768 130.236h35.744v35.744h-35.744z"/><path fill="#1C291B" d="M135.432 141.04h10.294v2.825h-7.009v3.438h5.694v2.694h-5.694v3.548h7.249v2.825h-10.534v-15.33Z"/><path stroke="#1C291B" stroke-width="3.259" d="M158.512 130.236h35.744v35.744h-35.744z"/><path fill="#1C291B" d="M170.349 141.039h12.133v2.825h-4.424v12.505h-3.285v-12.505h-4.424v-2.825Z"/><path stroke="#1C291B" stroke-width="3.259" d="M194.256 130.236H230v35.744h-35.744z"/><path fill="#1C291B" d="M213.162 141.039c1.095 0 2.081.219 2.935.635a4.752 4.752 0 0 1 1.993 1.774c.46.788.701 1.686.701 2.694 0 .985-.241 1.861-.701 2.606a4.692 4.692 0 0 1-1.927 1.708l3.022 5.913h-3.636l-2.562-5.146h-2.781v5.146h-3.286v-15.33h6.242Zm-2.956 7.446h2.693c.767 0 1.38-.197 1.84-.635.46-.416.701-.985.701-1.708s-.241-1.292-.701-1.73c-.46-.416-1.073-.635-1.84-.635h-2.693v4.708Z"/></svg>