<svg xmlns="http://www.w3.org/2000/svg" width="318" height="318" fill="none"><path fill="#FF4052" d="M0 0h318v318H0z"/><path fill="#FFFAF2" d="M123.495 160.19c0 3.773-.427 6.785-1.283 9.037-.855 2.253-2.049 3.856-3.581 4.811-1.533.955-3.388 1.432-5.566 1.432-2.743 0-5.091-.64-7.043-1.921-1.823-1.197-3.153-3.056-3.991-5.579a.645.645 0 0 0-.745-.426l-.101.021a.634.634 0 0 0-.504.705l1.125 8.327a.615.615 0 0 1 .005.085v2.512c0 .906-.494 1.504-1.524 1.504h-9.365c-.832 0-1.525-.58-1.525-1.504v-32.327c0-.918.731-1.504 1.525-1.504h9.039c.856 0 1.549.555 1.407 1.62l-.934 7.519a.637.637 0 0 0 .531.704l.07.011a.642.642 0 0 0 .735-.485c.565-2.459 1.295-4.408 2.194-5.848.968-1.552 2.158-2.65 3.569-3.294 1.412-.645 3.142-.967 5.191-.967 7.198-.001 10.787 5.188 10.771 15.567Zm-13.551 5.443c.614-.986.92-2.555.92-4.703 0-2.086-.299-3.573-.895-4.465-.598-.891-1.573-1.337-2.929-1.337-.871 0-1.694.218-2.468.656-.775.437-1.412 1.106-1.912 2.005-.5.9-.782 2.009-.847 3.331v3.483c0 .213.109.411.288.529 1.093.724 1.986 1.23 2.677 1.515.75.31 1.544.466 2.384.466 1.241.001 2.169-.492 2.782-1.48Zm38.162 7.87c-2.42-1.13-4.227-2.758-5.421-4.883s-1.79-4.683-1.79-7.677v-14.396c0-.859.639-1.504 1.524-1.504h9.365c.889 0 1.524.691 1.524 1.504v14.135c0 1.401.323 2.363.968 2.889.645.525 1.598.788 2.856.788 1.258 0 2.214-.275 2.867-.824.654-.549.98-1.5.98-2.853v-14.135c0-.827.602-1.504 1.524-1.504h9.365c.87 0 1.525.547 1.525 1.33v14.571c0 2.993-.598 5.551-1.791 7.677-1.194 2.125-3 3.753-5.421 4.883-2.419 1.13-5.436 1.696-9.05 1.696-3.596-.001-6.604-.567-9.025-1.697Zm77.342-24.831c1.701 2.42 2.552 6.272 2.552 11.556v13.418c0 .832-.623 1.504-1.524 1.504h-9.389c-.843 0-1.525-.539-1.525-1.504v-12.725c0-1.893-.282-3.246-.847-4.059-.564-.811-1.404-1.217-2.516-1.217-1.372 0-2.38.457-3.025 1.372-.645.916-.984 2.361-1.016 4.334v12.296c0 .793-.588 1.504-1.525 1.504h-9.341c-.857 0-1.524-.632-1.524-1.504v-12.726c0-1.878-.274-3.227-.822-4.046-.549-.82-1.388-1.229-2.517-1.229-1.21 0-2.186.474-2.929 1.42-.742.947-1.121 2.352-1.137 4.215v12.368c0 .879-.588 1.504-1.524 1.504h-9.365c-.826 0-1.524-.593-1.524-1.504v-26.361c0-.846.595-1.504 1.524-1.504h9.047c.914 0 1.555.464 1.454 1.302l-.809 7.176a.645.645 0 0 0 1.272.19c.441-2.261 1.029-4.057 1.764-5.385.807-1.456 1.839-2.491 3.098-3.104 1.258-.613 2.855-.92 4.792-.92 2.355 0 4.287.804 5.795 2.411 1.422 1.517 2.274 3.846 2.557 6.991a.64.64 0 0 0 .641.579h.132a.64.64 0 0 0 .63-.506c.475-2.322 1.111-4.154 1.909-5.499.855-1.441 1.943-2.464 3.267-3.069 1.323-.605 3.009-.907 5.058-.907 3.208 0 5.665 1.21 7.367 3.629Zm-87.105-9.154v34.098c0 .841-.668 1.504-1.525 1.504h-9.243c-.829 0-1.525-.638-1.525-1.504v-32.26c0-.808.498-1.454 1.337-1.629l9.371-1.565c.921-.146 1.585.517 1.585 1.356Z"/></svg>