<svg xmlns="http://www.w3.org/2000/svg" width="318" height="318" fill="none"><path fill="#2F43AA" d="M0 0h318v318H0z"/><g fill="#fff" clip-path="url(#a)"><path d="m53.572 144.25 8.772 14.762h6.353l-12.11-20.279H45.58L34 158.996l3.152 5.525 11.82-20.255 4.6-.016Z"/><path d="M80.316 159.004v.008l-1.39 2.429-4.536 7.914h-.12l-22.33.138 3.32-5.549 15.865.032 2.815-4.939-11.676-20.304h6.473l11.58 20.271Z"/><path d="m71.898 173.742-3.16 5.525H45.58l-5.195-9.092-.394-.69 11.443-19.158 3.36 5.232-8.45 13.788 2.251 4.192 23.303.203Zm19.33-9.424c0-3.331 2.275-5.297 7.341-6.102l5.066-.772v-.178c0-1.861-1.158-2.811-3.402-2.811-2.388 0-3.329 1.023-3.505 2.339h-5.066c.29-3.331 2.533-6.621 8.539-6.621 5.573 0 8.323 2.673 8.323 7.125v9.027c0 1.243.217 2.673.538 3.437h-4.953s-.217-.878-.217-2.121c-1.19 1.714-3.112 2.559-6.007 2.559-4.374 0-6.657-2.453-6.657-5.882Zm7.856-2.413c-2.212.406-2.895 1.211-2.895 2.267 0 1.316.796 2.015 2.854 2.015 3 0 4.592-1.755 4.592-4.282v-.764l-4.56.764h.009Zm18.294-8.953c.868-1.642 2.822-2.779 5.645-2.779 4.559 0 6.979 3.071 6.979 7.637v11.952h-5.138v-11.367c0-2.226-.941-3.762-3.216-3.762-2.501 0-3.876 1.609-3.876 4.168v10.969h-5.138v-19.158h4.736v2.34h.008Zm29.943-10.603h5.138v27.421h-4.744v-2.34c-1.19 1.755-3.329 2.778-6.006 2.778-5.5 0-8.717-4.46-8.717-10.018 0-5.557 3.217-10.017 8.717-10.017 2.677 0 4.631 1.17 5.604 2.486v-10.31h.008Zm-4.519 12.39c-2.862 0-4.664 2.34-4.664 5.443 0 3.104 1.81 5.444 4.664 5.444 2.855 0 4.664-2.34 4.664-5.444 0-3.103-1.809-5.443-4.664-5.443Zm24.582.585s-.538-.106-1.013-.106c-2.999 0-4.559 1.495-4.559 5.005v9.539h-5.138v-19.15h4.736v2.486c.692-1.138 2.139-2.673 5.355-2.673.177 0 .611.04.611.04v4.859h.008Zm1.167 4.867c0-5.444 3.868-10.018 9.947-10.018 6.079 0 9.946 4.566 9.946 10.018 0 5.451-3.867 10.017-9.946 10.017s-9.947-4.566-9.947-10.017Zm9.955 5.443c2.717 0 4.808-2.007 4.808-5.443 0-3.437-2.099-5.444-4.808-5.444-2.71 0-4.809 2.007-4.809 5.444 0 3.436 2.099 5.443 4.809 5.443Zm30.049 4.136h-5.139v-11.367c0-2.12-.764-3.762-3.039-3.762-2.276 0-3.691 1.577-3.691 4.128v11.001h-5.138v-19.158h4.736v2.34c.868-1.642 2.75-2.779 5.46-2.779 2.573 0 4.414 1.024 5.5 2.705 1.664-1.86 3.586-2.705 6.296-2.705 4.559 0 6.875 3.185 6.875 7.637v11.952h-5.138v-11.367c0-2.12-.756-3.762-3.04-3.762-2.42 0-3.69 1.577-3.69 4.241v10.896h.008Zm19.957-8.084c.361 2.632 2.026 4.062 4.591 4.062 1.56 0 3.039-.691 3.651-2.08h5.17c-1.118 3.876-4.591 6.541-8.974 6.541-5.604 0-9.553-4.168-9.553-10.051 0-5.882 3.908-9.977 9.513-9.977s9.408 4.314 9.408 9.977c0 .837-.072 1.536-.072 1.536h-13.751l.017-.008Zm.072-3.73h8.612c-.362-2.161-1.914-3.623-4.302-3.623s-3.868 1.422-4.302 3.623h-.008Zm30.123-15.607h5.138v27.421h-4.744v-2.34c-1.19 1.755-3.329 2.778-6.007 2.778-5.5 0-8.716-4.46-8.716-10.018 0-5.557 3.216-10.017 8.716-10.017 2.678 0 4.632 1.17 5.605 2.486v-10.31h.008Zm-4.527 12.39c-2.863 0-4.664 2.34-4.664 5.443 0 3.104 1.809 5.444 4.664 5.444 2.854 0 4.664-2.34 4.664-5.444 0-3.103-1.81-5.443-4.664-5.443Zm12.986 9.579c0-3.331 2.276-5.297 7.341-6.102l5.066-.772v-.178c0-1.861-1.158-2.811-3.401-2.811-2.388 0-3.329 1.023-3.506 2.339H267.6c.29-3.331 2.533-6.621 8.54-6.621 5.572 0 8.322 2.673 8.322 7.125v9.027c0 1.243.217 2.673.539 3.437h-4.953s-.217-.878-.217-2.121c-1.19 1.714-3.112 2.559-6.007 2.559-4.374 0-6.658-2.453-6.658-5.882Zm7.848-2.413c-2.211.406-2.895 1.211-2.895 2.267 0 1.316.796 2.015 2.855 2.015 2.999 0 4.591-1.755 4.591-4.282v-.764l-4.559.764h.008Z"/></g><defs><clipPath id="a"><path fill="#fff" d="M34 138.733h251v40.534H34z"/></clipPath></defs></svg>