<svg xmlns="http://www.w3.org/2000/svg" width="272" height="290" fill="none"><path fill="#000" d="M0 0h272v290H0z"/><path fill="#fff" fill-rule="evenodd" d="M68.786 125.631c-.963.342-2.853.999-4.201 1.46-1.348.461-3.743 1.285-5.322 1.83-1.58.546-3.533 1.22-4.342 1.498-1.709.588-2.487 1.077-3.075 1.935-.803 1.169-.846 1.6-.846 8.528v6.286l.595.371c.328.204 1.005.638 1.506.964 2.903 1.89 5.862 3.722 6.013 3.722.36 0 6.111-2.006 6.346-2.213.368-.325.306-.908-.14-1.316-.212-.194-1.11-.881-1.996-1.525-.885-.645-2.193-1.61-2.906-2.146l-1.295-.973v-3.169c0-2.918.023-3.216.29-3.77.46-.951.292-.877 6.432-2.857 2.427-.783 4.554-1.481 4.727-1.551l.315-.127v-3.794c0-2.945-.039-3.791-.175-3.784-.096.005-.963.289-1.926.631Zm130.074 11.307-.037 3.664-.49-.432c-.27-.237-.899-.634-1.398-.881-.797-.395-1.081-.457-2.347-.513-1.233-.055-1.576-.019-2.384.252-2.2.739-3.918 2.68-4.595 5.195-.301 1.118-.338 3.281-.074 4.352.947 3.84 4.378 6.299 7.929 5.681 1.093-.19 1.612-.415 2.624-1.136.366-.26.693-.474.728-.474.034 0 .081.3.104.667l.043.667 1.786.039 1.785.04v-20.785h-3.636l-.038 3.664Zm-43.985-3.294c-.054.054-.098 1.284-.098 2.735v2.638l-.945.041-.946.041-.041 1.334c-.06 1.973-.065 1.965 1.023 1.965h.906l.037 5.791.036 5.791h3.641l.037-5.791.037-5.791h2.106l-.039-1.649-.04-1.65-1.012-.041-1.012-.041-.039-2.696-.038-2.696-1.758-.039c-.967-.022-1.802.004-1.855.058Zm-83.148 4.147c-.192.08-1.573.566-3.067 1.078-2.163.742-2.773 1.008-2.99 1.301-.406.547-.209.788 1.97 2.403 1.055.781 2.5 1.853 3.212 2.383l1.296.963v3.123c0 2.961-.017 3.156-.316 3.749-.173.344-.515.759-.76.922-.389.258-2.518.988-9.043 3.099l-1.646.533v3.827c0 2.106.024 3.828.052 3.828.09 0 2.005-.647 4.99-1.686a629.91 629.91 0 0 1 3.852-1.33c4.655-1.57 8.44-2.924 8.804-3.15.631-.393 1.275-1.108 1.652-1.836l.327-.632.038-6.808.038-6.809-1.958-1.243a668.234 668.234 0 0 1-3.077-1.966c-1.761-1.135-2.877-1.842-2.953-1.87-.039-.014-.228.04-.42.121Zm20.028 1.08c-1.184.392-2.306 1.312-2.845 2.334-.403.765-.423 2.71-.036 3.44.678 1.276 1.633 2.076 3.931 3.29 1.57.83 2.03 1.247 2.03 1.835 0 .69-.536 1.105-1.438 1.114-.847.009-1.708-.363-2.588-1.118l-.574-.493-1.145 1.28-1.145 1.28.54.56c1.486 1.543 3.41 2.197 5.613 1.906 3.02-.399 4.832-2.792 4.248-5.612-.324-1.561-1.345-2.589-3.89-3.915-2.215-1.154-2.281-1.205-2.281-1.748 0-.592.364-.82 1.287-.807.676.009 1.208.262 1.996.953l.413.361 1.155-1.152c1.311-1.307 1.309-1.284.227-2.213-1.175-1.01-1.99-1.312-3.678-1.365-.809-.025-1.628.007-1.82.07Zm15.965.067c-1.021.402-1.209.5-1.89.993l-.701.505-.07-.668-.07-.669h-3.641v14.881h3.641l.074-4.422c.078-4.72.127-5.084.82-6.106.557-.822 1.291-1.189 2.386-1.192.88-.002.912.011 1.485.61.321.336.633.826.694 1.088.06.262.148 2.624.196 5.249l.087 4.773 1.541.041c.847.022 1.687.004 1.865-.04l.325-.081-.048-5.646c-.048-5.553-.054-5.659-.381-6.48-.401-1.01-1.283-1.991-2.283-2.541-.653-.358-.902-.41-2.139-.447-.945-.027-1.56.022-1.891.152Zm14.355.074c-1.189.43-1.647.729-2.594 1.688-1.701 1.724-2.322 3.497-2.2 6.29.078 1.811.294 2.571 1.114 3.937.636 1.059 2.012 2.311 3.15 2.865.912.443 1.019.462 2.631.466 1.87.003 2.386-.152 3.734-1.123.733-.528.776-.51.847.354l.041.491 1.54.041c.848.022 1.683.005 1.857-.038l.317-.079-.037-7.402-.036-7.403h-3.641l-.043.667c-.023.367-.063.667-.089.667-.025 0-.43-.257-.899-.571-1.27-.85-2.151-1.114-3.692-1.108-.89.003-1.52.085-2 .258Zm20.696-.135c-.645.165-1.897.822-2.323 1.218-.531.494-.656.424-.656-.364v-.702h-3.642v20.356h3.642v-3.369c0-1.854.031-3.37.068-3.37.038 0 .473.278.967.617 1.021.7 1.5.886 2.683 1.038 3.354.432 6.481-1.804 7.571-5.414.317-1.052.324-3.569.013-4.697-.489-1.774-1.412-3.165-2.799-4.221-1.195-.909-1.811-1.112-3.531-1.163-.848-.025-1.744.007-1.993.071Zm23.98.137c-.56.259-1.59 1.191-1.633 1.478-.013.083-.06-.196-.105-.62l-.082-.773-1.529-.04c-1.129-.029-1.559.007-1.644.141-.063.099-.115 3.448-.116 7.442l-.002 7.262.315.079c.173.043 1.008.06 1.855.038l1.541-.041.089-4.633c.092-4.776.19-5.618.748-6.473.321-.49 1.064-.922 1.404-.817.966.3.946.314 1.427-1.019.69-1.912.698-1.98.259-2.147-.598-.228-1.906-.164-2.527.123Zm44.676-.177c-3.095.79-5.243 3.177-5.763 6.408-.577 3.58 1.028 6.846 4.092 8.323 1.199.578 2.135.777 3.632.771 1.622-.007 2.608-.21 3.794-.782 1.075-.518 2.718-1.955 2.718-2.377 0-.127-.576-.482-1.468-.906l-1.468-.698-.808.529c-.975.638-1.688.857-2.794.857-1.754 0-3.134-.793-3.773-2.168-.181-.391-.33-.789-.331-.886-.001-.137 1.234-.175 5.706-.177 3.139-.001 5.795-.059 5.904-.127.25-.159.123-2.393-.195-3.451-.68-2.256-2.224-4.002-4.318-4.883-.917-.386-1.167-.427-2.827-.464-1.001-.022-1.946-.008-2.101.031Zm-39.932.401c-.046.119-.054 2.411-.018 5.093.073 5.5.138 5.91 1.199 7.553 1.203 1.863 3.349 2.713 6.125 2.424 1.91-.198 3.223-.889 4.171-2.195 1.247-1.717 1.37-2.498 1.323-8.381l-.037-4.633h-3.642l-.07 4.984-.07 4.984-.384.592c-.856 1.32-2.754 1.558-3.875.486-.85-.812-.894-1.097-.983-6.343l-.08-4.703-1.788-.039c-1.508-.033-1.801-.005-1.871.178Zm43.437 3.021c.361.155.823.413 1.027.573.431.338 1.14 1.348 1.14 1.623 0 .154-.7.19-3.781.19-4.192 0-4.063.034-3.423-.911.508-.751.663-.884 1.567-1.344 1.023-.52 2.44-.573 3.47-.131Zm-88.37.331c2.951 1.378 3.116 5.954.281 7.789-.508.328-.703.366-1.897.369-1.461.003-1.681-.081-2.707-1.04-.672-.628-.88-1.023-1.15-2.189-.177-.767-.186-1.078-.049-1.796.338-1.769 1.221-2.837 2.786-3.371.116-.039.62-.076 1.12-.081.677-.008 1.092.075 1.616.319Zm18.806.032c.769.385 1.495 1.173 1.904 2.068.174.381.247.901.249 1.798.004 1.137-.039 1.35-.44 2.166-.768 1.563-2.006 2.261-3.788 2.134-1.083-.077-1.879-.449-2.513-1.172-.775-.885-1.031-1.646-1.037-3.076-.004-1.094.046-1.371.378-2.061.702-1.464 1.894-2.213 3.53-2.218.786-.002 1.136.071 1.717.361Zm51.355-.034c.808.377 1.523 1.132 1.942 2.049.405.89.397 2.882-.017 3.812-.645 1.45-1.731 2.23-3.256 2.339-1.761.125-3.009-.567-3.769-2.092-.39-.781-.433-.996-.433-2.161 0-1.536.279-2.31 1.145-3.178.796-.798 1.524-1.092 2.707-1.094.735-.002 1.155.08 1.681.325Z" clip-rule="evenodd"/></svg>