<svg xmlns="http://www.w3.org/2000/svg" width="272" height="290" fill="none"><path fill="#141920" d="M0 0h272v290H0z"/><g fill-rule="evenodd" clip-path="url(#a)" clip-rule="evenodd"><path fill="#F19E38" d="M151.89 155.999c-7.671 5.543-18.789 8.501-28.361 8.501-13.423 0-25.506-4.867-34.648-12.962-.718-.637-.075-1.505.787-1.009 9.866 5.628 22.064 9.014 34.665 9.014 8.498 0 17.847-1.724 26.442-5.301 1.299-.541 2.385.833 1.115 1.757Z"/><path fill="#F19E38" d="M155.079 152.422c-.977-1.228-6.482-.58-8.952-.293-.753.09-.868-.552-.19-1.014 4.384-3.025 11.578-2.152 12.417-1.138.839 1.02-.218 8.09-4.338 11.464-.632.518-1.236.242-.954-.445.925-2.265 2.999-7.34 2.017-8.574Z"/><path fill="#fff" d="M146.299 129.759v-2.941c0-.445.345-.743.759-.743h13.428c.431 0 .776.304.776.743v2.518c-.006.423-.368.975-1.012 1.848l-6.958 9.74c2.586-.062 5.315.316 7.659 1.611.529.293.673.721.713 1.144v3.138c0 .428-.483.929-.988.67-4.132-2.124-9.619-2.355-14.187.023-.465.248-.954-.248-.954-.676v-2.98c0-.479.006-1.296.494-2.023l8.062-11.334h-7.016c-.431 0-.776-.299-.776-.738Zm-48.983 18.348h-4.085c-.391-.028-.701-.316-.73-.682v-20.556c0-.411.35-.738.787-.738h3.81a.763.763 0 0 1 .74.687v2.687h.076c.994-2.597 2.861-3.808 5.378-3.808 2.557 0 4.154 1.211 5.303 3.808.988-2.597 3.235-3.808 5.643-3.808 1.712 0 3.585.693 4.728 2.248 1.293 1.729 1.029 4.242 1.029 6.445l-.006 12.973c0 .411-.35.744-.787.744h-4.08c-.407-.028-.735-.349-.735-.744v-10.895c0-.867.08-3.031-.115-3.853-.304-1.38-1.218-1.769-2.402-1.769-.988 0-2.022.648-2.442 1.685-.419 1.036-.379 2.771-.379 3.937v10.895c0 .411-.35.744-.787.744h-4.08c-.413-.028-.735-.349-.735-.744l-.006-10.895c0-2.293.385-5.667-2.517-5.667-2.936 0-2.82 3.29-2.82 5.667v10.895c0 .411-.351.744-.788.744Zm75.506-22.41c6.062 0 9.343 5.104 9.343 11.594 0 6.27-3.626 11.244-9.343 11.244-5.952 0-9.193-5.104-9.193-11.464 0-6.4 3.281-11.374 9.193-11.374Zm.035 4.197c-3.011 0-3.201 4.022-3.201 6.529 0 2.513-.04 7.876 3.166 7.876 3.166 0 3.316-4.327 3.316-6.963 0-1.735-.075-3.808-.609-5.453-.46-1.431-1.374-1.989-2.672-1.989Zm17.168 18.213h-4.068c-.408-.028-.735-.349-.735-.744l-.006-20.562c.034-.377.373-.67.787-.67h3.787a.777.777 0 0 1 .729.575v3.143h.075c1.143-2.811 2.746-4.152 5.568-4.152 1.833 0 3.62.648 4.769 2.423 1.069 1.645 1.069 4.411 1.069 6.399v12.94c-.046.361-.385.648-.788.648h-4.096c-.374-.028-.684-.299-.724-.648v-11.165c0-2.248.264-5.538-2.557-5.538-.994 0-1.908.653-2.362 1.645-.575 1.256-.649 2.507-.649 3.893v11.069c-.006.411-.362.744-.799.744Zm-54.43-9.819c0 1.56.04 2.862-.764 4.247-.65 1.127-1.684 1.82-2.827 1.82-1.569 0-2.488-1.172-2.488-2.901 0-3.414 3.12-4.034 6.079-4.034v.868Zm4.12 9.762c-.271.237-.661.254-.966.096-1.356-1.104-1.603-1.617-2.344-2.67-2.241 2.242-3.833 2.912-6.734 2.912-3.442 0-6.114-2.078-6.114-6.241 0-3.251 1.793-5.465 4.356-6.546 2.217-.958 5.314-1.127 7.682-1.392v-.518c0-.952.074-2.079-.5-2.901-.494-.738-1.448-1.042-2.293-1.042-1.557 0-2.942.783-3.281 2.405-.069.361-.339.715-.712.732l-3.959-.416c-.333-.074-.707-.338-.609-.84.908-4.709 5.252-6.129 9.136-6.129 1.988 0 4.585.518 6.154 1.994 1.988 1.82 1.798 4.248 1.798 6.89v6.242c0 1.876.793 2.698 1.54 3.712.259.361.316.794-.017 1.065-.833.681-2.316 1.949-3.132 2.659l-.005-.012Zm-57.677-9.762c0 1.56.04 2.862-.765 4.247-.649 1.127-1.677 1.82-2.827 1.82-1.568 0-2.482-1.172-2.482-2.901 0-3.414 3.12-4.034 6.074-4.034v.868Zm4.12 9.762c-.27.237-.661.254-.966.096-1.356-1.104-1.597-1.617-2.344-2.67-2.241 2.242-3.827 2.912-6.734 2.912-3.436 0-6.114-2.078-6.114-6.241 0-3.251 1.799-5.465 4.355-6.546 2.218-.958 5.315-1.127 7.683-1.392v-.518c0-.952.074-2.079-.495-2.901-.5-.738-1.453-1.042-2.292-1.042-1.557 0-2.948.783-3.287 2.405-.069.361-.339.715-.707.732l-3.964-.416c-.333-.074-.701-.338-.61-.84.914-4.709 5.252-6.129 9.137-6.129 1.988 0 4.585.518 6.154 1.994 1.988 1.82 1.798 4.248 1.798 6.89v6.242c0 1.876.793 2.698 1.54 3.712.264.361.322.794-.012 1.065-.833.681-2.315 1.949-3.131 2.659l-.012-.012Z"/></g><defs><clipPath id="a"><path fill="#fff" d="M70 125.5h132v39H70z"/></clipPath></defs></svg>