<svg xmlns="http://www.w3.org/2000/svg" width="272" height="290" fill="none"><path fill="#1A3846" d="M0 0h272v290H0z"/><g clip-path="url(#a)"><mask id="b" width="37" height="39" x="62" y="126" maskUnits="userSpaceOnUse" style="mask-type:luminance"><path fill="#fff" d="M98.085 126.005h-35.58v38h35.58v-38Z"/></mask><g fill="#fff" mask="url(#b)"><path d="m76.647 140.2-3.741 3.774 6.253 6.302 9.484-9.567-3.741-3.774-5.743 5.793-2.512-2.528Z"/><path d="M94.544 126.41c-.633.132-1.284 0-1.935 0H67.998c-.651 0-1.303.132-1.935 0H62.88v21.399c0 3.742 2.801 7.449 8.564 11.335 3.836 2.587 7.62 4.302 7.78 4.373l1.078.486 1.08-.486c.158-.071 3.942-1.786 7.779-4.373 5.763-3.886 8.564-7.593 8.564-11.335V126.41h-3.182Zm-2.11 21.399c0 .632-.444 2.994-6.16 6.862-2.307 1.561-4.651 2.797-5.97 3.454-1.32-.657-3.664-1.893-5.972-3.454-5.716-3.868-6.16-6.23-6.16-6.862v-16.063c4.944-.058 12.131 0 12.131 0s7.188-.058 12.132 0v16.063Z"/></g><path fill="#fff" d="M123.2 131.687v9.31h-3.408v-8.273c0-.904-.219-1.596-.656-2.075-.419-.479-1.031-.718-1.835-.718-.786 0-1.433.266-1.94.798-.507.532-.76 1.224-.76 2.075v8.193h-3.408v-13.593h3.172v1.543c.909-1.33 2.255-1.995 4.037-1.995 1.504 0 2.674.434 3.513 1.303.857.851 1.285 1.995 1.285 3.432Zm14.269-2.714c1.311 1.33 1.966 3.068 1.966 5.214 0 2.146-.655 3.892-1.966 5.24-1.293 1.33-2.954 1.995-4.981 1.995-2.045 0-3.723-.665-5.034-1.995-1.293-1.348-1.94-3.094-1.94-5.24 0-2.146.647-3.884 1.94-5.214 1.311-1.347 2.989-2.021 5.034-2.021 2.027 0 3.688.674 4.981 2.021Zm-8.494 5.214c0 1.312.314 2.358.944 3.139.646.78 1.503 1.17 2.569 1.17 1.049 0 1.887-.39 2.517-1.17.646-.781.97-1.827.97-3.139 0-1.295-.324-2.332-.97-3.112-.63-.798-1.468-1.197-2.517-1.197-1.066 0-1.923.399-2.569 1.197-.63.78-.944 1.817-.944 3.112Zm21.028-6.786h3.539l-4.562 13.592h-4.142l-4.535-13.592h3.591l1.337 4.442c.804 2.713 1.381 4.77 1.731 6.171.542-2.199 1.11-4.256 1.704-6.171l1.337-4.442Zm16.942 4.419v9.177h-3.067v-1.41c-.892 1.241-2.333 1.862-4.326 1.862-1.433 0-2.595-.337-3.487-1.011-.874-.674-1.311-1.632-1.311-2.873 0-1.365.49-2.42 1.468-3.165.979-.745 2.421-1.286 4.326-1.623l3.146-.585v-.319c0-.656-.227-1.162-.681-1.516-.437-.373-1.049-.559-1.835-.559-.857 0-1.556.168-2.098.505-.629.39-1.319.958-2.071 1.703l-2.15-1.995c1.696-2.04 3.784-3.059 6.266-3.059 1.853 0 3.286.434 4.3 1.303 1.013.869 1.52 2.057 1.52 3.565Zm-3.251 3.644v-.798l-2.254.479c-1.206.266-2.071.558-2.596.877-.507.302-.76.736-.76 1.304 0 .425.175.762.524 1.011.367.23.874.345 1.521.345 1.049 0 1.905-.275 2.569-.824.664-.55.996-1.348.996-2.394Zm-40.809 14.435c1.119 1.312 1.678 3.041 1.678 5.187 0 2.146-.559 3.883-1.678 5.213-1.118 1.313-2.543 1.969-4.273 1.969-1.888 0-3.303-.701-4.247-2.102v1.729h-3.172v-18.886h3.408v6.73c.961-1.223 2.307-1.835 4.037-1.835 1.731 0 3.146.665 4.247 1.995Zm-2.674 8.246c.595-.763.892-1.782.892-3.059 0-1.277-.297-2.297-.892-3.059-.576-.763-1.363-1.144-2.359-1.144s-1.809.39-2.438 1.17c-.629.763-.944 1.774-.944 3.033 0 1.277.306 2.296.917 3.059.63.745 1.442 1.117 2.439 1.117.996 0 1.791-.372 2.385-1.117Zm17.233-.613 1.914 2.128c-.926.957-1.861 1.64-2.805 2.048-.944.408-2.001.612-3.172.612-2.15 0-3.863-.647-5.139-1.942-1.258-1.294-1.887-3.032-1.887-5.214 0-2.145.612-3.901 1.835-5.266 1.224-1.366 2.858-2.049 4.903-2.049 1.992 0 3.53.595 4.614 1.783 1.101 1.188 1.651 2.855 1.651 5 0 .373-.017.825-.052 1.357h-9.622c.158 1.082.551 1.924 1.18 2.527.647.585 1.512.878 2.596.878.751 0 1.389-.133 1.913-.399.56-.266 1.25-.754 2.071-1.463Zm-7.681-4.017h6.266c-.07-.922-.376-1.64-.918-2.154-.524-.532-1.232-.798-2.123-.798-1.731 0-2.805.984-3.225 2.952Zm23.985-.931v9.31h-3.408v-8.272c0-.905-.219-1.596-.656-2.075-.419-.479-1.031-.718-1.835-.718-.786 0-1.433.266-1.94.798-.507.532-.76 1.223-.76 2.074v8.193h-3.408v-13.592h3.172v1.542c.909-1.33 2.255-1.995 4.037-1.995 1.503 0 2.674.435 3.513 1.304.857.851 1.285 1.995 1.285 3.431Zm13.404 4.948 1.913 2.128c-.926.957-1.861 1.64-2.805 2.048-.944.408-2.001.612-3.172.612-2.15 0-3.863-.647-5.138-1.942-1.259-1.294-1.888-3.032-1.888-5.214 0-2.145.612-3.901 1.835-5.266 1.224-1.366 2.858-2.049 4.903-2.049 1.992 0 3.53.595 4.614 1.783 1.101 1.188 1.651 2.855 1.651 5 0 .373-.017.825-.052 1.357h-9.622c.158 1.082.551 1.924 1.18 2.527.647.585 1.512.878 2.596.878.751 0 1.389-.133 1.913-.399.56-.266 1.25-.754 2.072-1.463Zm-7.682-4.017h6.266c-.07-.922-.376-1.64-.918-2.154-.524-.532-1.232-.798-2.123-.798-1.731 0-2.805.984-3.225 2.952Zm16.448-6.195v.984h2.936v2.633h-2.936v10.96h-3.408v-10.96h-2.307v-2.633h2.307v-1.197c0-2.944 1.389-4.416 4.168-4.416.734 0 1.529.107 2.386.32l-.42 2.686a6.912 6.912 0 0 0-1.179-.133c-.595 0-1.005.133-1.233.399-.209.248-.314.701-.314 1.357Zm4.798-4.309h3.408v3.245h-3.408v-3.245Zm0 18.886v-13.593h3.408v13.593h-3.408Zm14.167-2.924.393 2.74a9.192 9.192 0 0 1-3.015.506c-1.31 0-2.272-.311-2.884-.931-.611-.639-.917-1.605-.917-2.9v-7.448h-2.386v-2.633h2.386v-4.203h3.408v4.203h3.199v2.633h-3.199v7.023c0 .461.105.789.315.984.209.177.55.266 1.022.266s1.031-.08 1.678-.24Zm13.491-8.996-1.835 2.261c-.769-.62-1.45-1.037-2.045-1.25-.576-.23-1.232-.346-1.966-.346-.681 0-1.232.125-1.652.373-.401.248-.603.576-.603.984 0 .284.097.505.289.665.297.231 1.241.523 2.831.878 1.94.443 3.286.966 4.038 1.569.769.603 1.153 1.525 1.153 2.767 0 1.347-.515 2.429-1.547 3.245-1.031.798-2.429 1.197-4.194 1.197-1.294 0-2.438-.195-3.435-.585-.978-.39-1.992-1.055-3.041-1.995l1.967-2.235c.961.798 1.765 1.339 2.411 1.623.665.266 1.39.399 2.176.399.699 0 1.259-.124 1.678-.373.437-.248.656-.602.656-1.064 0-.372-.132-.647-.394-.824a2.121 2.121 0 0 0-.943-.452 38.833 38.833 0 0 0-1.967-.479c-1.905-.426-3.207-.931-3.906-1.516-.682-.603-1.022-1.508-1.022-2.714 0-1.205.498-2.216 1.494-3.032 1.014-.816 2.377-1.224 4.09-1.224 1.171 0 2.193.16 3.067.479.874.319 1.774.869 2.7 1.649Z"/></g><defs><clipPath id="a"><path fill="#fff" d="M62.5 126h147v38h-147z"/></clipPath></defs></svg>