<svg xmlns="http://www.w3.org/2000/svg" width="272" height="290" fill="none"><path fill="#DC5C36" d="M0 0h272v290H0z"/><path fill="#fff" d="M182.93 137.123c-3.12 0-4.685 1.359-4.685 4.435v11.584h3.691v-11.408c0-1.012.462-1.501 1.525-1.501h3.229v-3.11h-3.76Zm7.661-7.233a2.202 2.202 0 0 0-2.201 2.201c0 1.222.994 2.166 2.201 2.166s2.235-.978 2.235-2.166-.993-2.201-2.235-2.201Zm1.847 7.159h-3.656v16.063h3.656v-16.063Zm-73.185 13.027c-1.063 0-1.525-.279-1.525-1.325v-18.836h-3.691v18.836c0 3.178 1.808 4.435 4.645 4.435h1.952v-3.11h-1.381Zm43.632-13.012c-3.12 0-4.685 1.359-4.685 4.435v11.628h3.691v-11.452c0-1.013.462-1.501 1.525-1.501h3.229v-3.11h-3.76Zm9.543.014v-4.014h-3.691v15.642c0 3.037 1.595 4.435 4.685 4.435h2.767v-3.11h-2.236c-.993 0-1.525-.347-1.525-1.325v-8.518h3.761v-3.11h-3.761Zm23.095.099v22.918h3.691v-8.347a8.233 8.233 0 0 0 4.645 1.433c4.506 0 8.157-3.594 8.157-8.029 0-4.435-3.651-8.029-8.157-8.029a8.209 8.209 0 0 0-4.645 1.433v-1.379h-3.691Zm3.691 7.975c0-2.528 2.082-4.572 4.645-4.572 2.564 0 4.645 2.049 4.645 4.572s-2.081 4.572-4.645 4.572c-2.563 0-4.645-2.049-4.645-4.572Zm-62.26-.347c0-4.89-3.333-7.682-7.7-7.682-4.893 0-7.909 3.354-7.909 7.995 0 4.64 3.334 8.068 7.983 8.068 4.114 0 6.28-1.814 7.308-4.817h-3.974c-.601 1.154-1.739 1.678-3.408 1.678-2.201 0-4.009-1.36-4.148-3.805h11.778c.07-.767.07-1.12.07-1.432v-.005Zm-11.813-1.154c.318-2.132 1.843-3.423 4.222-3.423 2.38 0 3.691 1.222 3.9 3.423h-8.122Zm-17.06 4.014c-.601 1.677-1.738 2.377-3.442 2.377-2.802 0-4.009-2.167-4.009-4.924 0-2.758 1.381-4.89 4.078-4.89 1.704 0 2.837.875 3.368 2.376h3.94c-.924-3.667-3.691-5.481-7.377-5.481-4.968 0-7.77 3.491-7.77 7.995 0 4.889 3.299 8.068 7.77 8.068 4.47 0 6.631-2.479 7.377-5.516h-3.94l.005-.005Zm-20.959-9.883c-6.21 4.47-11.565 10.337-16.354 15.261-.353.347-.814.592-1.311.592-.601 0-1.063-.347-1.49-.978-1.243-1.814-3.12-6.215-3.975-8.137-.675-1.569-.318-2.865 1.277-3.525 1.594-.631 3.368-.734 3.795 1.046 0 0 .815 3.11 1.063 4.015 4.933-4.504 10.999-9.286 16.14-12.22a7.567 7.567 0 0 0-6.666-3.98H67.435c-4.188 0-7.556 3.315-7.556 7.403v12.009c0 4.083 3.368 7.404 7.556 7.404H79.6c4.148 0 7.521-3.316 7.521-7.404v-11.486Zm64.307-.605v1.379a8.228 8.228 0 0 0-4.645-1.433c-4.505 0-8.157 3.594-8.157 8.029 0 4.435 3.652 8.029 8.157 8.029a8.204 8.204 0 0 0 4.645-1.433v1.364h3.691v-15.935h-3.691Zm-4.645 12.547c-2.568 0-4.644-2.049-4.644-4.572s2.081-4.572 4.644-4.572c2.564 0 4.645 2.049 4.645 4.572s-2.081 4.572-4.645 4.572Z"/></svg>