<svg xmlns="http://www.w3.org/2000/svg" width="272" height="290" fill="none"><path fill="#EC692C" d="M0 0h272v290H0z"/><path fill="#fff" fill-rule="evenodd" d="M161.994 125.083c-.162.069-.403.291-.537.493-.221.336-.248.855-.309 5.881l-.067 5.512-.737-.551c-3.814-2.852-9.505-2.759-13.311.218-1.364 1.066-2.741 3.228-3.268 5.131-.189.682-.241 1.38-.243 3.269-.003 2.151.029 2.506.31 3.402 1.113 3.546 3.545 5.95 6.968 6.887 5.197 1.423 10.411-.859 12.491-5.467.898-1.989.861-1.46.908-13.254l.042-10.7-.378-.421c-.293-.327-.511-.432-.976-.473-.33-.028-.732.004-.893.073Zm-52.346 4.885c-.856.262-1.879 1.206-2.263 2.089-.36.828-.41 1.87-.136 2.839.263.928 1.404 2.066 2.403 2.397 2.575.851 5.161-.987 5.157-3.665-.004-2.675-2.53-4.466-5.161-3.66Zm-20.36 4.409c-1.874.227-4.14 1.148-5.53 2.247-1.538 1.217-2.794 3.235-3.324 5.343-.413 1.641-.42 4.574-.017 6.088.339 1.269 1.207 3.009 2.013 4.03 3.661 4.642 11.662 4.901 15.735.51 1.22-1.316 2.131-3.071 2.537-4.891.292-1.308.216-4.569-.137-5.87-.517-1.907-1.25-3.177-2.623-4.541-1.39-1.38-2.725-2.142-4.557-2.6-1.049-.263-3.182-.427-4.097-.316Zm40.756.002c-3.715.462-6.602 2.396-8.089 5.42-.854 1.738-1.096 2.923-1.084 5.304.014 2.771.512 4.466 1.905 6.487 2.352 3.414 7.056 4.955 11.425 3.743 3.541-.982 6.087-3.515 7.062-7.028.344-1.236.349-5.287.008-6.538-.962-3.537-3.638-6.165-7.197-7.07-1.07-.272-3.109-.433-4.03-.318Zm44.697.061c-3.888.648-6.835 3.16-8.045 6.86-.297.906-.36 1.385-.418 3.171-.059 1.833-.031 2.262.22 3.342.598 2.575 2.027 4.719 4.078 6.12 4.121 2.814 10.316 2.204 13.664-1.345.422-.448.83-.814.905-.814.076 0 .303.247.505.549.528.789 1.49 1.832 2.097 2.273.773.562 1.56.535 2.172-.074.363-.361.455-.557.451-.967-.006-.668-.222-1.035-.941-1.602-.699-.55-1.325-1.393-1.73-2.33-.613-1.419-.671-2.106-.674-7.969-.002-6.143.009-6.066-.914-6.502-.985-.465-2.172.228-2.172 1.268 0 .299-.035.544-.079.544-.043 0-.32-.206-.615-.457-1.093-.93-3.116-1.797-4.853-2.077-.964-.156-2.681-.151-3.651.01Zm-113.029.775c-.537.335-.712.659-.712 1.314 0 .584.221.928 1.358 2.115 3.791 3.956 5.607 6.014 5.61 6.356.003.268-.237.622-.901 1.334l-1.643 1.762c-.405.436-1.165 1.247-1.688 1.802-2.685 2.848-2.736 2.915-2.736 3.568 0 .508.072.674.456 1.056.381.38.551.453 1.039.449.402-.003.691-.096.931-.3.192-.162 1.694-1.736 3.338-3.497 1.645-1.762 3.141-3.27 3.327-3.351.185-.082.448-.12.583-.085.136.036 1.56 1.452 3.163 3.147 4.184 4.425 3.814 4.091 4.538 4.091.523 0 .686-.069 1.073-.454.363-.361.455-.557.45-.967-.002-.282-.077-.644-.167-.803-.173-.307-.267-.41-3.372-3.713a5349.13 5349.13 0 0 1-2.717-2.892c-.821-.876-.893-1.256-.357-1.892.311-.37 1.594-1.74 4.95-5.29.52-.55 1.109-1.2 1.308-1.444.906-1.115-.038-2.764-1.433-2.504-.405.076-1.309.872-2.566 2.263-.807.892-4.317 4.609-4.52 4.787-.653.572-.81.454-4.03-3.002-1.657-1.779-3.194-3.405-3.416-3.613-.536-.502-1.288-.598-1.866-.237Zm40.631-.061c-.575.249-.855.697-.855 1.368 0 .671-.128.51 3.471 4.354l2.602 2.779.795-.777c.437-.428.912-.939 1.056-1.137l.262-.359-1.982-2.115c-1.089-1.163-2.36-2.522-2.824-3.02-1.193-1.282-1.641-1.475-2.525-1.093Zm15.837.057c-.357.219-1.727 1.626-4.695 4.822-.512.55-1.007 1.08-1.101 1.176-.094.097-.17.211-.17.252 0 .087 1.884 2.088 2.022 2.147.051.021.446-.336.878-.794l1.735-1.841a644.64 644.64 0 0 1 1.926-2.035c1.403-1.478 1.617-1.8 1.617-2.437 0-.63-.257-1.057-.806-1.339-.515-.265-.919-.251-1.406.049Zm72.773.012c-.235.142-.495.385-.578.539-.107.199-.136 1.897-.102 5.844.047 5.322.062 5.608.352 6.565.876 2.89 2.617 4.974 5.179 6.203 1.751.839 2.745 1.058 4.827 1.059 1.389.001 1.969-.059 2.859-.298 1.31-.351 2.612-.976 3.643-1.748l.737-.552.039 1.257c.111 3.662-1.607 6.4-4.664 7.432-.603.204-1.306.312-2.279.352-1.416.057-1.698.01-3.826-.637-.467-.143-.609-.133-1.045.073-1.199.566-1.186 2.174.023 2.791 1.197.611 2.619.892 4.54.897 1.646.004 3.196-.302 4.552-.899 2.511-1.105 4.562-3.494 5.429-6.323.306-1 .306-1.007.35-11.373.03-7.388 0-10.452-.105-10.648-.204-.378-.924-.794-1.378-.794-.206 0-.552.091-.769.202-.784.404-.799.513-.802 5.828-.003 5.448-.072 6.056-.879 7.687-1.16 2.346-3.452 3.65-6.425 3.655-3.887.007-6.638-2.329-7.162-6.083-.081-.574-.145-3.053-.145-5.569 0-4.976-.02-5.117-.8-5.518-.531-.273-1.057-.254-1.571.058Zm-12.108 2.484c2.865.84 4.573 2.965 4.965 6.178.335 2.736-.472 5.276-2.185 6.878-.77.721-2.172 1.429-3.289 1.663-1.744.364-4.163.028-5.573-.775-1.435-.817-2.701-2.493-3.183-4.213-.123-.441-.183-1.324-.176-2.602.009-1.581.061-2.074.282-2.696 1.102-3.101 3.874-4.894 7.282-4.711.627.034 1.471.159 1.877.278Zm-86.29-.008c2.547.66 4.314 2.434 5 5.019.3 1.132.291 3.479-.018 4.653-.87 3.311-3.423 5.203-7.018 5.203-2.193 0-3.841-.626-5.18-1.968-1.392-1.397-2.08-3.218-2.08-5.503.001-2.484.65-4.254 2.076-5.671 1.343-1.332 2.87-1.909 5.098-1.925.798-.006 1.662.072 2.122.192Zm40.701-.005c2.02.535 3.562 1.749 4.369 3.439 1.515 3.175.993 7.283-1.204 9.469-1.371 1.365-2.999 1.972-5.283 1.972-3.609 0-6.241-2.081-7.002-5.537-.242-1.101-.212-3.276.059-4.319.661-2.537 2.445-4.357 4.911-5.008.965-.255 3.214-.264 4.15-.016Zm22.602.008c1.303.333 2.209.846 3.156 1.787 1.57 1.562 2.221 3.432 2.091 6.014-.142 2.815-1.31 4.888-3.489 6.188-1.912 1.141-5.252 1.196-7.381.123-1.038-.524-2.25-1.763-2.817-2.882-.687-1.357-.927-2.618-.841-4.43.163-3.457 1.958-5.89 4.985-6.755 1.042-.298 3.217-.321 4.296-.045Zm-45.588 5.851c-.222.097-.603.41-.848.696s-.698.79-1.006 1.121c-7.444 7.987-6.915 7.364-6.923 8.154-.006.57.396 1.142.974 1.383.642.269 1.277.046 1.971-.694l3.15-3.364a568.204 568.204 0 0 1 2.725-2.899c.097-.098.378-.179.624-.179.474 0 .298-.17 5.299 5.128 1.975 2.093 1.955 2.077 2.637 2.077.512 0 .679-.071 1.063-.454.388-.386.456-.546.456-1.075 0-.7.315-.302-3.288-4.141a1338.804 1338.804 0 0 1-2.14-2.284c-2.777-3.02-3.508-3.667-4.12-3.649-.095.003-.353.084-.574.18Z" clip-rule="evenodd"/></svg>