<svg xmlns="http://www.w3.org/2000/svg" width="318" height="318" fill="none"><path fill="#2B399E" d="M0 0h318v318H0z"/><path fill="#FFF9AB" d="M239.824 142.831c.134-.172.875-1.085 1.646-2.03.772-.945 1.455-1.717 1.516-1.717.062 0 .378.054.702.12.561.115 1.176.23 2.674.5 1.49.269 2.117.383 2.754.5.367.068.801.144.963.17.174.028.319.107.351.191.03.079.2.556.379 1.061l1.73 4.887.461 1.304-.875 1.072a859.337 859.337 0 0 1-2.344 2.863c-.281.344-.765.934-1.077 1.312-.562.682-.626.858-.415 1.147.033.046.098.215.144.375.045.16.16.498.255.75.094.252.246.684.336.959.09.275.198.575.24.666.042.092.11.28.15.417.041.138.151.456.246.709.094.252.245.683.335.958.091.275.197.575.237.667.078.176.282.762.401 1.147.081.264.166.148-2.186 3.021a567.12 567.12 0 0 0-2.014 2.476c-.328.41-.623.713-.655.676a1.53 1.53 0 0 1-.146-.319l-.58-1.646a756.565 756.565 0 0 0-1.68-4.753l-.203-.565.2-.269c.195-.263 1.328-1.657 2.883-3.549 1.842-2.241 1.817-2.198 1.595-2.708a13.101 13.101 0 0 1-.295-.804 40.44 40.44 0 0 0-.562-1.584 33.01 33.01 0 0 1-.333-.958 10 10 0 0 0-.241-.667 3.947 3.947 0 0 1-.15-.417c-.04-.137-.152-.456-.248-.708a23.71 23.71 0 0 1-.35-1.019l-.176-.56-.405-.079c-.222-.043-.751-.14-1.174-.216-.423-.076-1.042-.19-1.376-.254-.334-.064-.954-.177-1.377-.251-.423-.073-1.042-.184-1.376-.246-1.861-.347-1.712-.338-1.884-.117a209.27 209.27 0 0 1-1.963 2.408c-.178.214-.651.795-1.052 1.291-1.871 2.313-1.612 2.119-2.569 1.923a77.484 77.484 0 0 0-1.277-.246l-1.377-.251c-.378-.069-1.034-.187-1.457-.262a49.636 49.636 0 0 1-1.326-.254 5.795 5.795 0 0 0-.769-.118c-.454-.003-.447-.111.046-.724 3.4-4.231 4.426-5.438 4.59-5.398.283.068 1.514.292 2.034.369.267.04.668.112.89.16.223.048.733.145 1.134.216l1.457.258c.401.071.959.178 1.24.239l.51.11.785-.96c.432-.528.894-1.101 1.028-1.273ZM70.989 177.954H65v-19.435h5.639l.389 2.021c1.205-1.671 3.422-2.643 5.95-2.643 4.627 0 7.31 2.954 7.31 8.046v12.011H78.3v-10.573c0-2.449-1.361-4.042-3.422-4.042-2.373 0-3.89 1.554-3.89 3.964v10.651Zm26.228.505c-5.872 0-10.072-4.276-10.072-10.262 0-6.063 4.083-10.3 9.955-10.3 6.106 0 9.917 4.003 9.917 10.339v1.516l-14.117.078c.35 2.565 1.79 3.77 4.434 3.77 2.255 0 3.85-.816 4.278-2.215h5.483c-.7 4.314-4.55 7.074-9.878 7.074Zm-.078-15.703c-2.372 0-3.694 1.049-4.16 3.381h8.088c0-2.06-1.517-3.381-3.928-3.381Zm16.987 15.198h-6.805l6.533-9.407-6.533-10.028h6.922l3.577 5.908 3.345-5.908h6.689l-6.417 9.912 6.183 9.523h-6.883l-3.344-5.598-3.267 5.598Zm13.94-9.757c0-6.141 4.511-10.261 10.733-10.261 6.184 0 10.695 4.12 10.695 10.261 0 6.142-4.511 10.223-10.695 10.223-6.222 0-10.733-4.081-10.733-10.223Zm6.028-.039c0 2.955 1.905 4.898 4.705 4.898 2.761 0 4.667-1.943 4.667-4.898 0-2.915-1.906-4.858-4.667-4.858-2.8 0-4.705 1.943-4.705 4.858Zm17.433 0c0-5.986 4.122-10.261 9.955-10.261 5.756 0 9.567 3.148 9.956 8.24h-6.028c-.428-1.943-1.633-2.876-3.694-2.876-2.528 0-4.161 1.904-4.161 4.897 0 3.11 1.516 4.937 4.083 4.937 2.1 0 3.383-.972 3.772-2.876h6.028c-.389 4.897-4.356 8.24-9.8 8.24-6.144 0-10.111-4.081-10.111-10.301Zm31.824 10.301c-5.872 0-10.072-4.276-10.072-10.262 0-6.063 4.083-10.3 9.955-10.3 6.106 0 9.917 4.003 9.917 10.339v1.516l-14.117.078c.35 2.565 1.789 3.77 4.434 3.77 2.255 0 3.849-.816 4.277-2.215h5.484c-.7 4.314-4.55 7.074-9.878 7.074Zm-.078-15.703c-2.372 0-3.694 1.049-4.161 3.381h8.089c0-2.06-1.517-3.381-3.928-3.381Zm18.718 15.703c-4.123 0-6.689-2.41-6.689-6.219 0-3.576 2.528-5.792 7.194-6.142l5.445-.427v-.311c0-1.905-1.167-2.915-3.306-2.915-2.528 0-3.889.971-3.889 2.72h-4.978c0-4.392 3.617-7.268 9.178-7.268 5.639 0 8.828 3.148 8.828 8.707v11.35h-5.289l-.389-2.566c-.622 1.788-3.189 3.071-6.105 3.071Zm2.1-4.431c2.294 0 3.888-1.127 3.888-3.343v-1.049l-3.033.272c-2.605.233-3.539.816-3.539 2.06 0 1.399.856 2.06 2.684 2.06Zm19.578 3.926h-5.989v-19.435h5.639l.389 2.021c1.206-1.671 3.422-2.643 5.95-2.643 4.628 0 7.311 2.954 7.311 8.046v12.011h-5.989v-10.573c0-2.449-1.361-4.042-3.422-4.042-2.372 0-3.889 1.554-3.889 3.964v10.651Z"/></svg>