<svg xmlns="http://www.w3.org/2000/svg" width="318" height="318" fill="none"><path fill="#171B1E" d="M0 0h318v318H0z"/><g clip-path="url(#a)"><path fill="#fff" d="m43.265 159.379 31.807-31.807 30.042 30.042-31.807 31.807z"/><path fill="url(#b)" fill-rule="evenodd" d="m97.43 149.617-22.546-22.655L43 159l7.516 7.551 11.159-11.213 13.209 13.273 15.031-15.103-2.05-2.059 9.565-1.832Zm-17.65 4.92a6.91 6.91 0 0 1-7.547 1.509 6.923 6.923 0 0 1-2.245-1.509 6.977 6.977 0 0 1-2.028-4.92c0-1.845.729-3.614 2.028-4.92a6.904 6.904 0 0 1 9.793 0 6.977 6.977 0 0 1 2.027 4.92 6.976 6.976 0 0 1-2.028 4.92Z" clip-rule="evenodd"/><path fill="#fff" d="M128.447 142.163h-7.87v13.83h3.354v-5.263h4.517a4.282 4.282 0 0 0 3.024-1.26 4.306 4.306 0 0 0 1.256-3.033c0-2.355-1.934-4.274-4.281-4.274Zm0 5.204h-4.516v-1.84h4.517a.92.92 0 0 1 0 1.839l-.001.001Zm14.819 8.625h3.629l-5.326-13.828h-3.551l-5.303 13.829h3.629l.65-1.702h5.622l.65 1.701Zm-4.991-5.064 1.519-3.997 1.539 3.997h-3.058Zm23.29-4.491c0-2.355-1.934-4.274-4.281-4.274h-7.871v13.83h3.354v-5.263h3.373l2.051 5.262h3.689l-2.367-5.895a4.319 4.319 0 0 0 2.052-3.66Zm-4.281.929h-4.517v-1.839h4.517a.92.92 0 0 1 0 1.839Zm18.993-5.203v3.364h-4.338v10.466h-3.354v-10.466h-4.34v-3.364h12.032Zm12.221 8.171-5.385-8.191h-3.689v13.809h3.354v-8.19l5.405 8.23h3.668v-13.789h-3.353v8.131Zm6.914 5.618h10.79v-3.363h-7.437v-1.84h5.82v-3.363h-5.82v-1.84h7.437v-3.383h-10.79v13.789Zm26.097-9.515c0-2.355-1.933-4.274-4.28-4.274h-7.87v13.83h3.353v-5.263h3.373l2.051 5.262h3.689l-2.368-5.895a4.299 4.299 0 0 0 2.052-3.66Zm-4.28.929h-4.517v-1.839h4.517a.92.92 0 0 1 0 1.839Zm12.583-2.492c1.361-.337 2.88.159 3.807 1.206.513-.494 1.046-.989 1.539-1.483l1.123-1.088a8.438 8.438 0 0 0-3.648-1.681c-1.282-.258-2.624-.238-3.886.117-1.026.278-2.012.753-2.702 1.545a3.94 3.94 0 0 0-1.046 2.59c0 .951.336 1.9.986 2.592.612.693 1.46 1.109 2.327 1.406.869.295 1.777.474 2.644.771.552.178 1.125.415 1.4 1.028a.932.932 0 0 1 .06.178c.137.93-.809 1.286-1.598 1.307-1.44.039-2.899-.556-3.925-1.583l-2.702 2.512c1.419 1.345 3.353 2.058 5.306 2.196 1.183.079 2.425-.039 3.53-.514 1.105-.476 2.091-1.306 2.623-2.374.553-1.089.592-2.414.04-3.482-.296-.594-.769-1.068-1.302-1.445a7.062 7.062 0 0 0-1.203-.652c-1.025-.436-2.13-.673-3.176-1.009-.454-.159-.907-.317-1.163-.772l-.06-.138c-.197-.693.454-1.089 1.026-1.227Zm18.043 3.008h-5.267v-5.678h-3.353v13.789h3.353v-4.749h5.267v4.749h3.352v-13.79h-3.352v5.679Zm7.497 8.07h3.352v-13.789h-3.352v13.789Zm15.369-13.789h-7.87v13.83h3.352v-5.263h4.518a4.278 4.278 0 0 0 3.023-1.26 4.311 4.311 0 0 0 1.257-3.033c0-2.355-1.934-4.274-4.28-4.274Zm0 5.204h-4.518v-1.84h4.518a.918.918 0 0 1 .886.92.925.925 0 0 1-.258.64.913.913 0 0 1-.628.28ZM133.6 161.137h1.196v9.716h5.188v1.083h-6.392l.008-10.799Zm18.829 10.8v-10.8h6.608v1.046h-5.449v3.779h4.951v1.046h-4.951v3.854l5.612.007v1.068h-6.771Zm18.491 0 3.91-10.8h1.353l3.895 10.8h-1.198l-1.1-3.078h-4.541l-1.129 3.078h-1.19Zm2.631-4.183h3.895l-1.933-5.452-1.962 5.452Zm18.932-6.617.431.008h.9c.347 0 .671.002.973.007 1.978.02 3.403.477 4.274 1.375.877.89 1.316 2.203 1.316 3.935 0 1.823-.469 3.192-1.405 4.108-.937.911-2.386 1.367-4.347 1.367h-2.142v-10.8Zm1.205 1.031v8.739h.929c.961 0 1.778-.142 2.452-.428a3.13 3.13 0 0 0 1.554-1.395c.356-.647.535-1.509.535-2.585 0-1.095-.175-1.956-.528-2.584a2.937 2.937 0 0 0-1.531-1.344c-.668-.269-1.474-.403-2.416-.403h-.995Zm19.258 9.769v-10.8h6.608v1.046h-5.448v3.779h4.95v1.046h-4.95v3.854l5.612.007v1.068h-6.772Zm27.157 0h-1.241l-2.022-4.787h-3.084v4.787h-1.16v-10.8h4.058c1.13 0 1.988.251 2.572.754.584.503.877 1.21.877 2.121 0 .587-.109 1.079-.327 1.472a2.754 2.754 0 0 1-.81.933c-.31.22-.65.394-1.011.516l2.148 5.004Zm-3.91-5.788c.867 0 1.537-.168 2.007-.501.472-.333.707-.851.707-1.554 0-.666-.207-1.162-.618-1.485-.41-.324-.986-.486-1.724-.486h-2.809v4.026h2.437Zm19.859 5.938a5.333 5.333 0 0 1-1.895-.337 3.82 3.82 0 0 1-1.487-.993c-.401-.438-.651-.981-.75-1.628h1.226c.144.647.486 1.137 1.026 1.471.545.328 1.169.492 1.873.492.535 0 1.011-.076 1.427-.23.416-.155.744-.374.981-.658a1.48 1.48 0 0 0 .364-.993c0-.513-.16-.926-.483-1.24-.317-.318-.782-.553-1.397-.702l-2.17-.523c-.788-.179-1.405-.485-1.851-.918-.442-.438-.664-1.014-.669-1.726 0-.608.158-1.143.475-1.605.318-.469.759-.834 1.323-1.098.565-.264 1.215-.396 1.948-.396.843 0 1.548.146 2.119.441.569.293.998.677 1.285 1.15.293.473.441.973.446 1.5h-1.211c-.05-.518-.201-.926-.453-1.225a2.094 2.094 0 0 0-.959-.649 3.664 3.664 0 0 0-1.227-.202c-.407 0-.803.075-1.189.224a2.313 2.313 0 0 0-.959.657c-.248.294-.371.662-.371 1.106 0 .409.138.742.416 1.001.278.253.782.476 1.516.665l2.103.515c.67.154 1.185.393 1.547.716.361.325.609.688.742 1.091.14.399.209.797.209 1.195 0 .533-.154 1.019-.461 1.457-.307.438-.755.789-1.345 1.053-.59.258-1.306.389-2.149.389Z"/><path fill="#292D30" d="m61.675 162.662-7.516 7.551 20.725 20.825L106.768 159l-9.339-9.383-1.822 9.611-2.05-2.059-18.673 18.765-13.21-13.272Z"/></g><defs><linearGradient id="b" x1="70.215" x2="70.215" y1="126.962" y2="168.611" gradientUnits="userSpaceOnUse"><stop stop-color="#231D89"/><stop offset=".245" stop-color="#A22C82"/><stop offset=".469" stop-color="#E92C79"/><stop offset="1" stop-color="#F9A447"/></linearGradient><clipPath id="a"><path fill="#fff" d="M43 126.962h232v64.076H43z"/></clipPath></defs></svg>