<svg xmlns="http://www.w3.org/2000/svg" width="274" height="290" fill="none"><path fill="#4A0A9A" d="M0 0h274v290H0z"/><g fill="#F1EEFD" clip-path="url(#a)"><path d="M168.258 156.776a9.073 9.073 0 0 1-1.713-2.99l-.122-.305-.123-.305-.061-.183-.122-.366-.061-.244c-.062-.183-.062-.427-.123-.671 0-.061 0-.183-.061-.244l-.061-.427v-.244l-.061-.305 17.127-4.15c-.122-.854-.367-1.769-.795-2.501a7.244 7.244 0 0 0-2.997-3.356c-1.468-.916-3.059-1.526-4.771-1.709l-.306-.061a12.83 12.83 0 0 0-3.059 0c-2.691.305-5.199 1.465-7.218 3.295-1.957 1.77-3.303 4.149-3.731 6.773v.122c-.061.183-.061.305-.061.549 0 .244 0 .183-.062.305v1.587c.062 1.403.367 2.807.857 4.088 2.263 4.576 6.729 7.566 11.745 7.566 2.079.061 4.098-.427 5.994-1.342 1.835-.916 3.426-2.258 4.588-3.905l-.306-.733c-1.223 2.319-9.604 5.187-14.497-.244Zm7.768-10.129-10.215 2.441c0-.305 0-.61.061-.915v-.366l.061-.427c.123-.611.245-1.282.428-1.892.368-1.159.857-2.196 1.591-3.173.612-.915 1.468-1.647 2.386-2.196.917-.55 1.896-.794 2.997-.794 1.468 0 2.508.428 3.181 1.221.244.305.428.61.611.915.673 1.769.612 4.637-1.101 5.186Zm-38.353 10.373c-1.223 2.319-9.543 5.187-14.497-.244a8.764 8.764 0 0 1-1.774-3.234c-.428-1.342-.612-2.745-.612-4.149 0-1.342.184-2.623.551-3.905.367-1.159.856-2.196 1.59-3.173.612-.854 1.407-1.647 2.324-2.196.918-.549 1.897-.794 2.998-.794 1.468 0 2.508.428 3.181 1.221.673.854 1.04 1.952 1.04 3.112 0 .61-.062 1.159-.245 1.708l5.199-1.22c-1.896-4.882-8.135-5.553-9.298-5.553-9.909-.183-15.353 9.153-12.172 16.719 1.957 4.576 6.484 7.566 11.5 7.627 2.079.061 4.098-.427 5.994-1.342 1.835-.916 3.426-2.258 4.588-3.905l-.367-.672Z"/><path d="M160.245 157.02c-1.224 2.319-9.543 5.187-14.498-.244a9.023 9.023 0 0 1-1.773-3.173c-.429-1.342-.612-2.745-.612-4.149 0-1.342.183-2.623.55-3.905.367-1.159.857-2.196 1.591-3.173a7.245 7.245 0 0 1 2.324-2.196c.918-.549 1.897-.794 2.998-.794 1.468 0 2.508.428 3.18 1.221a4.372 4.372 0 0 1 1.04 3.112c0 .61-.061 1.159-.244 1.708l5.199-1.22c-1.896-4.882-8.136-5.553-9.298-5.553-9.909-.183-15.353 9.153-12.173 16.719 1.958 4.576 6.484 7.566 11.439 7.627 2.08.061 4.099-.427 5.995-1.342 1.835-.916 3.425-2.258 4.588-3.905l-.306-.733Zm30.279 1.099V127l-7.34 1.769h-.062v.672c.245 0 2.508.61 2.508 2.135v26.421c0 3.356-2.385 3.783-3.976 3.905v.549H194.5v-.549c-1.59-.061-3.915-.549-3.976-3.783ZM101.827 127l-7.28 1.769h-.06v.55c.244 0 2.385.732 1.835 2.135-2.753 6.102-11.684 26.421-12.173 27.336-1.53 3.051-3.731 3.051-4.649 3.173v.549h11.378v-.549s-4.343.061-4.343-2.197c0-1.342 2.202-6.712 2.813-8.237l14.804-3.6c.061.122 4.037 9.702 4.037 11.776 0 2.197-3.548 2.258-3.67 2.258v.549h14.864v-.549c-2.141.061-4.098-1.221-5.016-3.173-.367-.915-12.54-31.79-12.54-31.79Zm1.896 19.647-13.702 3.356c.061-.183 7.524-17.572 7.708-18 .306.672 5.994 14.644 5.994 14.644Z"/></g><defs><clipPath id="a"><path fill="#fff" d="M79.5 127h115v36h-115z"/></clipPath></defs></svg>