<svg preserveAspectRatio="none" width="100%" height="100%" overflow="visible" style="display: block;" viewBox="0 0 73.0024 16.0396" fill="none" xmlns="http://www.w3.org/2000/svg">
<g id="_1705846844560">
<g id="Group">
<path id="Vector" d="M22.7294 14.99V4.9065H24.2303L24.3617 5.72408H24.4405C24.861 5.17023 25.5968 4.77463 26.5984 4.77463C28.4409 4.77463 29.9389 6.28086 29.9389 8.52262C29.9389 10.7644 28.4643 12.2706 26.5955 12.2706C25.5968 12.2706 24.9106 11.8486 24.5427 11.3739H24.4639V14.9636H22.7265V14.99H22.7294ZM28.2015 8.52262C28.2015 7.20393 27.3605 6.38342 26.3327 6.38342C25.3048 6.38342 24.4639 7.201 24.4639 8.52262C24.4639 9.84423 25.3048 10.6618 26.3327 10.6618C27.3605 10.6618 28.2015 9.84423 28.2015 8.52262Z" fill="var(--fill-0, #F1D9AF)"/>
<path id="Vector_2" d="M30.8047 8.52264C30.8047 6.3307 32.3844 4.77466 34.4605 4.77466C36.5658 4.77466 38.1164 6.36001 38.1164 8.52264C38.1164 10.7146 36.5366 12.2706 34.4605 12.2706C32.3552 12.2706 30.8047 10.6882 30.8047 8.52264ZM36.379 8.52264C36.379 7.23034 35.538 6.38345 34.4576 6.38345C33.4064 6.38345 32.5362 7.22741 32.5362 8.52264C32.5362 9.81788 33.4035 10.6618 34.4576 10.6618C35.5117 10.6618 36.379 9.81788 36.379 8.52264Z" fill="var(--fill-0, #F1D9AF)"/>
<path id="Vector_3" d="M39.3789 12.1384V2.13403H41.1163V12.1384H39.3789Z" fill="var(--fill-0, #F1D9AF)"/>
<path id="Vector_4" d="M47.5864 4.90527H49.429L46.2987 13.6965C45.9834 14.5668 45.5629 14.9888 44.4299 14.9888H42.748V13.3771H44.1671C44.4299 13.3771 44.5613 13.2452 44.6402 13.0342L44.7978 12.5595L41.8516 4.90234H43.6941L45.5629 9.91919H45.852L47.5368 4.90234H47.5864V4.90527Z" fill="var(--fill-0, #F1D9AF)"/>
<path id="Vector_5" d="M49.7715 12.5109H51.5352C51.6141 12.9856 52.0871 13.6186 53.1938 13.6186C54.245 13.6186 54.9312 12.9592 54.9312 11.9541V10.9519H54.8523C54.4581 11.3739 53.7486 11.7431 52.8521 11.7431C51.0096 11.7431 49.5642 10.319 49.5642 8.25888C49.5642 6.19881 50.9833 4.77463 52.8521 4.77463C53.7982 4.77463 54.5107 5.17023 54.9575 5.69771H55.0363L55.1677 4.9065H56.6686V11.9541C56.6686 13.8823 55.3809 15.1483 53.1967 15.1483C50.7439 15.1483 49.8241 13.5395 49.7715 12.5109ZM54.902 8.25888C54.902 7.12481 54.1136 6.33067 53.0857 6.33067C52.0871 6.33067 51.2958 7.12188 51.2958 8.25888C51.2958 9.39588 52.0842 10.1871 53.0857 10.1871C54.0873 10.1871 54.902 9.39294 54.902 8.25888Z" fill="var(--fill-0, #F1D9AF)"/>
<path id="Vector_6" d="M57.8438 8.52264C57.8438 6.3307 59.4235 4.77466 61.4996 4.77466C63.6049 4.77466 65.1554 6.36001 65.1554 8.52264C65.1554 10.7146 63.5757 12.2706 61.4996 12.2706C59.3943 12.2706 57.8438 10.6882 57.8438 8.52264ZM63.421 8.52264C63.421 7.23034 62.5537 6.38345 61.4996 6.38345C60.4484 6.38345 59.5782 7.22741 59.5782 8.52264C59.5782 9.81788 60.4455 10.6618 61.4996 10.6618C62.5508 10.6618 63.421 9.81788 63.421 8.52264Z" fill="var(--fill-0, #F1D9AF)"/>
<path id="Vector_7" d="M66.3711 12.1388V4.90653H67.872L68.0034 5.59224H68.0822C68.3713 5.27576 69.0809 4.77466 70.1613 4.77466C71.8198 4.77466 73.0024 5.96147 73.0024 7.81056V12.1651H71.265V8.04792C71.265 7.12484 70.608 6.4362 69.7116 6.4362C68.8151 6.4362 68.1056 7.14828 68.1056 8.04792V12.1651H66.3711V12.1388Z" fill="var(--fill-0, #F1D9AF)"/>
</g>
<path id="Vector_8" d="M13.3648 11.293L17.6251 8.81099C17.8616 8.67912 17.993 8.44176 17.993 8.17802V3.21392C17.993 2.95018 17.8616 2.71282 17.6251 2.58095L13.3648 0.0989011C13.1283 -0.032967 12.8655 -0.032967 12.629 0.0989011L8.3658 2.58095C8.12928 2.71282 7.99788 2.95018 7.99788 3.21392V12.0579L4.99904 13.8015L2.0002 12.0579V8.6L4.99904 6.85641L6.97296 7.99048V5.66667L5.36696 4.74359C5.26184 4.69084 5.13044 4.6381 4.99904 4.6381C4.86764 4.6381 4.73624 4.66447 4.63112 4.74359L0.36792 7.22857C0.1314 7.36044 0 7.5978 0 7.86154V12.8256C0 13.0894 0.1314 13.3267 0.36792 13.4586L4.6282 15.9407C4.86472 16.0725 5.12752 16.0725 5.36404 15.9407L9.62432 13.4586C9.86084 13.3267 9.99224 13.0894 9.99224 12.8256V3.98169L10.0448 3.95531L12.994 2.2381L15.9928 3.98169V7.43956L12.994 9.18022L11.0201 8.04615V10.37L12.6261 11.293C12.8626 11.4249 13.1254 11.4249 13.3648 11.293Z" fill="var(--fill-0, #F1D9AF)"/>
</g>
</svg>
