<svg preserveAspectRatio="none" width="100%" height="100%" overflow="visible" style="display: block;" viewBox="0 0 69.4527 20.9625" fill="none" xmlns="http://www.w3.org/2000/svg">
<g id="Amazon_logo 1" clip-path="url(#clip0_0_113)">
<path id="path8" d="M43.0805 16.374C39.0493 19.3453 33.2064 20.9306 28.1757 20.9306C21.1219 20.9306 14.7716 18.3216 9.9674 13.9825C9.58995 13.6412 9.92814 13.1762 10.3811 13.4419C15.5658 16.4585 21.9764 18.2733 28.5984 18.2733C33.0645 18.2733 37.9774 17.3493 42.4947 15.4319C43.1772 15.142 43.7479 15.8788 43.0805 16.374Z" fill="var(--fill-0, #252525)"/>
<path id="path10" d="M44.7562 14.4568C44.2428 13.7985 41.35 14.1458 40.0516 14.2998C39.656 14.3481 39.5956 14.0038 39.952 13.7562C42.2559 12.1347 46.0365 12.6027 46.4773 13.1463C46.9182 13.6928 46.3626 17.4824 44.1975 19.2912C43.8654 19.569 43.5483 19.421 43.6963 19.0526C44.1824 17.8388 45.2725 15.1181 44.7562 14.4568Z" fill="var(--fill-0, #252525)"/>
<path id="path12" d="M40.1399 2.30881V0.732574C40.1399 0.494024 40.3211 0.333984 40.5385 0.333984H47.5953C47.8218 0.333984 48.003 0.497044 48.003 0.732574V2.08234C48 2.30881 47.8097 2.60474 47.4715 3.07278L43.8148 8.2937C45.1736 8.26049 46.6079 8.4628 47.8399 9.15731C48.1177 9.31433 48.1932 9.54382 48.2144 9.77029V11.4522C48.2144 11.6817 47.9607 11.9505 47.695 11.8116C45.5239 10.6732 42.6401 10.5494 40.2395 11.8236C39.9949 11.9565 39.7383 11.6908 39.7383 11.4613V9.8639C39.7383 9.60723 39.7413 9.16939 39.998 8.77986L44.2345 2.70438H40.5475C40.3211 2.70438 40.1399 2.54435 40.1399 2.30881Z" fill="var(--fill-0, #252525)"/>
<path id="path14" d="M14.3937 12.1439H12.2468C12.0414 12.1288 11.8784 11.9748 11.8633 11.7785V0.759918C11.8633 0.539486 12.0475 0.364347 12.277 0.364347H14.279C14.4873 0.3734 14.6534 0.533445 14.6685 0.73274V2.1731H14.7078C15.2302 0.781054 16.2115 0.131836 17.5341 0.131836C18.8779 0.131836 19.7173 0.781054 20.3212 2.1731C20.8406 0.781054 22.0213 0.131836 23.2865 0.131836C24.1863 0.131836 25.1707 0.503249 25.7716 1.33666C26.4511 2.26369 26.3122 3.61044 26.3122 4.79111L26.3091 11.7453C26.3091 11.9657 26.1249 12.1439 25.8954 12.1439H23.7515C23.5371 12.1288 23.365 11.9567 23.365 11.7453V5.90535C23.365 5.44033 23.4073 4.28079 23.3046 3.83993C23.1446 3.10012 22.6645 2.89177 22.0424 2.89177C21.523 2.89177 20.9795 3.23902 20.7591 3.79463C20.5386 4.35024 20.5598 5.28028 20.5598 5.90535V11.7453C20.5598 11.9657 20.3756 12.1439 20.1461 12.1439H18.0022C17.7848 12.1288 17.6157 11.9567 17.6157 11.7453L17.6126 5.90535C17.6126 4.67636 17.8149 2.86761 16.29 2.86761C14.747 2.86761 14.8074 4.63107 14.8074 5.90535V11.7453C14.8074 11.9657 14.6232 12.1439 14.3937 12.1439Z" fill="var(--fill-0, #252525)"/>
<path id="path16" d="M54.0833 0.130859C57.269 0.130859 58.9932 2.86663 58.9932 6.34523C58.9932 9.70607 57.0879 12.3724 54.0833 12.3724C50.955 12.3724 49.252 9.63662 49.252 6.22747C49.252 2.79718 50.9762 0.130859 54.0833 0.130859ZM54.1015 2.38048C52.5192 2.38048 52.4195 4.53648 52.4195 5.88021C52.4195 7.22696 52.3984 10.1016 54.0833 10.1016C55.7472 10.1016 55.8257 7.78257 55.8257 6.36939C55.8257 5.43935 55.7864 4.32813 55.5056 3.4464C55.264 2.67942 54.7839 2.38048 54.1015 2.38048Z" fill="var(--fill-0, #252525)"/>
<path id="path18" d="M63.1192 12.1429H60.9813C60.7669 12.1278 60.5948 11.9557 60.5948 11.7443L60.5918 0.722704C60.6099 0.52039 60.7881 0.36337 61.0055 0.36337H62.9954C63.1826 0.372423 63.3366 0.499253 63.3789 0.671372V2.35632H63.4182C64.0191 0.849529 64.8615 0.130859 66.3442 0.130859C67.3074 0.130859 68.2465 0.478116 68.8505 1.42929C69.4121 2.31102 69.4121 3.79366 69.4121 4.85958V11.7956C69.3879 11.9889 69.2098 12.1429 68.9984 12.1429H66.8454C66.6491 12.1278 66.4861 11.9829 66.465 11.7956V5.81076C66.465 4.60593 66.6039 2.84248 65.1212 2.84248C64.5988 2.84248 64.1187 3.19275 63.8802 3.7242C63.5782 4.39758 63.5389 5.06794 63.5389 5.81076V11.7443C63.5359 11.9647 63.3487 12.1429 63.1192 12.1429Z" fill="var(--fill-0, #252525)"/>
<path id="use28" d="M34.5175 6.87797V6.41295C32.9654 6.41295 31.3258 6.74511 31.3258 8.575C31.3258 9.50202 31.8059 10.1301 32.6302 10.1301C33.2342 10.1301 33.7747 9.75869 34.1159 9.15476C34.5386 8.41194 34.5175 7.71441 34.5175 6.87797ZM36.6826 12.111C36.5407 12.2378 36.3353 12.2469 36.1753 12.1623C35.4626 11.5705 35.3358 11.2957 34.9433 10.731C33.7656 11.9328 32.9322 12.2921 31.4043 12.2921C29.5985 12.2921 28.1914 11.1779 28.1914 8.94641C28.1914 7.20409 29.1365 6.01738 30.4803 5.43761C31.6458 4.92428 33.2734 4.83369 34.5175 4.69177V4.41396C34.5175 3.90365 34.5568 3.29972 34.2578 2.85886C33.9951 2.46329 33.4939 2.30023 33.053 2.30023C32.2347 2.30023 31.5039 2.71996 31.3258 3.58961C31.2895 3.78286 31.1476 3.9731 30.9544 3.98216L28.8708 3.7587C28.6957 3.71945 28.5024 3.57753 28.5507 3.30878C29.0309 0.784383 31.3107 0.0234375 33.3519 0.0234375C34.3967 0.0234375 35.7616 0.301242 36.5859 1.09238C37.6307 2.06772 37.5311 3.36917 37.5311 4.78538V8.13111C37.5311 9.13665 37.9478 9.57751 38.3403 10.121C38.4792 10.3143 38.5094 10.5468 38.3343 10.6917C37.8965 11.0571 37.1174 11.7365 36.6886 12.117L36.6826 12.111Z" fill="var(--fill-0, #252525)"/>
<path id="path30" d="M6.37098 6.87773V6.41271C4.8189 6.41271 3.17925 6.74487 3.17925 8.57476C3.17925 9.50178 3.65936 10.1299 4.48372 10.1299C5.08764 10.1299 5.62815 9.75845 5.96937 9.15453C6.39212 8.4117 6.37098 7.71417 6.37098 6.87773ZM8.53605 12.1107C8.39413 12.2376 8.18879 12.2466 8.02875 12.1621C7.31612 11.5702 7.1893 11.2954 6.79675 10.7308C5.6191 11.9326 4.78568 12.2919 3.25776 12.2919C1.45202 12.2919 0.0448826 11.1777 0.0448826 8.94617C0.0448826 7.20385 0.990023 6.01714 2.33375 5.43738C3.49933 4.92404 5.1269 4.83345 6.37098 4.69153V4.41372C6.37098 3.90341 6.41024 3.29948 6.1113 2.85862C5.84859 2.46305 5.34733 2.29999 4.90647 2.29999C4.08815 2.29999 3.3574 2.71972 3.17925 3.58937C3.14301 3.78262 3.00109 3.97286 2.80783 3.98192L0.724297 3.75847C0.549159 3.71921 0.355903 3.57729 0.404217 3.30855C0.884336 0.784145 3.16415 0.023199 5.20541 0.023199C6.2502 0.023199 7.61506 0.301004 8.43942 1.09214C9.48421 2.06748 9.38456 3.36894 9.38456 4.78514V8.13088C9.38456 9.13641 9.80127 9.57727 10.1938 10.1208C10.3327 10.3141 10.3629 10.5466 10.1878 10.6915C9.74994 11.0569 8.97088 11.7363 8.54209 12.1168L8.53605 12.1107Z" fill="var(--fill-0, #252525)"/>
</g>
<defs>
<clipPath id="clip0_0_113">
<rect width="69.4527" height="20.9625" fill="white"/>
</clipPath>
</defs>
</svg>
