<svg preserveAspectRatio="none" width="100%" height="100%" overflow="visible" style="display: block;" viewBox="0 0 80.1233 19.0992" fill="none" xmlns="http://www.w3.org/2000/svg">
<g id="Healthkart 1" clip-path="url(#clip0_0_6)">
<path id="Vector" d="M4.83282 5.61709V8.89095H1.3605V5.61709H0.00171179V13.4748H1.35854V9.98421H4.83085V13.4748H6.19029V5.61709H4.83282Z" fill="var(--fill-0, #252525)"/>
<path id="Vector_2" d="M13.9565 9.98299H10.2103V12.3842H13.9559V13.4755H8.85352V5.61719H13.9565V6.70847H10.2103V8.89105H13.9559L13.9565 9.98299Z" fill="var(--fill-0, #252525)"/>
<path id="Vector_3" d="M20.7905 11.6215H17.7506L17.0994 13.4221H15.6875L18.6187 5.5625H19.815L22.7461 13.4202H21.333L20.7905 11.6215ZM18.1306 10.5303H20.4105L19.2705 7.2564L18.1306 10.5303Z" fill="var(--fill-0, #252525)"/>
<path id="Vector_4" d="M25.5658 12.3836H29.0945V13.4748H24.209V5.61719H25.5658V12.3836Z" fill="var(--fill-0, #252525)"/>
<path id="Vector_5" d="M36.046 6.70847H33.6029V13.4748H32.2461V6.70847H29.8574V5.61719H36.046V6.70847Z" fill="var(--fill-0, #252525)"/>
<path id="Vector_6" d="M44.626 8.89494V5.62042H45.9828V13.4787H44.626V9.98821H41.1537V13.4787H39.7942V5.62042H41.151V8.89428L44.626 8.89494ZM50.3258 8.34897L52.6058 5.62042H54.2345L51.3577 9.11096L54.452 13.4768H52.8226L50.4883 10.0936L49.6196 11.0215V13.4774H48.2627V5.62042H49.6196V9.27627L50.3258 8.34897ZM37.623 19.0992H56.6225V0H37.623V19.0992Z" fill="var(--fill-0, #252525)"/>
<path id="Vector_7" d="M62.9702 11.6215H59.9303L59.279 13.4221H57.8672L60.7983 5.5625H61.9947L64.9258 13.4202H63.5146L62.9702 11.6215ZM60.3103 10.5303H62.5902L61.4502 7.2564L60.3103 10.5303Z" fill="var(--fill-0, #252525)"/>
<g id="Group">
<path id="Vector_8" d="M69.7108 10.4205H68.1908V13.4217H66.834V5.61872H69.6027C70.0068 5.61196 70.4095 5.66726 70.797 5.7827C71.1067 5.88362 71.3996 6.03081 71.6657 6.21935C71.9058 6.42593 72.0922 6.68813 72.2089 6.98332C72.3244 7.3163 72.3796 7.66738 72.372 8.01994C72.4045 8.48814 72.2698 8.95263 71.992 9.32988C71.7099 9.67317 71.3584 9.95222 70.9608 10.1485L72.6976 13.4224V13.477H71.232L69.7108 10.4205ZM68.1908 9.32922H69.602C69.8227 9.31945 70.0414 9.28274 70.2532 9.2199C70.4167 9.16328 70.5652 9.06998 70.6874 8.94708C70.8097 8.82419 70.9025 8.67491 70.9588 8.51059C71.0305 8.3377 71.0674 8.15225 71.0674 7.96495C71.0674 7.77765 71.0305 7.5922 70.9588 7.41931C70.9025 7.25498 70.8097 7.10571 70.6874 6.98282C70.5652 6.85992 70.4167 6.76662 70.2532 6.71C70.0436 6.63798 69.8236 6.60105 69.602 6.60068H68.1908V9.32922Z" fill="var(--fill-0, #252525)"/>
<path id="Vector_9" d="M80.1318 6.70945H77.6887V13.4758H76.3319V6.70945H73.9432V5.61816H80.1318V6.70945Z" fill="var(--fill-0, #252525)"/>
</g>
</g>
<defs>
<clipPath id="clip0_0_6">
<rect width="80.1233" height="19.0992" fill="white"/>
</clipPath>
</defs>
</svg>
