<svg preserveAspectRatio="none" width="100%" height="100%" overflow="visible" style="display: block;" viewBox="0 0 75.9308 23.1094" fill="none" xmlns="http://www.w3.org/2000/svg">
<g id="header-white 1" clip-path="url(#clip0_0_105)">
<path id="Vector" d="M21.3973 12.3954C21.3973 12.3954 20.2468 15.239 18.813 15.1077C18.0326 15.0364 17.7857 14.396 17.7867 14.0044L17.8044 4.33301H13.9277V14.2425C13.9244 15.8583 15.0989 17.3364 17.178 17.4312C19.1349 17.5207 21.3939 14.6332 21.3939 14.6332L21.3901 17.1208L25.2485 17.0891L25.2721 4.33493H21.4151L21.3973 12.3954Z" fill="var(--fill-0, #252525)"/>
<path id="Vector_2" d="M34.3454 4.3893C32.9255 4.3869 31.6755 5.09469 30.8166 6.1696L30.8026 4.33301H26.961L26.9316 22.0532L30.7906 22.0595L30.7988 15.6451C31.507 16.6748 32.8278 17.4605 34.3214 17.4634C36.9904 17.4683 39.3211 14.7549 39.3283 10.9355C39.3356 7.11604 37.0144 4.39412 34.3454 4.3893ZM33.1252 15.7871C32.1701 15.7871 31.1683 14.6424 30.8026 13.7113L30.8127 8.12988C31.1818 7.20022 32.1874 6.06086 33.142 6.06086C34.5133 6.06327 35.1475 7.6708 35.1413 10.9273C35.135 14.1838 34.496 15.7895 33.1252 15.7871Z" fill="var(--fill-0, #252525)"/>
<path id="Vector_3" d="M40.7148 17.1675H44.57L44.594 4.33301H40.7148V17.1675Z" fill="var(--fill-0, #252525)"/>
<path id="Vector_4" d="M59.2595 4.36035C55.3419 4.36035 52.9125 7.35991 52.9082 10.8859C52.901 14.7053 55.6176 17.2781 58.9925 17.4345C60.537 17.5057 62.6859 16.5443 63.7079 15.4949L63.0819 14.5898C61.0437 16.3505 60.1372 16.1373 60.1372 16.1373C57.5909 16.133 57.1372 14.1481 57.1439 10.7449L64.6356 10.7584C64.4383 6.70552 62.0816 4.35987 59.2595 4.36035ZM60.8893 9.56362L57.1448 9.55689C57.1487 7.54901 57.714 5.02147 59.2566 5.02147C60.4437 5.02147 61.0168 7.92002 60.8893 9.56362Z" fill="var(--fill-0, #252525)"/>
<path id="Vector_5" d="M53.293 4.26982L51.1677 4.26404L51.1744 -0.000976562L45.6055 5.47753L47.2457 5.48138L47.2573 17.1515H51.1349L51.1648 5.45395L53.2901 5.45973L53.293 4.26982Z" fill="var(--fill-0, #252525)"/>
<path id="Vector_6" d="M72.8429 4.22465C71.6471 4.57109 70.5022 5.52379 69.7191 6.48612L69.7231 4.28047H65.8438V17.115H67.8908L69.702 17.1184L69.7145 8.82165V8.43677C70.2374 7.55334 71.1526 6.29558 72.0895 6.38122C72.7148 6.43896 73.2344 7.12555 73.237 7.75828L75.9283 5.12154C75.9798 5.06957 74.44 3.76274 72.8429 4.22465Z" fill="var(--fill-0, #252525)"/>
<path id="Vector_7" d="M7.97353 16.8196C7.97353 18.6629 6.4796 20.1567 4.63628 20.1567C2.79297 20.1567 1.29906 18.6629 1.29906 16.8196C1.29906 16.7685 1.30085 16.7179 1.30309 16.6677C1.35729 17.4225 1.98621 18.0178 2.7549 18.0178C3.53253 18.0178 4.16772 17.4082 4.20849 16.6404H4.21073V12.4296H0V16.6404C0.0120946 20.0193 2.7549 22.7549 6.13692 22.7549C9.51129 22.7549 12.2492 20.0314 12.2734 16.6627L12.2739 -0.000976562H7.97353V16.618V16.8196Z" fill="var(--fill-0, #252525)"/>
</g>
<defs>
<clipPath id="clip0_0_105">
<rect width="75.9308" height="23.1094" fill="white"/>
</clipPath>
</defs>
</svg>
