<svg preserveAspectRatio="none" width="100%" height="100%" overflow="visible" style="display: block;" viewBox="0 0 92.235 16.3973" fill="none" xmlns="http://www.w3.org/2000/svg">
<g id="61c1ae40f549462a197bf1a1_logo-colored 1" clip-path="url(#clip0_0_19)">
<path id="Vector" d="M71.1201 9.87126V11.7257H70.2864C69.4896 11.7257 68.868 11.5314 68.4227 11.1436C67.9774 10.756 67.755 10.123 67.755 9.24478V5.51469H66.8809V3.69872H67.755V2.2168L69.9523 3.28889V3.69872H71.1073V5.51469H69.9523V9.27035C69.9523 9.48346 70.0035 9.63698 70.1065 9.73091C70.209 9.82458 70.6389 9.87126 70.8787 9.87126H71.1201Z" fill="var(--fill-0, #252525)"/>
<path id="Vector_2" d="M21.1838 9.30286H23.7802L24.5499 11.6491L18.9863 11.7749V3.71094H21.1838V9.30286Z" fill="var(--fill-0, #252525)"/>
<path id="Vector_3" d="M29.2659 7.32795C29.2659 6.94999 29.1373 6.64905 28.8806 6.42533C28.6231 6.20212 28.3021 6.09016 27.9166 6.09016C27.548 6.09016 27.2373 6.19746 26.9848 6.41267C26.7321 6.62727 26.5757 6.93283 26.5158 7.32795H29.2659ZM31.4763 8.55309H26.5029C26.537 9.00027 26.6808 9.34211 26.9334 9.57818C27.1861 9.81481 27.4967 9.93292 27.8652 9.93292C28.4133 9.93292 28.7947 9.7007 29.0088 9.2366H31.3478C31.2276 9.70946 31.0114 10.135 30.6988 10.5134C30.3859 10.8918 29.9939 11.1884 29.5228 11.403C29.0517 11.6181 28.5247 11.7258 27.9422 11.7258C27.2397 11.7258 26.6142 11.5753 26.0661 11.2742C25.5175 10.9733 25.0894 10.5435 24.7809 9.98452C24.4726 9.42604 24.3184 8.77251 24.3184 8.02438C24.3184 7.27615 24.4703 6.62322 24.7744 6.06438C25.0784 5.50564 25.5048 5.07539 26.0532 4.77468C26.6013 4.47372 27.2311 4.32324 27.9422 4.32324C28.636 4.32324 29.253 4.46934 29.7928 4.76178C30.3325 5.05423 30.7543 5.47111 31.0586 6.01268C31.3626 6.55425 31.5148 7.18622 31.5148 7.90847C31.5148 8.11451 31.5019 8.32962 31.4763 8.55309Z" fill="var(--fill-0, #252525)"/>
<path id="Vector_4" d="M36.1242 9.87128V11.7257H35.2902C34.4934 11.7257 33.8722 11.5314 33.4269 11.1436C32.9813 10.756 32.7588 10.123 32.7588 9.2448V5.51466H31.8848V3.69872H32.7588V2.2168L34.9563 3.28888V3.69872H36.1113V5.51466H34.9563V9.27031C34.9563 9.48343 35.0077 9.63695 35.1104 9.73088C35.2132 9.82455 35.6431 9.87128 35.883 9.87128H36.1242Z" fill="var(--fill-0, #252525)"/>
<path id="Vector_5" d="M38.429 11.403C37.9407 11.1884 37.5551 10.8937 37.2724 10.5197C36.9898 10.1458 36.8308 9.72673 36.7969 9.26243H38.9685C38.9943 9.51213 39.11 9.71381 39.3157 9.86856C39.5212 10.0234 39.7738 10.1007 40.0739 10.1007C40.3479 10.1007 40.5602 10.0471 40.7098 9.93964C40.8595 9.83198 40.9349 9.69265 40.9349 9.52043C40.9349 9.31408 40.8274 9.16133 40.6137 9.06243C40.3992 8.96389 40.0523 8.85429 39.5726 8.73361C39.0587 8.6134 38.6301 8.48663 38.2875 8.35335C37.9448 8.22002 37.6491 8.00941 37.4007 7.72159C37.1522 7.4333 37.0282 7.04438 37.0282 6.55425C37.0282 6.14176 37.1415 5.76575 37.3686 5.42586C37.5956 5.08646 37.9295 4.81786 38.3711 4.61994C38.8122 4.42251 39.3369 4.32324 39.9452 4.32324C40.8448 4.32324 41.5536 4.54695 42.0723 4.99365C42.5905 5.44108 42.8883 6.0341 42.9651 6.77347H40.9349C40.9005 6.52423 40.7913 6.32679 40.6073 6.18034C40.4228 6.0341 40.1809 5.96123 39.881 5.96123C39.624 5.96123 39.4266 6.01063 39.29 6.10942C39.1528 6.20868 39.0842 6.3437 39.0842 6.51572C39.0842 6.72176 39.1936 6.87677 39.4119 6.97982C39.6304 7.08307 39.971 7.18637 40.4335 7.28937C40.9648 7.42695 41.3976 7.56248 41.7315 7.69556C42.0657 7.82915 42.3592 8.04375 42.6118 8.34018C42.8646 8.63687 42.9951 9.03466 43.0038 9.53329C43.0038 9.9547 42.886 10.3307 42.6505 10.6617C42.4147 10.9925 42.0764 11.2531 41.6353 11.442C41.194 11.6308 40.6821 11.7258 40.0996 11.7258C39.4739 11.7258 38.9172 11.6183 38.429 11.403Z" fill="var(--fill-0, #252525)"/>
<path id="Vector_6" d="M47.3997 8.85313L49.0235 3.71094H51.3624L48.4893 11.7268H45.7778L43.0215 3.71094H45.3733L46.8585 8.85313H47.3997Z" fill="var(--fill-0, #252525)"/>
<path id="Vector_7" d="M55.8032 7.32793C55.8032 6.94997 55.6746 6.64903 55.4174 6.42531C55.1601 6.2021 54.8394 6.09019 54.4535 6.09019C54.0851 6.09019 53.7746 6.19749 53.5219 6.41265C53.2693 6.62725 53.113 6.93286 53.0531 7.32793H55.8032ZM58.0133 8.55307H53.0403C53.0741 9.00025 53.2176 9.34209 53.4707 9.57821C53.7233 9.81479 54.0338 9.93295 54.4023 9.93295C54.9505 9.93295 55.3318 9.70073 55.546 9.23663H57.8852C57.7647 9.70944 57.5485 10.135 57.2359 10.5134C56.9228 10.8917 56.5308 11.1885 56.0599 11.403C55.589 11.6181 55.0617 11.7258 54.4791 11.7258C53.7771 11.7258 53.1515 11.5753 52.6032 11.2742C52.0549 10.9733 51.6265 10.5435 51.318 9.9845C51.0098 9.42602 50.8555 8.77254 50.8555 8.02441C50.8555 7.27612 51.0075 6.62325 51.3114 6.06441C51.6157 5.50567 52.0421 5.07539 52.5904 4.77468C53.1386 4.47372 53.7684 4.32324 54.4791 4.32324C55.1735 4.32324 55.7904 4.46934 56.33 4.76178C56.8695 5.05423 57.2918 5.47114 57.5956 6.01271C57.8995 6.55428 58.0522 7.18625 58.0522 7.90845C58.0522 8.11454 58.0389 8.3296 58.0133 8.55307Z" fill="var(--fill-0, #252525)"/>
<path id="Vector_8" d="M65.2766 5.15679C65.7782 5.71235 66.0288 6.4758 66.0288 7.44693V11.7258H63.8439V7.74895C63.8439 7.25908 63.7199 6.87836 63.4713 6.60719C63.2228 6.33591 62.8882 6.20017 62.4691 6.20017C62.0489 6.20017 61.7148 6.33591 61.4668 6.60719C61.2177 6.87836 61.0937 7.25908 61.0937 7.74895V11.7258H58.8965V4.40207C58.8965 4.40207 62.7944 4.32324 63.2659 4.32324C64.1052 4.32324 64.7754 4.60133 65.2766 5.15679Z" fill="var(--fill-0, #252525)"/>
<path id="Vector_9" d="M79.1235 4.32303V11.6467H76.9262C76.9262 11.6467 75.2168 11.7256 74.7541 11.7256C74.2058 11.7256 73.7216 11.6009 73.3024 11.3514C72.8822 11.1021 72.5569 10.741 72.3252 10.2686C72.0941 9.7962 71.9783 9.24043 71.9783 8.60165V4.32303H74.1633V8.29994C74.1633 8.78997 74.2873 9.17049 74.5358 9.44151C74.7843 9.71314 75.1184 9.84877 75.5381 9.84877C75.9665 9.84877 76.3047 9.71314 76.5532 9.44151C76.8017 9.17049 76.9262 8.78997 76.9262 8.29994V4.32303H79.1235Z" fill="var(--fill-0, #252525)"/>
<path id="Vector_10" d="M83.3974 4.6714C83.7833 4.43905 84.2117 4.32324 84.6826 4.32324V6.69865H84.0784C83.5301 6.69865 83.1192 6.81912 82.845 7.06006C82.5709 7.30043 82.4336 7.72256 82.4336 8.32609V11.7258H80.2363V4.40195H82.4336C82.4336 4.40195 83.0121 4.90326 83.3974 4.6714Z" fill="var(--fill-0, #252525)"/>
<path id="Vector_11" d="M89.9825 7.32795C89.9825 6.94999 89.8544 6.64905 89.5972 6.42533C89.34 6.20212 89.0187 6.09016 88.6333 6.09016C88.2649 6.09016 87.9539 6.19746 87.7018 6.41267C87.4492 6.62727 87.2924 6.93283 87.2324 7.32795H89.9825ZM92.1931 8.55309H87.2196C87.2539 9.00027 87.3974 9.34211 87.65 9.57818C87.9032 9.81481 88.2137 9.93292 88.5816 9.93292C89.1299 9.93292 89.5116 9.7007 89.7258 9.2366H92.0645C91.9446 9.70946 91.7283 10.135 91.4153 10.5134C91.1027 10.8918 90.7107 11.1884 90.2398 11.403C89.7683 11.6181 89.2416 11.7258 88.659 11.7258C87.9564 11.7258 87.3308 11.5753 86.783 11.2742C86.2342 10.9733 85.8058 10.5435 85.4979 9.98452C85.1894 9.42604 85.0352 8.77251 85.0352 8.02438C85.0352 7.27615 85.1873 6.62322 85.4912 6.06438C85.7951 5.50564 86.2214 5.07539 86.7697 4.77468C87.318 4.47372 87.9477 4.32324 88.659 4.32324C89.3533 4.32324 89.9697 4.46934 90.5093 4.76178C91.0494 5.05423 91.4711 5.47111 91.7755 6.01268C92.0794 6.55425 92.2315 7.18622 92.2315 7.90847C92.2315 8.11451 92.2187 8.32962 92.1931 8.55309Z" fill="var(--fill-0, #252525)"/>
<path id="Subtract" d="M8.03027 0C12.4615 0.000204942 16.0535 3.59239 16.0537 8.02344C16.0537 12.4547 12.4616 16.0476 8.03027 16.0479C3.59887 16.0479 0.00585938 12.4549 0.00585938 8.02344C0.00611222 3.59226 3.59903 0 8.03027 0ZM3.41992 7.31836H5.72559V11.1162L10.3359 13.3369V7.31836H12.6416L8.03125 2.70703L3.41992 7.31836Z" fill="var(--fill-0, #252525)"/>
</g>
<defs>
<clipPath id="clip0_0_19">
<rect width="92.235" height="16.3973" fill="white"/>
</clipPath>
</defs>
</svg>
