<svg preserveAspectRatio="none" width="100%" height="100%" overflow="visible" style="display: block;" viewBox="0 0 87.3846 17.9034" fill="none" xmlns="http://www.w3.org/2000/svg">
<g id="Group">
<path id="Vector" d="M4.40264 6.44068C4.40264 5.88984 4.53694 5.71241 5.08697 5.53731L8.20503 4.47507V0L1.56837 2.21144C0.630619 2.52919 0 3.40356 0 4.38695V11.252L3.87012 9.83614C4.18893 9.72011 4.40264 9.41521 4.40264 9.07771V6.44068Z" fill="var(--fill-0, #252525)"/>
<path id="Vector_2" d="M12.5018 6.65137L8.63178 8.0673C8.31297 8.18326 8.09926 8.48824 8.09926 8.82571V11.4627C8.09926 12.0135 7.96496 12.191 7.41493 12.3661L4.29688 13.4283V17.9034L10.9336 15.692C11.8713 15.3754 12.5018 14.501 12.5018 13.5165V6.65137Z" fill="var(--fill-0, #252525)"/>
<path id="Vector_3" d="M21.0621 11.7886C20.595 11.581 20.2236 11.2969 19.9493 10.9385C19.6748 10.5802 19.5242 10.1813 19.4961 9.74407L21.3237 9.7349C21.36 10.0097 21.4966 10.2358 21.7359 10.4155C21.9742 10.5941 22.2708 10.6834 22.6258 10.6812C22.9715 10.6799 23.2413 10.6092 23.4351 10.4713C23.629 10.3332 23.7247 10.157 23.7247 9.94245C23.7236 9.7105 23.6033 9.53774 23.3651 9.42294C23.1269 9.3081 22.7484 9.18402 22.2288 9.04834C21.6916 8.92194 21.2525 8.79089 20.9115 8.65522C20.5694 8.51954 20.2751 8.3108 20.0262 8.02901C19.7787 7.74721 19.6537 7.36569 19.6514 6.88559C19.649 6.49132 19.7624 6.12951 19.9901 5.80249C20.2178 5.47547 20.5449 5.21571 20.971 5.02552C21.3974 4.83418 21.9006 4.73793 22.4799 4.73445C23.3359 4.72982 24.0191 4.93971 24.5305 5.36182C25.042 5.78393 25.3259 6.35564 25.3819 7.07578L23.6454 7.0839C23.6185 6.80095 23.4982 6.57597 23.2856 6.41015C23.0731 6.24431 22.7893 6.16198 22.4355 6.16313C22.1073 6.1643 21.8539 6.22576 21.6775 6.34752C21.5012 6.46813 21.4137 6.63628 21.4148 6.85081C21.416 7.09086 21.5374 7.27292 21.7804 7.39584C22.0233 7.51876 22.3992 7.64401 22.9096 7.77041C23.4293 7.89681 23.8567 8.02785 24.1954 8.16353C24.5329 8.29921 24.826 8.51026 25.0735 8.7967C25.3212 9.08313 25.4507 9.46233 25.4612 9.93429C25.4636 10.3459 25.3504 10.716 25.1238 11.0429C24.8961 11.37 24.569 11.6274 24.1428 11.8141C23.7154 12.0008 23.2179 12.0959 22.6468 12.0982C22.0594 12.1017 21.5316 11.9985 21.0634 11.7909L21.0621 11.7886Z" fill="var(--fill-0, #252525)"/>
<path id="Vector_4" d="M32.9813 5.49986C33.5115 6.0333 33.779 6.78128 33.7836 7.74146L33.8046 11.9243L31.9898 11.9336L31.97 7.99427C31.9677 7.42835 31.8229 6.99349 31.5355 6.68966C31.2494 6.38699 30.8594 6.23624 30.3666 6.23856C29.8656 6.24087 29.4709 6.3951 29.1825 6.70126C28.894 7.00741 28.7515 7.44343 28.755 8.00934L28.7748 11.9475L26.9601 11.9568L26.9238 4.82611L28.7387 4.81683L28.7433 5.70512C28.9839 5.39549 29.291 5.15081 29.6671 4.97338C30.0419 4.79595 30.4541 4.7055 30.9038 4.70318C31.7598 4.69855 32.4523 4.9641 32.9813 5.49755V5.49986Z" fill="var(--fill-0, #252525)"/>
<path id="Vector_5" d="M35.4709 6.40949C35.7582 5.85054 36.1482 5.41915 36.6445 5.11649C37.1396 4.81382 37.6944 4.66074 38.3075 4.65726C38.8435 4.65495 39.313 4.75931 39.7158 4.97269C40.1187 5.1849 40.4422 5.45394 40.6851 5.77864L40.6804 4.76164L42.5081 4.75236L42.5431 11.883L40.7156 11.8923L40.7109 10.8497C40.4796 11.1861 40.1585 11.4644 39.7497 11.6847C39.3399 11.9051 38.868 12.0175 38.3321 12.0199C37.7271 12.0234 37.1759 11.8714 36.6772 11.5642C36.1786 11.2579 35.7839 10.8242 35.4907 10.263C35.1988 9.70285 35.0505 9.05697 35.0469 8.32755C35.0435 7.60624 35.1848 6.96728 35.472 6.40717L35.4709 6.40949ZM40.4329 7.20269C40.2589 6.89074 40.0242 6.6507 39.7299 6.48486C39.4357 6.31904 39.1191 6.2367 38.7828 6.23903C38.4453 6.24018 38.1347 6.32367 37.8509 6.48834C37.5659 6.65301 37.3359 6.8919 37.1607 7.20617C36.9856 7.52043 36.898 7.89152 36.9003 8.32059C36.9027 8.74966 36.9925 9.12422 37.1712 9.4455C37.3499 9.76663 37.5846 10.0126 37.8754 10.1819C38.1662 10.3523 38.4745 10.4357 38.8038 10.4346C39.1413 10.4335 39.4555 10.3477 39.7486 10.1784C40.0417 10.009 40.2741 9.76786 40.4446 9.45355C40.6162 9.1393 40.7004 8.76358 40.698 8.32638C40.6957 7.8892 40.6069 7.51347 40.4329 7.20153V7.20269Z" fill="var(--fill-0, #252525)"/>
<path id="Vector_6" d="M47.0677 4.94262C47.4765 4.72229 47.9447 4.6098 48.4725 4.60748C49.0857 4.604 49.6416 4.75244 50.1401 5.04931C50.6388 5.34734 51.0336 5.77177 51.3266 6.32376C51.6187 6.87575 51.7669 7.51704 51.7705 8.24646C51.774 8.97586 51.6327 9.62298 51.3453 10.1853C51.0581 10.7489 50.668 11.1861 50.1729 11.4981C49.6777 11.81 49.1231 11.9665 48.5099 11.9701C47.9832 11.9724 47.5173 11.8681 47.1144 11.6547C46.7115 11.4424 46.3845 11.1733 46.1323 10.8487L46.1545 15.2634L44.3397 15.2727L44.2871 4.74316L46.1019 4.73389L46.1066 5.76365C46.3379 5.43663 46.659 5.16179 47.0677 4.94147V4.94262ZM49.645 7.14363C49.4663 6.83168 49.2316 6.59396 48.942 6.43277C48.6512 6.27157 48.3382 6.19156 48.0008 6.19272C47.6726 6.19388 47.3631 6.2797 47.0747 6.44784C46.7862 6.61715 46.5538 6.86067 46.3787 7.17842C46.2035 7.49732 46.116 7.87073 46.1182 8.29979C46.1206 8.72886 46.2105 9.10227 46.3892 9.41889C46.5679 9.73543 46.8027 9.97667 47.0922 10.1425C47.383 10.3083 47.6913 10.3907 48.0206 10.3883C48.3582 10.3872 48.6699 10.299 48.9596 10.1263C49.248 9.9535 49.4804 9.70757 49.6555 9.3887C49.8308 9.07096 49.9183 8.69291 49.916 8.25457C49.9137 7.8255 49.8237 7.45441 49.645 7.14247V7.14363Z" fill="var(--fill-0, #252525)"/>
<path id="Vector_7" d="M55.1946 6.17126L55.212 9.62117C55.2132 9.86128 55.2728 10.0352 55.3896 10.1419C55.5063 10.2485 55.7037 10.3008 55.9805 10.2996L56.8225 10.295L56.8306 11.8141L55.6897 11.8199C54.1598 11.828 53.3914 11.0928 53.3844 9.6177L53.3669 6.18054L52.5108 6.18518L52.5039 4.70546L53.3599 4.70083L53.3506 2.93701L55.1782 2.92773L55.1875 4.69156L56.7944 4.68343L56.8014 6.16314L55.1946 6.17126Z" fill="var(--fill-0, #252525)"/>
<path id="Vector_8" d="M60.828 4.88091C61.2029 4.66406 61.6326 4.55505 62.1161 4.55273L62.1254 6.44528L61.6455 6.44759C61.0755 6.44991 60.6458 6.58559 60.3574 6.85347C60.069 7.12135 59.9264 7.5852 59.93 8.2462L59.9474 11.7993L58.1327 11.8086L58.0977 4.67797L59.9124 4.6687L59.9182 5.77615C60.1495 5.39695 60.4531 5.10008 60.828 4.88323V4.88091Z" fill="var(--fill-0, #252525)"/>
<path id="Vector_9" d="M70.114 4.61816L70.1491 11.7489L68.3214 11.7581L68.3167 10.8571C68.0856 11.1667 67.7819 11.4114 67.4071 11.5887C67.0322 11.7662 66.6246 11.8567 66.1832 11.859C65.6215 11.8613 65.1239 11.7465 64.6907 11.5122C64.2574 11.278 63.9165 10.9324 63.6678 10.4744C63.419 10.0163 63.2928 9.47007 63.2905 8.83463L63.2695 4.65179L65.0843 4.64251L65.1041 8.56792C65.1065 9.13382 65.2512 9.56865 65.5386 9.87255C65.8258 10.1763 66.2147 10.3259 66.7075 10.3236C67.2086 10.3213 67.6008 10.167 67.8847 9.86091C68.1685 9.55478 68.3086 9.11875 68.3062 8.55283L68.2864 4.62744L70.114 4.61816Z" fill="var(--fill-0, #252525)"/>
<path id="Vector_10" d="M71.8818 6.23051C72.1679 5.67156 72.5615 5.24017 73.0613 4.9375C73.5612 4.63484 74.117 4.48176 74.7313 4.47828C75.1983 4.47596 75.6433 4.57454 76.0684 4.774C76.4924 4.97345 76.831 5.24017 77.0833 5.57299L77.0669 2.18799L78.9073 2.17871L78.9552 11.704L77.1148 11.7133L77.1101 10.6581C76.887 11.0105 76.5729 11.2959 76.1677 11.5127C75.7624 11.7295 75.2918 11.8385 74.7569 11.8409C74.152 11.8443 73.5985 11.6924 73.0951 11.3851C72.5918 11.079 72.1948 10.6453 71.9028 10.084C71.6109 9.52394 71.4626 8.87798 71.459 8.14856C71.4556 7.42727 71.5969 6.7883 71.8841 6.22819L71.8818 6.23051ZM76.8438 7.02371C76.6698 6.71176 76.4351 6.47171 76.1408 6.30589C75.8465 6.14006 75.5301 6.05773 75.1938 6.06004C74.8562 6.06121 74.5456 6.1447 74.2618 6.30937C73.9768 6.47404 73.7468 6.71292 73.5717 7.02719C73.3965 7.34146 73.3088 7.71253 73.3112 8.1416C73.3135 8.57067 73.4035 8.94524 73.5822 9.26647C73.7609 9.58772 73.9955 9.83354 74.2863 10.0028C74.5771 10.1734 74.8854 10.2568 75.2148 10.2556C75.5523 10.2545 75.8663 10.1687 76.1595 10.0005C76.4526 9.8312 76.685 9.58996 76.8556 9.27574C77.0272 8.96147 77.1112 8.58575 77.1089 8.14856C77.1067 7.71138 77.0178 7.33565 76.8438 7.02371Z" fill="var(--fill-0, #252525)"/>
<path id="Vector_11" d="M87.3367 8.63853L82.0862 8.66404C82.1318 9.17893 82.315 9.58132 82.6363 9.87123C82.9574 10.1611 83.3509 10.3049 83.8181 10.3027C84.4919 10.2991 84.9707 10.0092 85.2522 9.43284L87.2094 9.42366C87.005 10.1112 86.6103 10.6772 86.0252 11.1225C85.4402 11.5678 84.7196 11.7916 83.8636 11.7962C83.1722 11.7997 82.551 11.6502 82.001 11.3486C81.4509 11.0471 81.0211 10.6181 80.7116 10.0614C80.4023 9.50478 80.2457 8.86235 80.2423 8.13293C80.2387 7.3954 80.3859 6.74599 80.686 6.18705C80.9861 5.6281 81.4065 5.19671 81.9496 4.89404C82.4926 4.59137 83.1185 4.43714 83.8274 4.43366C84.5095 4.43018 85.1225 4.57281 85.6644 4.86273C86.2062 5.15148 86.6267 5.56432 86.928 6.09891C87.2292 6.63351 87.381 7.24928 87.3845 7.94391C87.3857 8.20135 87.3694 8.43328 87.3355 8.6397L87.3367 8.63853ZM85.5032 7.43714C85.4926 6.97329 85.3222 6.60335 84.9917 6.3262C84.6612 6.04904 84.2595 5.91105 83.7842 5.91337C83.3346 5.91569 82.9574 6.05252 82.6514 6.32388C82.3455 6.59524 82.1597 6.97212 82.0932 7.45338L85.502 7.43598L85.5032 7.43714Z" fill="var(--fill-0, #252525)"/>
</g>
</svg>
