<svg preserveAspectRatio="none" width="100%" height="100%" overflow="visible" style="display: block;" viewBox="0 0 63.179 21.2375" fill="none" xmlns="http://www.w3.org/2000/svg">
<g id="Group">
<path id="Vector" fill-rule="evenodd" clip-rule="evenodd" d="M3.16942 4.90627C1.6773 6.55894 0.769827 8.74436 0.769827 11.1418C0.769827 13.5393 1.6773 15.7247 3.16942 17.3774L2.597 17.8901C0.982739 16.1021 0 13.7358 0 11.1418C0 8.54782 0.982739 6.18151 2.597 4.39355L3.16942 4.90627ZM19.5023 11.1418C19.5023 8.74436 18.5948 6.55894 17.1027 4.90627L17.6751 4.39355C19.2894 6.18151 20.2721 8.54782 20.2721 11.1418C20.2721 13.7358 19.2894 16.1021 17.6751 17.8901L17.1027 17.3774C18.5948 15.7247 19.5023 13.5393 19.5023 11.1418Z" fill="var(--fill-0, #252525)"/>
<path id="Vector_2" fill-rule="evenodd" clip-rule="evenodd" d="M10.1363 0L17.7063 2.69279V21.2375H2.56635V2.69279L10.1363 0ZM3.33618 3.23314V20.4707H16.9365V3.23314L10.1363 0.814195L3.33618 3.23314Z" fill="var(--fill-0, #252525)"/>
<path id="Vector_3" fill-rule="evenodd" clip-rule="evenodd" d="M5.33977 8.71398H7.14659C7.81613 8.71398 8.39352 9.18256 8.52884 9.83565L8.69376 10.6319L9.17205 13.059H11.1047L11.5829 10.6319L11.7479 9.83565C11.8832 9.18256 12.4606 8.71398 13.1301 8.71398H14.9369V9.68521C14.9369 10.4616 14.3051 11.091 13.5256 11.091H12.277L11.7662 13.6834L10.5233 14.4262V15.2467L13.488 16.6755L13.1527 17.3657L10.1384 15.913L7.12405 17.3657L6.78874 16.6755L9.75345 15.2467V14.4262L8.51055 13.6834L7.99971 11.091H6.75113C5.97166 11.091 5.33977 10.4616 5.33977 9.68521V8.71398ZM7.844 10.3242H6.75113C6.39681 10.3242 6.10962 10.0381 6.10962 9.68521V9.48075H7.14659C7.45091 9.48075 7.71337 9.69375 7.77486 9.9906L7.844 10.3242ZM12.4327 10.3242H13.5256C13.8799 10.3242 14.1671 10.0381 14.1671 9.68521V9.48075H13.1301C12.8258 9.48075 12.5633 9.69375 12.5019 9.9906L12.4327 10.3242Z" fill="var(--fill-0, #252525)"/>
<path id="Vector_4" fill-rule="evenodd" clip-rule="evenodd" d="M2.95312 3.3457H17.3232V4.11248H2.95312V3.3457Z" fill="var(--fill-0, #252525)"/>
<path id="Vector_5" fill-rule="evenodd" clip-rule="evenodd" d="M2.95312 18.4258H17.3232V19.1926H2.95312V18.4258Z" fill="var(--fill-0, #252525)"/>
<path id="Vector_6" fill-rule="evenodd" clip-rule="evenodd" d="M4.97656 6.02789V3.72852H5.74606V6.02789H4.97656Z" fill="var(--fill-0, #252525)"/>
<path id="Vector_7" fill-rule="evenodd" clip-rule="evenodd" d="M7.38845 6.02811V3.72874H8.15795V6.02811H7.38845Z" fill="var(--fill-0, #252525)"/>
<path id="Vector_8" fill-rule="evenodd" clip-rule="evenodd" d="M9.80078 6.02789V3.72852H10.5703V6.02789H9.80078Z" fill="var(--fill-0, #252525)"/>
<path id="Vector_9" fill-rule="evenodd" clip-rule="evenodd" d="M4.9461 5.64566H15.3266L17.7063 9.394V12.3475L12.2729 19.1918H7.99972L2.56635 12.3475V9.394L4.9461 5.64566ZM5.37014 6.41243L3.33618 9.61608V12.081L8.37246 18.425H11.9002L16.9365 12.081V9.61608L14.9025 6.41243H5.37014Z" fill="var(--fill-0, #252525)"/>
<path id="Vector_10" fill-rule="evenodd" clip-rule="evenodd" d="M12.2129 6.02789V3.72852H12.9824V6.02789H12.2129Z" fill="var(--fill-0, #252525)"/>
<path id="Vector_11" fill-rule="evenodd" clip-rule="evenodd" d="M14.5742 6.02789V3.72852H15.3438V6.02789H14.5742Z" fill="var(--fill-0, #252525)"/>
<path id="Vector_12" fill-rule="evenodd" clip-rule="evenodd" d="M4.62131 18.8082V14.7189H5.39112V18.8082H4.62131Z" fill="var(--fill-0, #252525)"/>
<path id="Vector_13" fill-rule="evenodd" clip-rule="evenodd" d="M14.8828 18.8081V14.7188H15.6527V18.8081H14.8828Z" fill="var(--fill-0, #252525)"/>
<path id="Vector_14" d="M36.2527 14.6311C36.2527 15.6711 36.3438 16.3445 36.6955 16.7696C37.0333 17.178 37.6594 17.4079 38.8871 17.4141L41.3347 16.0411L41.1212 15.6101C40.5601 15.8872 40.059 16.0923 39.4161 16.0923C38.8819 16.0923 38.516 15.8889 38.2926 15.5681C38.0777 15.2596 38.0126 14.8684 38.0126 14.5164V7.59519H41.4207V6.96137H37.9899V3.81836H37.6815L36.3209 5.19225V6.80078H34.7279L34.0488 7.48643V7.59519H36.2527V14.6311Z" fill="var(--fill-0, #252525)"/>
<path id="Vector_15" d="M29.0973 17.414C30.3909 17.1289 31.4169 16.7979 32.1192 16.3008C32.8095 15.812 33.1909 15.1605 33.1909 14.195C33.1909 13.5752 33.0465 13.0729 32.7313 12.6336C32.413 12.1901 31.9095 11.7951 31.1636 11.4129L29.4136 10.5179C28.8992 10.2524 28.4778 9.99408 28.1848 9.69817C27.8845 9.39497 27.7153 9.04834 27.7153 8.62019C27.7153 8.11137 27.9639 7.71591 28.3298 7.45434C28.6908 7.19626 29.1652 7.06729 29.6413 7.06729C30.5136 7.06729 31.2331 7.45649 31.4714 7.60089L31.5363 7.6402L32.0378 9.2697H32.8956V7.27805C32.2458 6.83475 31.0365 6.34788 29.9125 6.3418C28.6134 6.62604 27.624 6.98487 26.9621 7.45492C26.3068 7.92023 25.9781 8.4888 25.9781 9.21667C25.9781 10.3908 26.8284 11.2098 27.7788 11.7009L27.7799 11.7014L29.5748 12.642C30.1641 12.951 30.6076 13.2169 30.9005 13.5316C31.2061 13.8599 31.3402 14.2317 31.3402 14.7227C31.3402 15.2463 31.1731 15.7351 30.8271 16.0941C30.4797 16.4548 29.9701 16.6656 29.3233 16.6656C28.5511 16.6656 27.8541 16.3982 27.3489 16.0581L27.2983 16.0241L26.5534 14.1879H25.4688L25.8462 16.4548C26.4672 16.8015 27.828 17.4073 29.0973 17.414Z" fill="var(--fill-0, #252525)"/>
<path id="Vector_16" fill-rule="evenodd" clip-rule="evenodd" d="M63.179 16.6501L60.5906 17.1566L59.8519 15.3037L56.9934 17.4137C56.0815 17.4017 55.3195 17.1382 54.7855 16.6818C54.2422 16.2176 53.918 15.5403 53.918 14.6768C53.918 13.9298 54.1738 13.3833 54.638 12.7347L59.8255 10.9887V9.69844C59.8255 9.01918 59.8004 8.42119 59.5956 7.99478C59.4887 7.77266 59.3322 7.59266 59.1073 7.47124C58.8859 7.35166 58.6131 7.29675 58.2853 7.29675C57.6369 7.29675 56.8601 7.51252 56.3463 7.72476L56.2492 7.76483L55.8749 9.5221H54.2815V8.10712L58.237 6.3418C59.6426 6.34551 60.4493 6.53485 60.9211 7.01358C61.3987 7.49817 61.5852 8.33211 61.5852 9.7902V14.2868C61.5852 14.7897 61.6255 15.1465 61.6997 15.4298C61.7744 15.7165 61.8817 15.9189 62.0011 16.1124L62.0597 16.2068H63.129L63.179 16.6501ZM59.8255 14.8496L58.7857 15.5742L58.7607 15.592C58.4647 15.7993 57.8833 16.2067 57.195 16.2067C56.8248 16.2067 56.4397 16.0903 56.1473 15.7949C55.8539 15.4986 55.6777 15.0469 55.6777 14.4244C55.6777 13.9137 55.7984 13.3948 56.1897 12.9994L56.2179 12.9711L59.8255 11.4639V14.8496Z" fill="var(--fill-0, #252525)"/>
<path id="Vector_17" fill-rule="evenodd" clip-rule="evenodd" d="M43.6936 8.20792C42.7782 9.15688 42.2754 10.4521 42.2754 12.1303C42.2754 15.1536 44.2417 17.4057 47.1267 17.4141C48.852 17.1306 50.1989 16.5086 51.1148 15.5593C52.0302 14.6103 52.5329 13.3151 52.5329 11.6485C52.5329 8.62426 50.5656 6.35052 47.6821 6.3418C45.9563 6.63659 44.6092 7.25874 43.6936 8.20792ZM47.0971 7.06738C46.095 7.06738 45.3473 7.58577 44.8603 8.41935C44.3789 9.24386 44.1488 10.3785 44.1488 11.6485C44.1488 12.9876 44.4915 14.2381 45.1053 15.1601C45.7202 16.0844 46.6173 16.6886 47.7107 16.6886C48.7021 16.6886 49.4494 16.1697 49.9387 15.3402C50.423 14.5188 50.6591 13.39 50.6591 12.1304C50.6591 10.6444 50.3063 9.38548 49.6833 8.49193C49.0577 7.59414 48.1592 7.06738 47.0971 7.06738Z" fill="var(--fill-0, #252525)"/>
</g>
</svg>
