<svg preserveAspectRatio="none" width="100%" height="100%" overflow="visible" style="display: block;" viewBox="0 0 75.9308 19.7544" fill="none" xmlns="http://www.w3.org/2000/svg">
<g id="634426f89d482573689a7f59_Group 628297 1" clip-path="url(#clip0_0_45)">
<path id="Vector" d="M5.4148 9.58084L8.58516 5.64079C8.71159 5.47556 8.77826 5.29991 8.78517 5.11469C8.79122 4.93034 8.73758 4.77033 8.62325 4.63642C8.50892 4.5025 8.34354 4.43555 8.12791 4.43555C8.01358 4.43555 7.90191 4.46163 7.79449 4.51207C7.68628 4.56338 7.5875 4.65294 7.49923 4.7799L4.47954 8.61911L1.40359 4.66512C1.25118 4.51207 1.06673 4.43555 0.851101 4.43555C0.635469 4.43555 0.47007 4.5025 0.355761 4.63642C0.241452 4.77033 0.180833 4.92686 0.174772 5.10512C0.167843 5.28426 0.234524 5.45643 0.374812 5.62165L3.49493 9.60171L0.202483 13.7331C0.0621945 13.8992 -0.00448568 14.0714 0.00244215 14.2496C0.00850398 14.4287 0.0717206 14.5818 0.192957 14.7088C0.313328 14.8366 0.475266 14.9001 0.678768 14.9001C0.907388 14.9001 1.07885 14.8235 1.19316 14.6705L4.42326 10.5557L7.55633 14.5557C7.65769 14.6836 7.7564 14.7731 7.85166 14.8235C7.94691 14.8749 8.07075 14.9001 8.22316 14.9001C8.36255 14.9001 8.49942 14.8496 8.63276 14.747C8.7661 14.6453 8.84493 14.5053 8.87092 14.3261C8.89605 14.1479 8.82586 13.9566 8.66134 13.7522L5.4148 9.58084Z" fill="var(--fill-0, #252525)"/>
<path id="Vector_2" d="M17.2951 5.11189C16.5106 4.66099 15.6166 4.43555 14.6131 4.43555C13.6097 4.43555 12.7122 4.66099 11.9217 5.11189C11.1312 5.56279 10.5101 6.18278 10.0584 6.97184C9.60674 7.7609 9.38086 8.66269 9.38086 9.6772C9.38086 10.6917 9.60674 11.5747 10.0584 12.3638C10.5101 13.1529 11.1312 13.7728 11.9217 14.2237C12.7122 14.6746 13.6088 14.9001 14.6131 14.9001C15.6175 14.9001 16.5106 14.6746 17.2951 14.2237C18.0796 13.7728 18.6999 13.1529 19.1584 12.3638C19.6162 11.5747 19.8454 10.6798 19.8454 9.6772C19.8326 8.66269 19.6007 7.7609 19.149 6.97184C18.6973 6.18278 18.0796 5.56279 17.2951 5.11189ZM17.9257 11.6875C17.5989 12.2767 17.1472 12.7396 16.5705 13.0777C15.9931 13.4159 15.3403 13.585 14.6131 13.585C13.886 13.585 13.2323 13.4159 12.6558 13.0777C12.0783 12.7396 11.6232 12.2767 11.2912 11.6875C10.9584 11.0991 10.7924 10.4287 10.7924 9.6772C10.7924 8.92573 10.9584 8.25279 11.2912 7.65756C11.6232 7.0632 12.0783 6.59608 12.6558 6.25791C13.2323 5.91975 13.8851 5.75066 14.6131 5.75066C15.3412 5.75066 15.9931 5.91975 16.5705 6.25791C17.1472 6.59608 17.5989 7.06234 17.9257 7.65756C18.2516 8.25279 18.415 8.92573 18.415 9.6772C18.415 10.4287 18.2516 11.0991 17.9257 11.6875Z" fill="var(--fill-0, #252525)"/>
<path id="Vector_3" d="M38.7717 5.11189C37.9872 4.66099 37.0932 4.43555 36.0897 4.43555C35.0861 4.43555 34.1887 4.66099 33.3983 5.11189C32.6078 5.56279 31.9867 6.18278 31.535 6.97184C31.0832 7.7609 30.8574 8.66269 30.8574 9.6772C30.8574 10.6917 31.0832 11.5747 31.535 12.3638C31.9867 13.1529 32.6078 13.7728 33.3983 14.2237C34.1887 14.6746 35.0853 14.9001 36.0897 14.9001C37.0941 14.9001 37.9872 14.6746 38.7717 14.2237C39.5562 13.7728 40.1764 13.1529 40.635 12.3638C41.0926 11.5747 41.3219 10.6798 41.3219 9.6772C41.3091 8.66269 41.0773 7.7609 40.6256 6.97184C40.1738 6.18278 39.5562 5.56279 38.7717 5.11189ZM39.4022 11.6875C39.0754 12.2767 38.6237 12.7396 38.0471 13.0777C37.4696 13.4159 36.8169 13.585 36.0897 13.585C35.3625 13.585 34.7089 13.4159 34.1323 13.0777C33.5548 12.7396 33.0997 12.2767 32.7677 11.6875C32.4349 11.0991 32.269 10.4287 32.269 9.6772C32.269 8.92573 32.4349 8.25279 32.7677 7.65756C33.0997 7.0632 33.5548 6.59608 34.1323 6.25791C34.7089 5.91975 35.3617 5.75066 36.0897 5.75066C36.8177 5.75066 37.4696 5.91975 38.0471 6.25791C38.6237 6.59608 39.0754 7.06234 39.4022 7.65756C39.7281 8.25279 39.8915 8.92573 39.8915 9.6772C39.8915 10.4287 39.7281 11.0991 39.4022 11.6875Z" fill="var(--fill-0, #252525)"/>
<path id="Vector_4" d="M52.5098 0.000976562C52.2959 0.000976562 52.1205 0.0673321 51.9828 0.200043C51.8442 0.332753 51.7757 0.51286 51.7757 0.740364V6.31422C51.3617 5.72046 50.8159 5.24304 50.1384 4.88283C49.4608 4.52262 48.7011 4.3425 47.861 4.3425C46.8943 4.3425 46.0285 4.57346 45.2637 5.0345C44.498 5.4964 43.8923 6.12462 43.4474 6.92087C43.0017 7.71716 42.7793 8.61511 42.7793 9.61302C42.7793 10.6109 43.0077 11.5278 43.4663 12.3241C43.9239 13.1203 44.5485 13.7495 45.339 14.2105C46.1295 14.6724 47.02 14.9025 48.0115 14.9025C49.0031 14.9025 49.8714 14.675 50.6559 14.22C51.4395 13.765 52.0606 13.1428 52.5192 12.3525C52.9769 11.5631 53.2181 10.6747 53.2438 9.68883V0.740364C53.2438 0.51286 53.1745 0.332753 53.0368 0.200043C52.8982 0.0673321 52.7228 0.000976562 52.5098 0.000976562ZM51.3147 11.6416C50.9819 12.2362 50.5302 12.7067 49.9595 13.054C49.3889 13.4022 48.7387 13.5754 48.0115 13.5754C47.2843 13.5754 46.6496 13.4022 46.073 13.054C45.4955 12.7067 45.0378 12.2353 44.6991 11.6416C44.3603 11.0479 44.1909 10.3713 44.1909 9.61302C44.1909 8.85464 44.3603 8.19453 44.6991 7.59394C45.0378 6.99415 45.4955 6.52276 46.073 6.1815C46.6496 5.84024 47.2963 5.66961 48.0115 5.66961C48.7267 5.66961 49.3881 5.84024 49.9595 6.1815C50.5302 6.52276 50.9819 6.99328 51.3147 7.59394C51.6466 8.19453 51.8134 8.8676 51.8134 9.61302C51.8134 10.3584 51.6466 11.0479 51.3147 11.6416Z" fill="var(--fill-0, #252525)"/>
<path id="Vector_5" d="M62.7335 5.12128C61.9488 4.66441 61.0608 4.43555 60.0702 4.43555C59.0795 4.43555 58.188 4.66441 57.3976 5.12128C56.6071 5.57901 55.9826 6.20155 55.5249 6.99061C55.0664 7.77968 54.8379 8.67548 54.8379 9.67721C54.8379 10.6789 55.0603 11.5559 55.5061 12.345C55.9509 13.1341 56.5566 13.7575 57.3223 14.2144C58.0871 14.6721 58.9529 14.9001 59.9196 14.9001C60.835 14.9001 61.6537 14.6909 62.376 14.2707C62.9619 13.93 63.4471 13.4876 63.8342 12.9488V14.0922C63.8342 14.3057 63.9027 14.4774 64.0416 14.6089C64.1792 14.7404 64.3546 14.8061 64.5682 14.8061C64.7824 14.8061 64.9571 14.7404 65.0953 14.6089C65.233 14.4774 65.3021 14.3057 65.3021 14.0922V9.67721C65.2898 8.67548 65.0546 7.77968 64.5965 6.99061C64.1379 6.20155 63.5168 5.57816 62.7335 5.12128ZM62.018 13.0777C61.4475 13.4159 60.7973 13.585 60.0702 13.585C59.343 13.585 58.7082 13.4159 58.1316 13.0777C57.5541 12.7396 57.0964 12.2733 56.7576 11.6781C56.4189 11.0837 56.2495 10.4168 56.2495 9.67721C56.2495 8.93765 56.4189 8.25619 56.7576 7.66695C57.0964 7.07858 57.5541 6.61232 58.1316 6.26729C58.7082 5.92316 59.355 5.75066 60.0702 5.75066C60.7854 5.75066 61.4467 5.92316 62.018 6.26729C62.589 6.61232 63.0403 7.07858 63.373 7.66695C63.7051 8.25619 63.8718 8.92574 63.8718 9.67721C63.8718 10.4287 63.7051 11.0829 63.373 11.6781C63.0403 12.2733 62.589 12.7396 62.018 13.0777Z" fill="var(--fill-0, #252525)"/>
<path id="Vector_6" d="M75.4895 4.51614C75.074 4.33953 74.7715 4.45325 74.5826 4.85728L71.0651 12.6313L67.3816 4.83833C67.2933 4.64881 67.1667 4.52561 67.0038 4.46876C66.8396 4.4119 66.6636 4.42827 66.4747 4.51614C66.2858 4.60487 66.1593 4.73151 66.0963 4.89519C66.0327 5.05974 66.0457 5.23634 66.1346 5.42586L70.349 14.1819C70.3515 14.1871 70.3552 14.1914 70.3577 14.1966L68.4779 18.3515C68.289 18.7685 68.4082 19.0717 68.8372 19.2612C68.9625 19.3112 69.0767 19.337 69.1774 19.337C69.4163 19.337 69.599 19.1915 69.7249 18.9011L75.8488 5.40691C76.0377 4.98995 75.9173 4.69361 75.4895 4.51614Z" fill="var(--fill-0, #252525)"/>
<path id="Vector_7" d="M25.2982 6.4166C26.2388 6.4166 27.0006 5.65476 27.0006 4.71416C27.0006 3.77356 26.2388 3.01172 25.2982 3.01172C24.3575 3.01172 23.5957 3.77356 23.5957 4.71416C23.5957 5.65476 24.3575 6.4166 25.2982 6.4166Z" fill="var(--fill-0, #252525)"/>
<path id="Vector_8" d="M24.3088 8.87179L24.3338 8.8513C24.6248 8.61307 24.6675 8.18397 24.4293 7.89303L21.7739 4.64998C21.5357 4.35898 21.1066 4.31623 20.8156 4.5545L20.7906 4.57499C20.4996 4.81325 20.4568 5.24229 20.6951 5.53329L23.3504 8.77629C23.5887 9.0673 24.0178 9.11008 24.3088 8.87179Z" fill="var(--fill-0, #252525)"/>
<path id="Vector_9" d="M29.8006 4.57109L29.7756 4.55059C29.4846 4.31233 29.0555 4.35508 28.8172 4.64607L26.1619 7.88913C25.9236 8.18007 25.9664 8.60911 26.2574 8.8474L26.2824 8.86789C26.5734 9.10618 27.0025 9.0634 27.2407 8.77239L29.8961 5.52939C30.1343 5.23839 30.0916 4.80934 29.8006 4.57109Z" fill="var(--fill-0, #252525)"/>
<path id="Vector_10" d="M29.5197 13.7418L25.8492 9.25924C25.7105 9.08984 25.5087 9.00305 25.3061 9.00391C25.1036 9.00305 24.9018 9.08984 24.7631 9.25924L21.0739 13.7639C20.8296 14.0618 20.8739 14.5011 21.1718 14.7445C21.4697 14.9889 21.9089 14.9446 22.1523 14.6466L25.238 10.8783C25.273 10.8357 25.3385 10.8357 25.3734 10.8783L28.4591 14.6466C28.7076 14.9497 29.1588 14.9897 29.4567 14.7309C29.7444 14.4807 29.7615 14.0363 29.5197 13.7409V13.7418Z" fill="var(--fill-0, #252525)"/>
</g>
<defs>
<clipPath id="clip0_0_45">
<rect width="75.9308" height="19.7544" fill="white"/>
</clipPath>
</defs>
</svg>
